<svg width="400" height="400" viewBox="0 0 400 400" fill="none" xmlns="http://www.w3.org/2000/svg">
<path d="M56.2333 301.109H84.3613V292.157H56.2333V301.109Z" fill="#EBEBEB"/>
<path d="M195.114 268.645C194.834 267.237 194.674 265.973 194.53 264.645C194.395 263.303 194.328 261.955 194.33 260.605C194.325 259.194 194.448 257.786 194.698 256.397C194.958 254.794 195.6 253.276 196.57 251.973C197.177 251.216 197.964 250.622 198.858 250.245C199.3 250.062 199.762 249.933 200.234 249.861C200.671 249.799 201.113 249.78 201.554 249.805C203.195 249.928 204.758 250.557 206.026 251.605C207.169 252.515 208.14 253.624 208.89 254.877C209.681 256.11 210.225 257.485 210.49 258.925C210.653 259.787 210.584 260.676 210.29 261.501C210.085 262.032 209.726 262.489 209.258 262.813C208.811 263.112 208.291 263.283 207.754 263.309C207.194 263.349 206.636 263.215 206.154 262.925C205.744 262.668 205.394 262.324 205.13 261.917C204.726 261.259 204.454 260.528 204.33 259.765C204.094 258.41 204.094 257.024 204.33 255.669C204.54 254.312 205.033 253.015 205.778 251.861C206.187 251.249 206.736 250.742 207.378 250.381C208.039 250.026 208.798 249.9 209.538 250.021C210.861 250.323 212.057 251.027 212.962 252.037C214.682 253.928 216.053 256.108 217.01 258.477C215.885 256.234 214.374 254.205 212.546 252.485C211.694 251.658 210.602 251.12 209.426 250.949C208.893 250.931 208.366 251.074 207.916 251.36C207.465 251.645 207.11 252.06 206.898 252.549C206.371 253.587 206.066 254.723 206.002 255.885C205.899 257.037 205.996 258.199 206.29 259.317C206.41 259.796 206.622 260.247 206.914 260.645C207.005 260.764 207.123 260.86 207.258 260.925C207.347 260.949 207.441 260.95 207.531 260.928C207.62 260.905 207.703 260.86 207.77 260.797C207.811 260.744 207.835 260.68 207.842 260.613C207.901 260.223 207.874 259.824 207.762 259.445C207.119 257.382 205.789 255.601 203.994 254.397C203.256 253.879 202.376 253.599 201.474 253.597C201.285 253.606 201.097 253.635 200.914 253.685C200.764 253.722 200.618 253.779 200.482 253.853C200.221 254.003 200.004 254.218 199.85 254.477C199.409 255.275 199.149 256.16 199.09 257.069C198.994 258.185 198.994 259.306 199.09 260.421C199.186 261.581 199.354 262.757 199.57 263.925C199.786 265.093 200.058 266.325 200.37 267.357L195.114 268.645Z" fill="#EBEBEB"/>
<path opacity="0.1" d="M195.114 268.645C194.834 267.237 194.674 265.973 194.53 264.645C194.395 263.303 194.328 261.955 194.33 260.605C194.325 259.194 194.448 257.786 194.698 256.397C194.958 254.794 195.6 253.276 196.57 251.973C197.177 251.216 197.964 250.622 198.858 250.245C199.3 250.062 199.762 249.933 200.234 249.861C200.671 249.799 201.113 249.78 201.554 249.805C203.195 249.928 204.758 250.557 206.026 251.605C207.169 252.515 208.14 253.624 208.89 254.877C209.681 256.11 210.225 257.485 210.49 258.925C210.653 259.787 210.584 260.676 210.29 261.501C210.085 262.032 209.726 262.489 209.258 262.813C208.811 263.112 208.291 263.283 207.754 263.309C207.194 263.349 206.636 263.215 206.154 262.925C205.744 262.668 205.394 262.324 205.13 261.917C204.726 261.259 204.454 260.528 204.33 259.765C204.094 258.41 204.094 257.024 204.33 255.669C204.54 254.312 205.033 253.015 205.778 251.861C206.187 251.249 206.736 250.742 207.378 250.381C208.039 250.026 208.798 249.9 209.538 250.021C210.861 250.323 212.057 251.027 212.962 252.037C214.682 253.928 216.053 256.108 217.01 258.477C215.885 256.234 214.374 254.205 212.546 252.485C211.694 251.658 210.602 251.12 209.426 250.949C208.893 250.931 208.366 251.074 207.916 251.36C207.465 251.645 207.11 252.06 206.898 252.549C206.371 253.587 206.066 254.723 206.002 255.885C205.899 257.037 205.996 258.199 206.29 259.317C206.41 259.796 206.622 260.247 206.914 260.645C207.005 260.764 207.123 260.86 207.258 260.925C207.347 260.949 207.441 260.95 207.531 260.928C207.62 260.905 207.703 260.86 207.77 260.797C207.811 260.744 207.835 260.68 207.842 260.613C207.901 260.223 207.874 259.824 207.762 259.445C207.119 257.382 205.789 255.601 203.994 254.397C203.256 253.879 202.376 253.599 201.474 253.597C201.285 253.606 201.097 253.635 200.914 253.685C200.764 253.722 200.618 253.779 200.482 253.853C200.221 254.003 200.004 254.218 199.85 254.477C199.409 255.275 199.149 256.16 199.09 257.069C198.994 258.185 198.994 259.306 199.09 260.421C199.186 261.581 199.354 262.757 199.57 263.925C199.786 265.093 200.058 266.325 200.37 267.357L195.114 268.645Z" fill="black"/>
<path d="M189.705 329.213C186.049 334.389 186.793 350.173 184.585 352.413C182.377 354.653 159.665 354.389 158.137 353.093C156.609 351.797 157.337 346.213 155.609 345.293C154.937 344.901 189.705 329.213 189.705 329.213Z" fill="#EBEBEB"/>
<path opacity="0.1" d="M155.617 345.269C155.883 345.47 156.106 345.722 156.272 346.011C156.439 346.3 156.545 346.619 156.585 346.949C167.064 345.724 177.306 342.969 186.985 338.773C187.505 334.925 188.265 331.253 189.697 329.221C189.705 329.221 154.937 344.909 155.617 345.269Z" fill="black"/>
<path d="M80.9062 329.469C85.4742 336.069 83.0022 350.173 85.2182 352.381C87.4342 354.589 110.138 354.357 111.666 353.061C113.194 351.765 112.466 345.861 113.394 344.765C113.866 344.173 80.9062 329.469 80.9062 329.469Z" fill="#EBEBEB"/>
<path opacity="0.1" d="M80.9062 329.469C82.6022 331.925 83.3063 335.437 83.6903 338.973C92.9735 343.088 102.813 345.81 112.89 347.053C112.88 346.262 113.053 345.479 113.394 344.765C113.874 344.165 80.9062 329.469 80.9062 329.469Z" fill="black"/>
<path d="M136.594 234.869C187.586 234.869 207.106 270.613 207.106 291.533C207.106 312.173 192.282 347.253 136.594 347.253C80.9056 347.253 62.4336 317.533 62.4336 291.061C62.4336 264.589 85.0816 234.869 136.594 234.869Z" fill="#EBEBEB"/>
<path d="M117.866 237.453C117.866 237.453 97.0099 221.453 74.4179 223.357C66.6419 224.013 79.5539 240.869 79.7939 254.037L117.866 237.453Z" fill="#EBEBEB"/>
<path opacity="0.1" d="M88.5059 247.589C88.6339 248.389 81.4339 251.509 80.6899 251.037C79.9459 250.565 79.1939 240.189 73.3219 229.141C72.4579 227.517 87.1139 238.677 88.5059 247.589Z" fill="black"/>
<path opacity="0.3" d="M83.9779 291.061C83.2817 290.957 82.6297 290.656 82.0984 290.194C81.5671 289.732 81.1784 289.128 80.9779 288.453C81.0439 289.278 81.2938 290.078 81.7091 290.793C82.1244 291.509 82.6946 292.123 83.3779 292.589C83.4819 292.661 83.4339 292.845 83.2979 292.805C79.2979 291.309 79.7379 285.669 81.1379 282.077C81.2179 281.877 81.2899 281.685 81.3779 281.493C82.2739 279.405 83.8339 277.901 85.7939 278.181C92.2739 279.109 89.9459 291.925 83.9779 291.061Z" fill="black"/>
<path d="M68.61 274.405C67.61 277.405 58.554 274.973 56.274 276.869C52.682 279.853 53.674 316.869 56.962 319.829C58.802 321.501 69.074 319.741 71.962 321.773C74.85 323.805 68.61 274.405 68.61 274.405Z" fill="#EBEBEB"/>
<path opacity="0.1" d="M55.7939 297.453C55.7939 306.461 56.5459 313.765 57.4739 313.765C58.4019 313.765 59.1539 306.461 59.1539 297.453C59.1539 288.445 58.4019 281.133 57.4739 281.133C56.5459 281.133 55.7939 288.437 55.7939 297.453Z" fill="black"/>
<path opacity="0.1" d="M161.225 247.429C160.993 247.365 137.697 241.245 116.017 246.037L113.857 239.637C137.985 234.309 162.769 240.853 163.817 241.133L161.217 247.413L162.521 244.277L161.225 247.429Z" fill="#030402"/>
<path d="M183.034 325.269C203.61 301.637 191.034 274.189 190.45 273.013C190.082 272.212 190.042 271.298 190.338 270.467C190.633 269.637 191.242 268.954 192.033 268.565C192.825 268.176 193.737 268.111 194.575 268.385C195.414 268.658 196.112 269.248 196.522 270.029C199.304 276.257 200.946 282.933 201.37 289.741C202.362 304.765 197.37 318.541 185.626 327.973C182.074 330.805 180.394 328.309 183.034 325.269Z" fill="white"/>
<path d="M191.986 262.517C191.988 263.246 191.773 263.959 191.369 264.565C190.965 265.171 190.391 265.644 189.718 265.924C189.045 266.203 188.305 266.277 187.59 266.135C186.875 265.993 186.219 265.643 185.704 265.128C185.189 264.612 184.838 263.956 184.696 263.241C184.555 262.527 184.628 261.786 184.908 261.113C185.187 260.441 185.66 259.866 186.266 259.462C186.873 259.059 187.585 258.844 188.314 258.845C189.287 258.848 190.22 259.235 190.908 259.923C191.596 260.611 191.984 261.544 191.986 262.517Z" fill="white"/>
<path d="M273.992 53.832H142.864C141.106 53.8477 139.368 54.2097 137.75 54.8974C136.131 55.585 134.664 56.5848 133.432 57.8396C132.201 59.0945 131.228 60.5797 130.571 62.2105C129.913 63.8413 129.583 65.5857 129.6 67.344V337.208C129.57 340.758 130.95 344.174 133.437 346.708C135.924 349.241 139.314 350.684 142.864 350.72H273.992C277.544 350.686 280.937 349.244 283.427 346.711C285.917 344.178 287.3 340.76 287.272 337.208V67.344C287.302 63.7915 285.92 60.3725 283.43 57.8387C280.939 55.3049 277.545 53.8637 273.992 53.832ZM278.968 328.864C278.968 335.968 273.648 341.72 267.088 341.72H149.776C143.2 341.72 137.88 335.968 137.88 328.864V77.6C137.88 63.128 143.2 62.4 149.776 62.4H173.272C174.64 62.4 175.752 63.952 175.752 65.872V66.672C175.752 71.176 178.224 71.192 181.248 71.192H235.592C238.648 71.192 241.096 71.192 241.096 66.672V65.872C241.096 63.952 242.2 62.4 243.584 62.4H267.072C273.632 62.4 278.952 64.328 278.952 77.6L278.968 328.864Z" fill="#263238"/>
<path d="M278.936 77.6001V328.864C278.936 335.968 273.616 341.72 267.056 341.72H149.776C143.2 341.72 137.88 335.968 137.88 328.864V77.6001C137.88 63.1281 143.2 62.4001 149.776 62.4001H173.272C174.64 62.4001 175.752 63.9521 175.752 65.8721V66.6721C175.752 71.1761 178.224 71.1921 181.248 71.1921H235.592C238.648 71.1921 241.096 71.1921 241.096 66.6721V65.8721C241.096 63.9521 242.2 62.4001 243.584 62.4001H267.072C273.616 62.4001 278.936 64.3201 278.936 77.6001Z" fill="white"/>
<path d="M169.192 68.0401C169.12 68.1121 169.04 68.1841 168.968 68.2641L168.84 68.3921C168.26 67.8122 167.473 67.4865 166.652 67.4865C165.832 67.4865 165.045 67.8122 164.464 68.3921L164.336 68.2641L164.112 68.0401L164.392 67.7921C164.84 67.4295 165.371 67.1823 165.936 67.0721C166.088 67.0721 166.232 67.0321 166.376 67.0081H166.792H167.096C167.37 67.0431 167.638 67.1102 167.896 67.2081C168.084 67.2758 168.266 67.3588 168.44 67.4561C168.623 67.5649 168.797 67.6879 168.96 67.8241L169.2 68.0401H169.192Z" fill="#C7C7C7"/>
<path d="M165.192 69.104L164.832 68.752C165.223 68.3535 165.735 68.0949 166.288 68.016C166.686 67.9577 167.092 67.9932 167.474 68.1196C167.856 68.246 168.203 68.4598 168.488 68.744L168.128 69.104C167.738 68.7157 167.21 68.4976 166.66 68.4976C166.11 68.4976 165.582 68.7157 165.192 69.104Z" fill="#C7C7C7"/>
<path d="M167.784 69.464L167.424 69.824C167.327 69.7234 167.21 69.6438 167.081 69.5901C166.951 69.5364 166.812 69.5099 166.672 69.512C166.532 69.5103 166.394 69.5371 166.264 69.5908C166.135 69.6444 166.018 69.7238 165.92 69.824L165.568 69.464C165.866 69.178 166.263 69.0183 166.676 69.0183C167.089 69.0183 167.486 69.178 167.784 69.464Z" fill="#C7C7C7"/>
<path d="M167.001 70.1441C167.002 70.2093 166.984 70.2734 166.949 70.3284C166.914 70.3834 166.864 70.4267 166.804 70.4528C166.744 70.4788 166.678 70.4865 166.614 70.4747C166.55 70.463 166.49 70.4324 166.444 70.3869C166.397 70.3413 166.365 70.2829 166.352 70.2191C166.338 70.1552 166.344 70.0889 166.369 70.0285C166.393 69.9681 166.436 69.9164 166.49 69.88C166.544 69.8436 166.607 69.8241 166.673 69.8241C166.715 69.823 166.758 69.8305 166.798 69.8461C166.837 69.8617 166.874 69.8851 166.904 69.9149C166.935 69.9447 166.959 69.9804 166.976 70.0197C166.992 70.0591 167.001 70.1014 167.001 70.1441Z" fill="#C7C7C7"/>
<path d="M147.08 68.7199C147.08 68.5348 147.135 68.3538 147.238 68.1999C147.341 68.046 147.487 67.926 147.658 67.8552C147.829 67.7843 148.017 67.7658 148.199 67.8019C148.38 67.838 148.547 67.9272 148.678 68.0581C148.809 68.189 148.898 68.3558 148.934 68.5373C148.97 68.7189 148.952 68.9071 148.881 69.0781C148.81 69.2492 148.69 69.3953 148.536 69.4982C148.382 69.601 148.201 69.6559 148.016 69.6559C147.893 69.6559 147.771 69.6317 147.658 69.5847C147.544 69.5376 147.441 69.4687 147.354 69.3818C147.267 69.2949 147.198 69.1917 147.151 69.0781C147.104 68.9646 147.08 68.8429 147.08 68.7199Z" fill="#C7C7C7"/>
<path d="M149.992 68.7199C149.992 68.5348 150.047 68.3538 150.15 68.1999C150.253 68.046 150.399 67.926 150.57 67.8552C150.741 67.7843 150.929 67.7658 151.111 67.8019C151.292 67.838 151.459 67.9272 151.59 68.0581C151.721 68.189 151.81 68.3558 151.846 68.5373C151.882 68.7189 151.864 68.9071 151.793 69.0781C151.722 69.2492 151.602 69.3953 151.448 69.4982C151.294 69.601 151.113 69.6559 150.928 69.6559C150.805 69.6559 150.684 69.6317 150.57 69.5847C150.456 69.5376 150.353 69.4687 150.266 69.3818C150.179 69.2949 150.11 69.1917 150.063 69.0781C150.016 68.9646 149.992 68.8429 149.992 68.7199Z" fill="#C7C7C7"/>
<path d="M152.968 68.7199C152.968 68.5348 153.023 68.3538 153.126 68.1999C153.228 68.046 153.375 67.926 153.546 67.8552C153.717 67.7843 153.905 67.7658 154.086 67.8019C154.268 67.838 154.435 67.9272 154.566 68.0581C154.697 68.189 154.786 68.3558 154.822 68.5373C154.858 68.7189 154.839 68.9071 154.769 69.0781C154.698 69.2492 154.578 69.3953 154.424 69.4982C154.27 69.601 154.089 69.6559 153.904 69.6559C153.781 69.6559 153.659 69.6317 153.546 69.5847C153.432 69.5376 153.329 69.4687 153.242 69.3818C153.155 69.2949 153.086 69.1917 153.039 69.0781C152.992 68.9646 152.968 68.8429 152.968 68.7199Z" fill="#C7C7C7"/>
<path d="M155.92 68.7201C155.92 68.5347 155.975 68.3534 156.078 68.1993C156.181 68.0452 156.328 67.9253 156.5 67.8547C156.671 67.7841 156.86 67.766 157.042 67.8028C157.223 67.8395 157.39 67.9295 157.521 68.0612C157.651 68.1929 157.74 68.3604 157.775 68.5425C157.81 68.7246 157.79 68.913 157.718 69.0839C157.646 69.2548 157.525 69.4004 157.37 69.5023C157.215 69.6042 157.033 69.6577 156.848 69.6561C156.725 69.6562 156.604 69.6319 156.491 69.5848C156.378 69.5376 156.275 69.4685 156.189 69.3815C156.103 69.2945 156.034 69.1912 155.988 69.0777C155.942 68.9642 155.919 68.8427 155.92 68.7201Z" fill="#C7C7C7"/>
<path d="M158.864 68.7201C158.864 68.5347 158.919 68.3534 159.023 68.1993C159.126 68.0452 159.272 67.9253 159.444 67.8547C159.615 67.7841 159.804 67.766 159.986 67.8028C160.168 67.8395 160.334 67.9295 160.465 68.0612C160.596 68.1929 160.684 68.3604 160.719 68.5425C160.754 68.7246 160.735 68.913 160.663 69.0839C160.591 69.2548 160.469 69.4004 160.314 69.5023C160.159 69.6042 159.978 69.6577 159.792 69.6561C159.67 69.6562 159.548 69.6319 159.435 69.5848C159.322 69.5376 159.22 69.4685 159.133 69.3815C159.047 69.2945 158.979 69.1912 158.933 69.0777C158.886 68.9642 158.863 68.8427 158.864 68.7201Z" fill="#C7C7C7"/>
<path d="M268.392 70.768H260.784V67.24H268.392V70.768ZM261.192 70.376H268.032V67.624H261.192V70.376Z" fill="#C7C7C7"/>
<path d="M266.288 67.8401H261.384V70.1681H266.288V67.8401Z" fill="#C7C7C7"/>
<path d="M269.048 68.0562H268.368V69.9442H269.048V68.0562Z" fill="#C7C7C7"/>
<path d="M215.824 65.6001H201.008C200.764 65.6001 200.53 65.5031 200.357 65.3306C200.185 65.1581 200.088 64.9241 200.088 64.6801C200.09 64.4375 200.188 64.2055 200.36 64.0347C200.532 63.8639 200.765 63.7681 201.008 63.7681H215.824C216.067 63.7681 216.299 63.8639 216.472 64.0347C216.644 64.2055 216.742 64.4375 216.744 64.6801C216.744 64.9241 216.647 65.1581 216.474 65.3306C216.302 65.5031 216.068 65.6001 215.824 65.6001Z" fill="white"/>
<path d="M156.224 326.928H155.536V330.096H154.24V328.488H151.96V330.096H150.672V326.928H149.984L153.104 323.704L156.224 326.928Z" fill="#EBEBEB"/>
<path d="M267.96 323.704H260.44V324.776H267.96V323.704Z" fill="#EBEBEB"/>
<path d="M267.96 326.368H260.44V327.44H267.96V326.368Z" fill="#EBEBEB"/>
<path d="M267.96 329.024H260.44V330.096H267.96V329.024Z" fill="#EBEBEB"/>
<path d="M211.184 327.016L209.048 329.296L206.904 327.016L207.288 326.656L209.048 328.536L210.808 326.656L211.184 327.016Z" fill="#EBEBEB"/>
<path d="M209.048 331.656C208.279 331.658 207.527 331.431 206.886 331.005C206.246 330.579 205.746 329.972 205.451 329.262C205.155 328.551 205.077 327.769 205.226 327.015C205.375 326.26 205.745 325.566 206.288 325.022C206.832 324.477 207.524 324.106 208.279 323.955C209.033 323.805 209.815 323.881 210.526 324.175C211.237 324.469 211.845 324.968 212.273 325.607C212.7 326.247 212.928 326.999 212.928 327.768C212.926 328.797 212.517 329.784 211.79 330.512C211.063 331.241 210.077 331.652 209.048 331.656ZM209.048 324.4C208.38 324.399 207.726 324.595 207.17 324.966C206.613 325.336 206.179 325.863 205.923 326.48C205.666 327.098 205.599 327.777 205.729 328.433C205.859 329.088 206.181 329.691 206.653 330.163C207.126 330.636 207.728 330.958 208.384 331.088C209.039 331.218 209.719 331.15 210.336 330.894C210.953 330.637 211.48 330.203 211.851 329.647C212.221 329.09 212.418 328.437 212.416 327.768C212.414 326.876 212.059 326.02 211.428 325.389C210.796 324.758 209.941 324.402 209.048 324.4Z" fill="#EBEBEB"/>
<path d="M271.481 81.1201H145.353V117.936H271.481V81.1201Z" fill="#4557DD"/>
<path d="M152.528 92.952L148.36 89.04L152.528 85.136L153.176 85.824L149.744 89.04L153.176 92.256L152.528 92.952Z" fill="white"/>
<path d="M268.48 86.6081C268.48 86.7663 268.433 86.921 268.345 87.0526C268.257 87.1841 268.132 87.2867 267.986 87.3472C267.84 87.4078 267.679 87.4236 267.524 87.3927C267.369 87.3619 267.226 87.2857 267.114 87.1738C267.002 87.0619 266.926 86.9194 266.895 86.7642C266.864 86.609 266.88 86.4481 266.941 86.302C267.001 86.1558 267.104 86.0308 267.235 85.9429C267.367 85.855 267.522 85.8081 267.68 85.8081C267.892 85.8081 268.096 85.8924 268.246 86.0424C268.396 86.1924 268.48 86.3959 268.48 86.6081Z" fill="white"/>
<path d="M268.48 89.528C268.48 89.6863 268.433 89.8409 268.345 89.9725C268.257 90.104 268.132 90.2066 267.986 90.2671C267.84 90.3277 267.679 90.3435 267.524 90.3127C267.369 90.2818 267.226 90.2056 267.114 90.0937C267.002 89.9818 266.926 89.8393 266.895 89.6841C266.864 89.5289 266.88 89.3681 266.941 89.2219C267.001 89.0757 267.104 88.9508 267.235 88.8628C267.367 88.7749 267.522 88.728 267.68 88.728C267.892 88.728 268.096 88.8123 268.246 88.9623C268.396 89.1124 268.48 89.3159 268.48 89.528Z" fill="white"/>
<path d="M268.48 92.4401C268.48 92.5984 268.433 92.753 268.345 92.8846C268.257 93.0161 268.132 93.1187 267.986 93.1792C267.84 93.2398 267.679 93.2556 267.524 93.2248C267.369 93.1939 267.226 93.1177 267.114 93.0058C267.002 92.8939 266.926 92.7514 266.895 92.5962C266.864 92.441 266.88 92.2802 266.941 92.134C267.001 91.9878 267.104 91.8629 267.235 91.775C267.367 91.6871 267.522 91.6401 267.68 91.6401C267.892 91.6401 268.096 91.7244 268.246 91.8745C268.396 92.0245 268.48 92.228 268.48 92.4401Z" fill="white"/>
<path d="M158.864 89.0399C173.376 88.5039 187.992 88.5039 202.512 89.0399C187.992 89.5759 173.376 89.5759 158.864 89.0399Z" fill="white"/>
<path d="M158.864 92.9522C168.664 92.6882 179.448 92.6882 189.264 92.9522C179.464 93.2162 168.68 93.2082 158.864 92.9522Z" fill="white"/>
<path d="M173.296 106.4C195.792 106.152 221.032 106.152 243.52 106.4C221.032 106.648 195.792 106.648 173.296 106.4Z" fill="white"/>
<path d="M151.097 148.184C171.001 148.04 190.913 148.072 210.817 148.016C230.721 147.96 250.633 148.016 270.545 148.184C250.633 148.32 230.729 148.288 210.817 148.344C190.905 148.4 171.001 148.32 151.097 148.184Z" fill="#455A64"/>
<path d="M151.097 161.6C171.001 161.464 190.913 161.496 210.817 161.44C230.721 161.384 250.633 161.44 270.545 161.6C250.633 161.744 230.729 161.712 210.817 161.768C190.905 161.824 171.001 161.776 151.097 161.6Z" fill="#455A64"/>
<path d="M151.097 175.088C171.001 174.952 190.913 174.984 210.817 174.928C230.721 174.872 250.633 174.928 270.545 175.088C250.633 175.232 230.729 175.2 210.817 175.256C190.905 175.312 171.001 175.2 151.097 175.088Z" fill="#455A64"/>
<path d="M151.097 188.544C171.001 188.408 190.913 188.44 210.817 188.384C230.721 188.328 250.633 188.384 270.545 188.544C250.633 188.688 230.729 188.648 210.817 188.712C190.913 188.648 171.001 188.688 151.097 188.544Z" fill="#455A64"/>
<path d="M151.097 202C171.001 201.856 190.913 201.896 210.817 201.84C230.721 201.784 250.633 201.84 270.545 202C250.633 202.144 230.729 202.104 210.817 202.168C190.913 202.104 171.001 202.144 151.097 202Z" fill="#455A64"/>
<path d="M175.144 139.432C175.32 152.008 175.272 164.576 175.352 177.152C175.28 189.72 175.352 202.296 175.144 214.864C174.968 202.296 175.016 189.72 174.944 177.152C175.016 164.576 174.968 152 175.144 139.432Z" fill="#455A64"/>
<path d="M195.801 139.432C195.977 152.008 195.929 164.576 196.009 177.152C195.929 189.72 196.009 202.296 195.801 214.864C195.625 202.296 195.673 189.72 195.601 177.152C195.673 164.576 195.593 152 195.801 139.432Z" fill="#455A64"/>
<path d="M216.456 139.432C216.632 152.008 216.584 164.576 216.656 177.152C216.584 189.72 216.656 202.296 216.456 214.864C216.28 202.296 216.328 189.72 216.248 177.152C216.328 164.576 216.28 152 216.456 139.432Z" fill="#455A64"/>
<path d="M237.112 139.432C237.288 152.008 237.24 164.576 237.312 177.152C237.24 189.72 237.312 202.296 237.112 214.864C236.936 202.296 236.976 189.72 236.904 177.152C236.984 164.576 236.936 152 237.112 139.432Z" fill="#455A64"/>
<path d="M257.769 139.432C257.945 152.008 257.897 164.576 257.969 177.152C257.897 189.72 257.969 202.296 257.769 214.864C257.593 202.296 257.633 189.72 257.561 177.152C257.633 164.576 257.593 152 257.769 139.432Z" fill="#455A64"/>
<path opacity="0.5" d="M154.104 192.24C157.752 192.24 159.928 178.576 165.088 178.576C170.248 178.576 170.8 188.544 175.144 188.544C179.488 188.544 179.36 171.032 185.2 171.032C191.04 171.032 189.688 178.136 195.8 178.136C201.912 178.136 199.592 161.6 205.992 161.6C212.392 161.6 209.8 184.336 216.456 184.336C220.672 184.336 222.296 177.136 227.328 177.136C230.656 177.136 232.616 180.744 236.968 180.744C241.32 180.744 242.272 166.856 247.712 166.856C253.152 166.856 253.768 175.072 257.768 175.072C261.768 175.072 263.2 161.616 270.568 161.616V214.848H154.104V192.24Z" fill="#4557DD"/>
<path opacity="0.3" d="M154.104 192.24C157.752 192.24 159.928 178.576 165.088 178.576C170.248 178.576 170.8 188.544 175.144 188.544C179.488 188.544 179.36 171.032 185.2 171.032C191.04 171.032 189.688 178.136 195.8 178.136C201.912 178.136 199.592 161.6 205.992 161.6C212.392 161.6 209.8 184.336 216.456 184.336C220.672 184.336 222.296 177.136 227.328 177.136C230.656 177.136 232.616 180.744 236.968 180.744C241.32 180.744 242.272 166.856 247.712 166.856C253.152 166.856 253.768 175.072 257.768 175.072C261.768 175.072 263.2 161.616 270.568 161.616V214.848H154.104V192.24Z" fill="#4557DD"/>
<path d="M154.104 192.896V191.584C155.208 191.584 156.728 188.384 157.84 186.064C159.744 182.064 161.72 177.92 165.088 177.92C168.288 177.92 169.928 180.952 171.344 183.624C172.456 185.72 173.6 187.888 175.144 187.888C176.504 187.888 177.68 183.68 178.544 180.608C179.952 175.576 181.408 170.376 185.2 170.376C188.584 170.376 189.912 172.416 191.08 174.216C192.248 176.016 193.2 177.48 195.8 177.48C198.152 177.48 199.072 173.624 199.96 169.896C201.008 165.512 202.088 160.976 205.992 160.976C209.896 160.976 210.856 166.688 211.904 172.736C212.752 177.624 213.8 183.712 216.456 183.712C218.056 183.712 219.336 182.208 220.712 180.624C222.376 178.688 224.272 176.488 227.328 176.488C229.16 176.488 230.592 177.384 231.976 178.256C233.36 179.128 234.928 180.104 236.968 180.104C238.48 180.104 239.856 176.8 240.968 174.144C242.568 170.248 244.272 166.216 247.72 166.216C251.168 166.216 252.824 168.84 254.312 171.152C255.4 172.84 256.424 174.432 257.776 174.432C258.928 174.432 260.224 171.88 261.376 169.632C263.336 165.776 265.776 160.984 270.552 160.984V162.304C266.872 162.304 264.76 166.464 262.888 170.128C261.288 173.272 260.024 175.728 257.776 175.728C255.528 175.728 254.184 173.784 252.864 171.728C251.544 169.672 250.144 167.512 247.72 167.512C245.448 167.512 243.896 171.248 242.52 174.544C240.984 178.216 239.664 181.392 236.976 181.392C234.288 181.392 232.576 180.264 230.984 179.272C229.712 178.472 228.584 177.784 227.336 177.784C225.136 177.784 223.576 179.592 222.056 181.352C220.536 183.112 218.904 185 216.456 185C212.384 185 211.36 179.12 210.28 172.896C209.48 168.16 208.44 162.272 205.992 162.272C203.544 162.272 202.44 166.44 201.568 170.12C200.504 174.568 199.504 178.768 195.8 178.768C192.096 178.768 190.84 176.664 189.632 174.768C188.544 173.088 187.592 171.632 185.2 171.632C182.808 171.632 181.288 176.736 180.136 180.848C178.84 185.48 177.808 189.144 175.144 189.144C172.48 189.144 171.224 186.688 169.84 184.08C168.56 181.68 167.24 179.176 165.088 179.176C162.936 179.176 160.92 183.224 159.368 186.472C157.672 190.088 156.336 192.896 154.104 192.896Z" fill="#4557DD"/>
<path opacity="0.5" d="M216.456 184.368V214.864H195.8V178.136C201.912 178.136 199.592 161.6 205.992 161.6C212.392 161.6 209.8 184.368 216.456 184.368Z" fill="#4557DD"/>
<path d="M205.984 164.48C207.791 164.48 209.256 163.015 209.256 161.208C209.256 159.401 207.791 157.936 205.984 157.936C204.177 157.936 202.712 159.401 202.712 161.208C202.712 163.015 204.177 164.48 205.984 164.48Z" fill="#263238"/>
<path d="M207.856 161.208C207.856 161.578 207.747 161.94 207.541 162.248C207.335 162.556 207.043 162.796 206.701 162.937C206.359 163.079 205.982 163.116 205.619 163.044C205.256 162.972 204.922 162.793 204.661 162.532C204.399 162.27 204.221 161.936 204.148 161.573C204.076 161.21 204.113 160.834 204.255 160.492C204.396 160.149 204.636 159.857 204.944 159.651C205.252 159.446 205.614 159.336 205.984 159.336C206.481 159.336 206.957 159.533 207.308 159.884C207.659 160.235 207.856 160.711 207.856 161.208Z" fill="#4557DD"/>
<path d="M211.88 147.872H200.008V154.496H211.88V147.872Z" fill="#4557DD"/>
<path d="M204.376 154.496H207.504L205.944 156.744L204.376 154.496Z" fill="#4557DD"/>
<path d="M202.225 150.32C204.729 150.184 207.24 150.184 209.745 150.32C207.24 150.448 204.73 150.448 202.225 150.32Z" fill="white"/>
<path d="M202.225 151.6C204.729 151.464 207.24 151.464 209.745 151.6C207.24 151.732 204.73 151.732 202.225 151.6Z" fill="white"/>
<path d="M154.104 140.248C154.24 152.688 154.352 165.12 154.36 177.56L154.488 214.864L154.104 214.56L212.32 214.632L241.432 214.696L270.544 214.864L241.432 215.032L212.32 215.096L154.104 215.176H153.72V214.864L153.848 177.56C153.856 165.12 153.992 152.688 154.104 140.248Z" fill="#455A64"/>
<path d="M160.336 220.448C163.086 220.032 165.882 220.032 168.632 220.448C165.882 220.856 163.086 220.856 160.336 220.448Z" fill="#DBDBDB"/>
<path d="M145.353 148.184C146.577 147.768 147.904 147.768 149.129 148.184C147.903 148.592 146.578 148.592 145.353 148.184Z" fill="#DBDBDB"/>
<path d="M145.353 161.6C146.578 161.192 147.903 161.192 149.129 161.6C147.904 162.016 146.577 162.016 145.353 161.6Z" fill="#DBDBDB"/>
<path d="M145.353 175.088C146.578 174.68 147.903 174.68 149.129 175.088C147.904 175.504 146.577 175.504 145.353 175.088Z" fill="#DBDBDB"/>
<path d="M145.353 188.544C146.578 188.136 147.903 188.136 149.129 188.544C147.904 188.96 146.577 188.96 145.353 188.544Z" fill="#DBDBDB"/>
<path d="M145.353 202C146.577 201.588 147.904 201.588 149.129 202C147.904 202.412 146.577 202.412 145.353 202Z" fill="#DBDBDB"/>
<path d="M180.688 220.448C183.435 220.032 186.229 220.032 188.976 220.448C186.229 220.856 183.436 220.856 180.688 220.448Z" fill="#DBDBDB"/>
<path d="M201.032 220.448C203.782 220.032 206.579 220.032 209.328 220.448C206.578 220.856 203.783 220.856 201.032 220.448Z" fill="#DBDBDB"/>
<path d="M221.376 220.448C224.126 220.032 226.922 220.032 229.672 220.448C226.922 220.856 224.126 220.856 221.376 220.448Z" fill="#DBDBDB"/>
<path d="M241.721 220.448C244.47 220.032 247.267 220.032 250.017 220.448C247.266 220.856 244.471 220.856 241.721 220.448Z" fill="#DBDBDB"/>
<path d="M262.072 220.448C264.822 220.032 267.619 220.032 270.368 220.448C267.618 220.856 264.823 220.856 262.072 220.448Z" fill="#DBDBDB"/>
<path d="M145.456 127.32C157.168 126.776 168.968 126.776 180.656 127.32C168.936 127.864 157.136 127.864 145.456 127.32Z" fill="#DBDBDB"/>
<path d="M145.456 131.024C152.979 130.472 160.533 130.472 168.056 131.024C160.533 131.568 152.98 131.568 145.456 131.024Z" fill="#DBDBDB"/>
<path d="M247.944 131.024C255.472 130.616 263.017 130.616 270.544 131.024C263.016 131.424 255.472 131.424 247.944 131.024Z" fill="#4557DD"/>
<path d="M146.24 232.8C158.08 232.256 170.024 232.256 181.872 232.8C170.016 233.344 158.08 233.344 146.24 232.8Z" fill="#263238"/>
<path d="M243.632 232.8C252.597 232.4 261.568 232.4 270.544 232.8C261.579 233.205 252.608 233.205 243.632 232.8Z" fill="#4557DD"/>
<path d="M170.496 244C179.821 243.453 189.171 243.453 198.496 244C189.171 244.543 179.822 244.543 170.496 244Z" fill="#263238"/>
<path d="M170.496 248.104C178.316 247.56 186.164 247.56 193.984 248.104C186.164 248.648 178.316 248.648 170.496 248.104Z" fill="#263238"/>
<path d="M270.544 261.296C270.264 261.024 145.68 262.096 145.968 261.296V239.44V239.136H146.272L208.392 239.2C229.136 239.248 249.88 239.2 270.632 239.328C270.632 239.4 270.512 261.184 270.544 261.272V261.296ZM270.544 261.296L270.456 239.44C250.304 239.808 228.944 239.512 208.392 239.648C208.672 239.432 144.808 240.232 146.536 239.44V261.296C144.84 260.552 270.952 261.528 270.576 261.296H270.544Z" fill="#DBDBDB"/>
<path d="M165.296 242.584H149.456V258.424H165.296V242.584Z" fill="#4557DD"/>
<path d="M266.904 250.504C266.905 252.427 266.206 254.284 264.938 255.729C263.67 257.174 261.919 258.109 260.013 258.358C258.106 258.608 256.174 258.155 254.577 257.085C252.979 256.015 251.826 254.401 251.331 252.543C250.836 250.685 251.034 248.711 251.888 246.988C252.742 245.265 254.193 243.912 255.972 243.181C257.75 242.449 259.733 242.39 261.552 243.013C263.371 243.636 264.901 244.9 265.856 246.568C266.543 247.766 266.904 249.123 266.904 250.504Z" fill="#455A64"/>
<path d="M265.856 246.568L258.984 250.504V242.584C260.379 242.585 261.749 242.954 262.955 243.653C264.162 244.353 265.163 245.358 265.856 246.568Z" fill="#4557DD"/>
<path d="M258.984 255.984C262.01 255.984 264.464 253.53 264.464 250.504C264.464 247.477 262.01 245.024 258.984 245.024C255.957 245.024 253.504 247.477 253.504 250.504C253.504 253.53 255.957 255.984 258.984 255.984Z" fill="white"/>
<path d="M170.496 272.088C179.822 271.545 189.171 271.545 198.496 272.088C189.171 272.631 179.822 272.631 170.496 272.088Z" fill="#263238"/>
<path d="M170.496 276.208C178.316 275.664 186.164 275.664 193.984 276.208C186.164 276.752 178.316 276.752 170.496 276.208Z" fill="#263238"/>
<path d="M270.544 289.4C270.264 289.128 145.68 290.2 145.968 289.4V267.544V267.24H146.272L208.424 267.328C229.168 267.376 249.912 267.328 270.664 267.456C270.664 267.528 270.544 289.312 270.576 289.4H270.544ZM270.544 289.4L270.456 267.544C250.304 267.912 228.944 267.616 208.392 267.752C208.672 267.536 144.808 268.336 146.536 267.544V289.4C144.84 288.656 270.952 289.632 270.576 289.4H270.544Z" fill="#DBDBDB"/>
<path d="M165.296 270.688H149.456V286.528H165.296V270.688Z" fill="#455A64"/>
<path d="M266.904 278.608C266.905 280.531 266.206 282.388 264.938 283.833C263.67 285.278 261.919 286.213 260.013 286.462C258.106 286.712 256.174 286.259 254.577 285.189C252.979 284.119 251.826 282.505 251.331 280.647C250.836 278.789 251.034 276.815 251.888 275.092C252.742 273.369 254.193 272.016 255.972 271.285C257.75 270.553 259.733 270.494 261.552 271.117C263.371 271.74 264.901 273.004 265.856 274.672C266.543 275.87 266.904 277.227 266.904 278.608Z" fill="#455A64"/>
<path d="M266.904 278.608C266.904 278.996 266.874 279.384 266.816 279.768L258.984 278.608V270.688C261.085 270.688 263.099 271.522 264.585 273.008C266.07 274.493 266.904 276.507 266.904 278.608Z" fill="#4557DD"/>
<path d="M264.456 278.608C264.458 279.693 264.137 280.753 263.536 281.656C262.934 282.558 262.079 283.262 261.077 283.677C260.075 284.093 258.973 284.202 257.909 283.991C256.845 283.78 255.868 283.258 255.101 282.491C254.334 281.724 253.812 280.747 253.601 279.683C253.39 278.619 253.499 277.517 253.915 276.515C254.331 275.514 255.034 274.658 255.937 274.056C256.839 273.455 257.9 273.134 258.984 273.136C260.435 273.138 261.825 273.715 262.851 274.741C263.877 275.767 264.454 277.157 264.456 278.608Z" fill="white"/>
<path d="M170.496 300.192C179.822 299.649 189.171 299.649 198.496 300.192C189.171 300.735 179.822 300.735 170.496 300.192Z" fill="#263238"/>
<path d="M170.496 304.312C178.316 303.768 186.164 303.768 193.984 304.312C186.164 304.856 178.316 304.856 170.496 304.312Z" fill="#263238"/>
<path d="M270.544 317.504C270.264 317.232 145.68 318.304 145.968 317.504V295.648V295.344H146.272L208.424 295.432C229.168 295.48 249.912 295.432 270.664 295.56C270.664 295.632 270.544 317.416 270.576 317.504H270.544ZM270.544 317.504L270.456 295.648C250.304 296.016 228.944 295.72 208.392 295.856C208.672 295.64 144.808 296.44 146.536 295.648V317.504C144.84 316.76 270.952 317.736 270.576 317.504H270.544Z" fill="#DBDBDB"/>
<path d="M165.296 298.792H149.456V314.632H165.296V298.792Z" fill="#4557DD"/>
<path d="M266.904 306.712C266.905 308.313 266.42 309.878 265.513 311.197C264.606 312.517 263.32 313.531 261.824 314.104C260.919 314.455 259.956 314.634 258.984 314.632C257.418 314.632 255.887 314.167 254.584 313.297C253.282 312.427 252.267 311.19 251.667 309.743C251.068 308.296 250.911 306.703 251.217 305.167C251.522 303.631 252.277 302.219 253.384 301.112C254.492 300.004 255.903 299.25 257.439 298.944C258.976 298.639 260.568 298.795 262.015 299.395C263.463 299.994 264.699 301.009 265.57 302.312C266.44 303.614 266.904 305.146 266.904 306.712Z" fill="#455A64"/>
<path d="M266.904 306.712C266.905 308.313 266.42 309.878 265.513 311.197C264.606 312.517 263.32 313.531 261.824 314.104L258.984 306.712V298.792C261.085 298.792 263.099 299.626 264.585 301.112C266.07 302.597 266.904 304.611 266.904 306.712Z" fill="#4557DD"/>
<path d="M264.456 306.712C264.458 307.797 264.137 308.857 263.536 309.76C262.934 310.662 262.079 311.366 261.077 311.781C260.075 312.197 258.973 312.306 257.909 312.095C256.845 311.884 255.868 311.362 255.101 310.595C254.334 309.828 253.812 308.851 253.601 307.787C253.39 306.723 253.499 305.621 253.915 304.619C254.331 303.618 255.034 302.762 255.937 302.16C256.839 301.559 257.9 301.238 258.984 301.24C260.435 301.242 261.825 301.819 262.851 302.845C263.877 303.871 264.454 305.261 264.456 306.712Z" fill="white"/>
<path d="M287.423 61.4528L296.989 63.2255L299.129 73.3055L301.258 63.2255L310.824 61.4528L301.3 59.1242L299.129 49.6001L296.947 59.1242L287.423 61.4528Z" fill="white"/>
<path d="M104 218.297L113.566 220.059L115.695 230.139L117.835 220.059L127.401 218.286L117.877 215.957L115.695 206.444L113.524 215.957L104 218.297Z" fill="white"/>
<path d="M273.409 86.438L278.759 87.4239L279.954 93.0566L281.15 87.4239L286.489 86.438L281.171 85.1373L279.954 79.8088L278.738 85.1373L273.409 86.438Z" fill="white"/>
<path d="M122.167 243.628L127.516 244.624L128.712 250.257L129.897 244.624L135.247 243.628L129.929 242.327L128.712 237.009L127.495 242.327L122.167 243.628Z" fill="white"/>
<path d="M277.563 246.281L282.913 247.267L284.109 252.9L285.294 247.267L290.643 246.281L285.325 244.981L284.109 239.652L282.892 244.981L277.563 246.281Z" fill="white"/>
<path d="M302.056 87.3503C302.444 87.3823 302.806 87.5592 303.07 87.8458C303.334 88.1324 303.481 88.5078 303.481 88.8975C303.481 89.2871 303.334 89.6625 303.07 89.9492C302.806 90.2358 302.444 90.4126 302.056 90.4446C301.667 90.4126 301.305 90.2358 301.041 89.9492C300.777 89.6625 300.631 89.2871 300.631 88.8975C300.631 88.5078 300.777 88.1324 301.041 87.8458C301.305 87.5592 301.667 87.3823 302.056 87.3503Z" fill="white"/>
<path d="M117.478 252.208C117.769 252.208 118.047 252.324 118.253 252.529C118.459 252.735 118.574 253.013 118.574 253.304C118.574 253.595 118.459 253.874 118.253 254.079C118.047 254.285 117.769 254.4 117.478 254.4C117.187 254.4 116.908 254.285 116.703 254.079C116.497 253.874 116.382 253.595 116.382 253.304C116.382 253.013 116.497 252.735 116.703 252.529C116.908 252.324 117.187 252.208 117.478 252.208Z" fill="white"/>
<path d="M140.859 226.877C141.15 226.877 141.428 226.992 141.634 227.198C141.839 227.403 141.955 227.682 141.955 227.973C141.955 228.264 141.839 228.542 141.634 228.748C141.428 228.953 141.15 229.069 140.859 229.069C140.568 229.069 140.289 228.953 140.084 228.748C139.878 228.542 139.763 228.264 139.763 227.973C139.763 227.682 139.878 227.403 140.084 227.198C140.289 226.992 140.568 226.877 140.859 226.877Z" fill="white"/>
<path d="M297.472 240.68C297.763 240.68 298.042 240.796 298.247 241.001C298.453 241.207 298.568 241.486 298.568 241.777C298.568 242.067 298.453 242.346 298.247 242.552C298.042 242.757 297.763 242.873 297.472 242.873C297.181 242.873 296.903 242.757 296.697 242.552C296.491 242.346 296.376 242.067 296.376 241.777C296.376 241.486 296.491 241.207 296.697 241.001C296.903 240.796 297.181 240.68 297.472 240.68Z" fill="white"/>
<path d="M307.856 54.4355C308.147 54.4355 308.425 54.551 308.631 54.7566C308.837 54.9621 308.952 55.241 308.952 55.5317C308.952 55.8224 308.837 56.1012 308.631 56.3067C308.425 56.5123 308.147 56.6278 307.856 56.6278C307.565 56.6278 307.286 56.5123 307.081 56.3067C306.875 56.1012 306.76 55.8224 306.76 55.5317C306.76 55.241 306.875 54.9621 307.081 54.7566C307.286 54.551 307.565 54.4355 307.856 54.4355Z" fill="white"/>
<path d="M358.84 121.8H273.8V182.8H358.84V121.8Z" fill="white"/>
<path d="M359.041 183H273.601V121.6H359.041V183ZM274.001 182.6H358.641V121.976H274.001V182.6Z" fill="#EBEBEB"/>
<path d="M358.84 121.8H273.8V129.24H358.84V121.8Z" fill="#4557DD"/>
<path d="M359.041 129.44H273.601V121.6H359.041V129.44ZM274.001 129.04H358.641V121.976H274.001V129.04Z" fill="#EBEBEB"/>
<path d="M280.784 125.576C280.784 125.946 280.674 126.308 280.469 126.616C280.263 126.924 279.97 127.164 279.628 127.306C279.286 127.447 278.91 127.484 278.547 127.412C278.184 127.34 277.85 127.162 277.588 126.9C277.327 126.638 277.148 126.304 277.076 125.941C277.004 125.578 277.041 125.202 277.183 124.86C277.324 124.518 277.564 124.225 277.872 124.02C278.18 123.814 278.542 123.704 278.912 123.704C279.409 123.704 279.885 123.901 280.236 124.252C280.587 124.603 280.784 125.08 280.784 125.576Z" fill="#263238"/>
<path d="M288.432 125.576C288.432 125.946 288.322 126.308 288.117 126.615C287.911 126.923 287.619 127.163 287.278 127.305C286.936 127.447 286.56 127.484 286.197 127.413C285.834 127.341 285.501 127.164 285.239 126.903C284.976 126.642 284.798 126.309 284.724 125.946C284.651 125.584 284.687 125.207 284.828 124.865C284.968 124.523 285.207 124.23 285.514 124.023C285.82 123.817 286.182 123.706 286.551 123.704C286.798 123.703 287.042 123.751 287.27 123.844C287.498 123.938 287.706 124.076 287.88 124.25C288.055 124.424 288.194 124.63 288.288 124.858C288.383 125.086 288.432 125.33 288.432 125.576Z" fill="#EBEBEB"/>
<path d="M296.08 125.576C296.08 125.946 295.97 126.308 295.764 126.616C295.559 126.924 295.266 127.164 294.924 127.306C294.582 127.447 294.206 127.484 293.843 127.412C293.48 127.34 293.146 127.162 292.884 126.9C292.622 126.638 292.444 126.304 292.372 125.941C292.3 125.578 292.337 125.202 292.478 124.86C292.62 124.518 292.86 124.225 293.168 124.02C293.476 123.814 293.838 123.704 294.208 123.704C294.704 123.704 295.181 123.901 295.532 124.252C295.883 124.603 296.08 125.08 296.08 125.576Z" fill="#455A64"/>
<path d="M358.84 128.84H273.8V129.64H358.84V128.84Z" fill="#EBEBEB"/>
<path d="M284.296 140.92H281.56V141.92H284.296V140.92Z" fill="#EBEBEB"/>
<path d="M320.096 140.92H286.28V141.92H320.096V140.92Z" fill="#EBEBEB"/>
<path d="M327.768 140.92H321.776V141.92H327.768V140.92Z" fill="#4557DD"/>
<path d="M336.08 154.272H330.888V155.272H336.08V154.272Z" fill="#EBEBEB"/>
<path d="M346.392 140.92H328.896V141.92H346.392V140.92Z" fill="#A6A6A6"/>
<path d="M287.024 143.584H284.288V144.584H287.024V143.584Z" fill="#EBEBEB"/>
<path d="M315.912 143.584H288.944V144.584H315.912V143.584Z" fill="#A6A6A6"/>
<path d="M329.656 154.272H321.072V155.272H329.656V154.272Z" fill="#A6A6A6"/>
<path d="M305.928 151.6H286.28V152.6H305.928V151.6Z" fill="#A6A6A6"/>
<path d="M302.728 146.256H288.944V147.256H302.728V146.256Z" fill="#4557DD"/>
<path d="M339.832 148.928H326.048V149.928H339.832V148.928Z" fill="#A6A6A6"/>
<path d="M329.545 146.256H304.265V147.256H329.545V146.256Z" fill="#A6A6A6"/>
<path d="M319.288 154.272H286.28V155.272H319.288V154.272Z" fill="#4557DD"/>
<path d="M351.087 143.584H328.319V144.584H351.087V143.584Z" fill="#4557DD"/>
<path d="M327.192 143.584H317.208V144.584H327.192V143.584Z" fill="#EBEBEB"/>
<path d="M347.952 146.256H339.104V147.256H347.952V146.256Z" fill="#EBEBEB"/>
<path d="M287.024 146.256H284.288V147.256H287.024V146.256Z" fill="#EBEBEB"/>
<path d="M284.296 148.928H281.56V149.928H284.296V148.928Z" fill="#A6A6A6"/>
<path d="M302.432 148.928H286.28V149.928H302.432V148.928Z" fill="#EBEBEB"/>
<path d="M305.096 156.944H288.944V157.944H305.096V156.944Z" fill="#EBEBEB"/>
<path d="M343.127 159.616H321.527V160.616H343.127V159.616Z" fill="#4557DD"/>
<path d="M325.072 156.944H306.408V157.944H325.072V156.944Z" fill="#4557DD"/>
<path d="M320.12 159.616H303.552V160.616H320.12V159.616Z" fill="#EBEBEB"/>
<path d="M293.616 159.616H288.944V160.616H293.616V159.616Z" fill="#A6A6A6"/>
<path d="M327.768 151.6H307.04V152.6H327.768V151.6Z" fill="#EBEBEB"/>
<path d="M348.528 151.6H328.896V152.6H348.528V151.6Z" fill="#4557DD"/>
<path d="M323.976 148.928H304.072V149.928H323.976V148.928Z" fill="#4557DD"/>
<path d="M284.296 151.6H281.56V152.6H284.296V151.6Z" fill="#EBEBEB"/>
<path d="M284.296 154.272H281.56V155.272H284.296V154.272Z" fill="#EBEBEB"/>
<path d="M287.024 156.944H284.288V157.944H287.024V156.944Z" fill="#A6A6A6"/>
<path d="M287.024 159.616H284.288V160.616H287.024V159.616Z" fill="#EBEBEB"/>
<path d="M284.296 161.856H281.56V162.856H284.296V161.856Z" fill="#EBEBEB"/>
<path d="M324.72 161.856H286.28V162.856H324.72V161.856Z" fill="#EBEBEB"/>
<path d="M287.024 164.52H284.288V165.52H287.024V164.52Z" fill="#EBEBEB"/>
<path d="M315.912 164.52H288.944V165.52H315.912V164.52Z" fill="#A6A6A6"/>
<path d="M305.928 172.536H286.28V173.536H305.928V172.536Z" fill="#A6A6A6"/>
<path d="M302.728 167.192H288.944V168.192H302.728V167.192Z" fill="#4557DD"/>
<path d="M329.545 167.192H304.265V168.192H329.545V167.192Z" fill="#A6A6A6"/>
<path d="M319.288 175.208H286.28V176.208H319.288V175.208Z" fill="#4557DD"/>
<path d="M351.087 164.52H328.319V165.52H351.087V164.52Z" fill="#4557DD"/>
<path d="M327.192 164.52H317.208V165.52H327.192V164.52Z" fill="#EBEBEB"/>
<path d="M347.952 167.192H339.104V168.192H347.952V167.192Z" fill="#EBEBEB"/>
<path d="M287.024 167.192H284.288V168.192H287.024V167.192Z" fill="#EBEBEB"/>
<path d="M284.296 169.864H281.56V170.864H284.296V169.864Z" fill="#A6A6A6"/>
<path d="M302.432 169.864H286.28V170.864H302.432V169.864Z" fill="#EBEBEB"/>
<path d="M327.768 172.536H307.04V173.536H327.768V172.536Z" fill="#EBEBEB"/>
<path d="M323.976 169.864H304.072V170.864H323.976V169.864Z" fill="#4557DD"/>
<path d="M284.296 172.536H281.56V173.536H284.296V172.536Z" fill="#EBEBEB"/>
<path d="M283.247 138.288C283.275 138.309 283.298 138.335 283.314 138.365C283.331 138.395 283.34 138.429 283.343 138.463C283.345 138.497 283.34 138.532 283.328 138.564C283.316 138.596 283.297 138.626 283.273 138.65C283.249 138.674 283.22 138.693 283.187 138.705C283.155 138.717 283.121 138.722 283.086 138.72C283.052 138.717 283.019 138.707 282.989 138.691C282.958 138.674 282.932 138.652 282.911 138.624L281.855 137.56V137.448C281.855 137.448 281.855 137.448 281.855 137.408L282.911 136.344C282.958 136.309 283.015 136.293 283.072 136.297C283.13 136.301 283.184 136.326 283.225 136.366C283.266 136.407 283.291 136.462 283.295 136.519C283.299 136.577 283.282 136.634 283.247 136.68L282.359 137.576L283.247 138.288Z" fill="#4557DD"/>
<path d="M284.2 138.408L285.12 136.224C285.13 136.198 285.144 136.175 285.164 136.155C285.183 136.135 285.206 136.119 285.231 136.109C285.257 136.098 285.284 136.093 285.312 136.094C285.34 136.094 285.367 136.101 285.392 136.112C285.441 136.133 285.48 136.173 285.501 136.222C285.522 136.271 285.523 136.326 285.504 136.376L284.584 138.568C284.567 138.605 284.54 138.637 284.507 138.66C284.473 138.683 284.433 138.695 284.392 138.696H284.312C284.286 138.685 284.262 138.668 284.242 138.648C284.221 138.627 284.206 138.603 284.195 138.576C284.185 138.549 284.18 138.52 284.181 138.492C284.182 138.463 284.188 138.434 284.2 138.408Z" fill="#4557DD"/>
<path d="M287.352 137.528L286.296 138.592C286.252 138.637 286.192 138.663 286.128 138.664C286.081 138.664 286.036 138.649 285.997 138.623C285.958 138.596 285.928 138.559 285.91 138.516C285.892 138.472 285.887 138.424 285.896 138.378C285.905 138.332 285.927 138.29 285.96 138.256L286.848 137.36L285.96 136.464C285.933 136.444 285.91 136.417 285.894 136.387C285.877 136.357 285.867 136.324 285.865 136.289C285.862 136.255 285.867 136.221 285.879 136.188C285.891 136.156 285.91 136.127 285.935 136.103C285.959 136.078 285.988 136.059 286.02 136.047C286.053 136.035 286.087 136.03 286.121 136.033C286.156 136.035 286.189 136.045 286.219 136.062C286.249 136.078 286.276 136.101 286.296 136.128L287.352 137.192V137.232V137.328C287.352 137.328 287.352 137.512 287.352 137.528Z" fill="#4557DD"/>
<path d="M145.24 45.8H67.4004V97.2001H145.24V45.8Z" fill="white"/>
<path d="M145.44 97.4001H67.2002V45.6001H145.44V97.4001ZM67.6002 97.0001H145.04V46.0001H67.6002V97.0001Z" fill="#EBEBEB"/>
<path d="M145.24 45.8H67.4004V53.24H145.24V45.8Z" fill="#4557DD"/>
<path d="M145.44 53.4401H67.2002V45.6001H145.44V53.4401ZM67.6002 53.0401H145.04V46.0001H67.6002V53.0401Z" fill="#EBEBEB"/>
<path d="M74.3846 49.568C74.3846 49.9383 74.2748 50.3002 74.0691 50.6081C73.8634 50.9159 73.5711 51.1559 73.229 51.2975C72.8869 51.4392 72.5106 51.4763 72.1474 51.4041C71.7843 51.3318 71.4507 51.1536 71.1889 50.8917C70.9271 50.6299 70.7488 50.2964 70.6766 49.9333C70.6044 49.5701 70.6414 49.1937 70.7831 48.8517C70.9248 48.5096 71.1648 48.2172 71.4726 48.0115C71.7805 47.8058 72.1424 47.696 72.5126 47.696C73.0091 47.696 73.4853 47.8933 73.8363 48.2443C74.1874 48.5954 74.3846 49.0716 74.3846 49.568Z" fill="#263238"/>
<path d="M82.0321 49.568C82.0321 49.9383 81.9223 50.3002 81.7166 50.6081C81.5109 50.9159 81.2185 51.1559 80.8765 51.2975C80.5344 51.4392 80.158 51.4763 79.7949 51.4041C79.4317 51.3318 79.0982 51.1536 78.8364 50.8917C78.5746 50.6299 78.3963 50.2964 78.3241 49.9333C78.2518 49.5701 78.2889 49.1937 78.4306 48.8517C78.5723 48.5096 78.8122 48.2172 79.1201 48.0115C79.4279 47.8058 79.7898 47.696 80.1601 47.696C80.6566 47.696 81.1327 47.8933 81.4838 48.2443C81.8349 48.5954 82.0321 49.0716 82.0321 49.568Z" fill="#EBEBEB"/>
<path d="M89.6717 49.568C89.6717 49.9383 89.5619 50.3002 89.3562 50.6081C89.1505 50.9159 88.8582 51.1559 88.5161 51.2975C88.1741 51.4392 87.7977 51.4763 87.4345 51.4041C87.0714 51.3318 86.7378 51.1536 86.476 50.8917C86.2142 50.6299 86.0359 50.2964 85.9637 49.9333C85.8915 49.5701 85.9285 49.1937 86.0702 48.8517C86.2119 48.5096 86.4519 48.2172 86.7597 48.0115C87.0676 47.8058 87.4295 47.696 87.7997 47.696C88.2962 47.696 88.7724 47.8933 89.1234 48.2443C89.4745 48.5954 89.6717 49.0716 89.6717 49.568Z" fill="#455A64"/>
<path d="M145.24 52.8401H67.4004V53.6401H145.24V52.8401Z" fill="#EBEBEB"/>
<path d="M94.6482 82.4881C94.8436 82.6835 94.9987 82.9155 95.1045 83.1708C95.2102 83.4261 95.2647 83.6998 95.2647 83.9761C95.2647 84.2525 95.2102 84.5262 95.1045 84.7815C94.9987 85.0368 94.8436 85.2688 94.6482 85.4641C94.2557 85.8394 93.7351 86.051 93.1922 86.0561C92.629 86.0577 92.086 85.8462 91.6722 85.4641L82.3842 76.0401C82.2802 76.0401 82.2482 75.9441 82.2162 75.8401C82.187 75.8149 82.1547 75.7934 82.1202 75.7761C82.0701 75.695 82.0348 75.6056 82.0162 75.5121C81.9906 75.4986 81.9686 75.4793 81.9519 75.4556C81.9352 75.432 81.9244 75.4048 81.9202 75.3761C81.9202 75.3121 81.9202 75.2161 81.8562 75.1761C81.7922 75.1361 81.7842 75.0482 81.7842 75.0162V74.7841C81.7842 74.7201 81.7842 74.6801 81.7842 74.5841C81.7842 74.4881 81.7842 74.4562 81.7842 74.4162V74.1841C81.7842 74.1201 81.8562 74.0881 81.8562 74.0561C81.8562 74.0241 81.8562 73.8882 81.9202 73.7922C81.9842 73.6962 81.9202 73.7921 81.9202 73.7281C81.9662 73.6216 82.0225 73.5198 82.0882 73.4242C82.0882 73.4072 82.0949 73.3909 82.1069 73.3789C82.1189 73.3669 82.1352 73.3602 82.1522 73.3602C82.1967 73.2662 82.2658 73.186 82.3522 73.1281L91.6722 63.7042C92.0736 63.3226 92.6063 63.1099 93.1602 63.1099C93.714 63.1099 94.2467 63.3226 94.6482 63.7042C94.8436 63.8995 94.9987 64.1315 95.1045 64.3868C95.2102 64.6421 95.2647 64.9158 95.2647 65.1922C95.2647 65.4685 95.2102 65.7422 95.1045 65.9975C94.9987 66.2528 94.8436 66.4848 94.6482 66.6802L86.8162 74.5841L94.6482 82.4881Z" fill="#EBEBEB"/>
<path d="M103.08 83.544L111.176 64.24C111.368 63.7952 111.728 63.4445 112.178 63.2646C112.628 63.0847 113.13 63.0902 113.576 63.28C114.01 63.4681 114.351 63.8205 114.525 64.26C114.699 64.6995 114.691 65.1901 114.504 65.624L106.416 84.968C106.273 85.2934 106.037 85.5697 105.739 85.763C105.44 85.9563 105.092 86.0582 104.736 86.056C104.508 86.0611 104.282 86.0175 104.072 85.928C103.847 85.8413 103.641 85.7098 103.468 85.5414C103.295 85.373 103.158 85.1713 103.066 84.9484C102.973 84.7255 102.926 84.4861 102.929 84.2447C102.931 84.0033 102.983 83.7649 103.08 83.544Z" fill="#EBEBEB"/>
<path d="M130.52 75.7761C130.453 75.8632 130.376 75.9412 130.288 76.0081L120.968 85.4641C120.566 85.8439 120.034 86.0554 119.48 86.0554C118.927 86.0554 118.395 85.8439 117.992 85.4641C117.797 85.2688 117.642 85.0368 117.536 84.7815C117.43 84.5262 117.376 84.2525 117.376 83.9761C117.376 83.6998 117.43 83.4261 117.536 83.1708C117.642 82.9155 117.797 82.6835 117.992 82.4881L125.824 74.5841L117.992 66.6802C117.797 66.4848 117.642 66.2528 117.536 65.9975C117.43 65.7422 117.376 65.4685 117.376 65.1922C117.376 64.9158 117.43 64.6421 117.536 64.3868C117.642 64.1315 117.797 63.8995 117.992 63.7042C118.394 63.3226 118.927 63.1099 119.48 63.1099C120.034 63.1099 120.567 63.3226 120.968 63.7042L130.256 73.1281C130.343 73.1951 130.421 73.2731 130.488 73.3602V73.4242C130.553 73.5205 130.609 73.6222 130.656 73.7281C130.656 73.7281 130.656 73.7282 130.656 73.7922C130.678 73.8949 130.713 73.9945 130.76 74.0881C130.76 74.0881 130.76 74.0881 130.76 74.1841V74.4162C130.76 74.4162 130.76 74.5521 130.76 74.5841C130.76 74.6161 130.76 74.7201 130.76 74.7521V75.0162C130.76 75.0162 130.76 75.0162 130.76 75.0802C130.719 75.1763 130.684 75.2752 130.656 75.3761C130.656 75.3761 130.656 75.3762 130.656 75.4802C130.656 75.5842 130.592 75.6401 130.52 75.7761Z" fill="#EBEBEB"/>
<path d="M79.768 172.24C80.1714 171.993 80.6351 171.863 81.108 171.863C81.5809 171.863 82.0446 171.993 82.448 172.24C82.672 172.376 82.904 172.512 83.136 172.632C83.368 172.752 83.608 172.88 83.848 172.992C84.2768 173.188 84.6432 173.499 84.9071 173.89C85.171 174.281 85.3222 174.737 85.344 175.208L85.44 178.512L96.184 178.176L96.088 174.856C96.0754 174.385 96.1954 173.92 96.4345 173.514C96.6736 173.108 97.022 172.777 97.44 172.56C97.896 172.304 98.344 172.032 98.776 171.76C99.163 171.484 99.6187 171.32 100.093 171.286C100.567 171.252 101.042 171.35 101.464 171.568L104.368 173.168L109.448 163.688L106.544 162.136C106.127 161.907 105.782 161.566 105.548 161.152C105.313 160.738 105.199 160.267 105.216 159.792C105.227 159.258 105.208 158.724 105.16 158.192C105.113 157.723 105.198 157.25 105.404 156.827C105.61 156.403 105.93 156.045 106.328 155.792L109.144 154.04L103.456 144.888L100.64 146.64C100.244 146.883 99.7887 147.012 99.324 147.012C98.8593 147.012 98.4038 146.883 98.008 146.64L97.28 146.224L96.536 145.848C96.112 145.654 95.7509 145.345 95.4936 144.956C95.2363 144.567 95.093 144.114 95.08 143.648L94.976 140.344L84.256 140.68L84.36 143.976C84.377 144.441 84.265 144.902 84.0362 145.307C83.8075 145.712 83.471 146.046 83.064 146.272C82.5609 146.544 82.0747 146.846 81.608 147.176C81.2269 147.441 80.7798 147.594 80.3164 147.62C79.8531 147.645 79.3918 147.541 78.984 147.32L76.08 145.768L71 155.24L73.896 156.84C74.3142 157.068 74.6607 157.408 74.8966 157.822C75.1326 158.236 75.2487 158.708 75.232 159.184C75.232 159.712 75.232 160.232 75.28 160.784C75.3258 161.253 75.2409 161.725 75.0348 162.149C74.8286 162.572 74.5092 162.931 74.112 163.184L71.296 164.92L76.968 174.056L79.768 172.24ZM81.976 156.32C82.629 154.601 83.804 153.13 85.3359 152.114C86.8678 151.097 88.6797 150.585 90.5171 150.651C92.3545 150.717 94.1252 151.357 95.5804 152.48C97.0357 153.604 98.1025 155.155 98.6309 156.916C99.1593 158.677 99.1229 160.56 98.5268 162.299C97.9306 164.038 96.8047 165.547 95.3071 166.614C93.8094 167.68 92.0154 168.251 90.1768 168.246C88.3382 168.24 86.5474 167.659 85.056 166.584C83.4843 165.451 82.3304 163.831 81.7735 161.975C81.2166 160.119 81.2878 158.131 81.976 156.32Z" fill="#EBEBEB"/>
<path d="M107.409 134.336C107.577 134.05 107.822 133.815 108.116 133.66C108.41 133.505 108.741 133.434 109.073 133.456H109.625H110.185C110.514 133.435 110.843 133.505 111.135 133.659C111.428 133.813 111.672 134.044 111.841 134.328L112.993 136.336L119.513 132.568L118.361 130.568C118.198 130.279 118.118 129.951 118.129 129.619C118.14 129.288 118.242 128.965 118.425 128.688C118.631 128.376 118.82 128.053 118.993 127.72C119.14 127.422 119.368 127.171 119.651 126.996C119.934 126.821 120.26 126.728 120.593 126.728H122.857V119.2H120.545C120.212 119.2 119.886 119.108 119.603 118.932C119.32 118.757 119.092 118.506 118.945 118.208C118.772 117.876 118.583 117.552 118.377 117.24C118.194 116.963 118.092 116.641 118.081 116.309C118.07 115.977 118.15 115.649 118.313 115.36L119.465 113.36L112.993 109.6L111.833 111.616C111.664 111.9 111.42 112.132 111.127 112.285C110.835 112.439 110.506 112.509 110.177 112.488H109.625H109.073C108.741 112.51 108.41 112.44 108.116 112.284C107.822 112.129 107.577 111.895 107.409 111.608L106.257 109.6L99.7285 113.368L100.889 115.36C101.051 115.649 101.132 115.977 101.12 116.309C101.109 116.641 101.007 116.963 100.825 117.24C100.615 117.553 100.426 117.879 100.257 118.216C100.108 118.514 99.8799 118.764 99.5973 118.939C99.3147 119.114 98.989 119.207 98.6565 119.208H96.3525V126.736H98.6565C98.989 126.737 99.3147 126.83 99.5973 127.005C99.8799 127.18 100.108 127.431 100.257 127.728C100.426 128.065 100.615 128.391 100.825 128.704C101.007 128.981 101.109 129.304 101.12 129.635C101.132 129.967 101.051 130.295 100.889 130.584L99.7285 132.576L106.257 136.344L107.409 134.336ZM103.409 122.968C103.407 121.746 103.768 120.551 104.445 119.535C105.123 118.518 106.087 117.725 107.216 117.257C108.344 116.788 109.586 116.664 110.785 116.902C111.983 117.139 113.084 117.727 113.949 118.59C114.813 119.454 115.402 120.554 115.641 121.752C115.88 122.951 115.758 124.193 115.291 125.322C114.824 126.451 114.032 127.416 113.017 128.095C112.001 128.774 110.806 129.136 109.585 129.136C107.955 129.126 106.395 128.471 105.246 127.316C104.097 126.161 103.451 124.598 103.449 122.968H103.409Z" fill="#EBEBEB"/>
</svg>
