<svg width="148" height="48" viewBox="0 0 195 48" fill="none" xmlns="http://www.w3.org/2000/svg">
<path d="M30.7111 22.6065C33.5412 24.6402 34.6472 27.4372 34.3333 30.8499C33.9436 35.084 30.6856 38.3789 26.4261 39.1105C24.1072 39.5085 21.491 39.4773 19.1543 39.4836C19.1581 37.1813 19.1766 34.3499 19.1702 32.0476C20.1055 32.0559 21.335 32.0597 22.2716 32.0476C23.0643 32.0368 23.822 31.8782 24.5147 31.4618C25.5334 30.8493 25.9288 29.9121 25.8817 28.773C25.8359 27.6766 25.3029 26.8629 24.3313 26.3389C23.6456 25.969 22.9032 25.8474 22.1398 25.8353C21.293 25.8219 20.4462 25.8353 19.5994 25.8308H19.1581C19.1435 24.87 19.1785 23.561 19.1581 22.6008C19.2855 22.5957 19.7999 22.5091 19.9266 22.5091C23.26 22.5091 26.5933 22.5091 29.9267 22.5091C30.1914 22.5054 30.4553 22.5382 30.7111 22.6065Z" fill="white"/>
<path d="M19.1585 22.5987C19.1534 20.8547 19.1757 20.8834 19.1554 19.1401C19.9831 19.1611 21.3074 19.1885 22.1281 18.9873C23.4607 18.6613 24.2885 17.8546 24.4514 16.6951C24.6667 15.1671 24.1522 13.9866 22.9673 13.2837C21.2883 12.2879 19.0166 13.115 18.2557 14.9977C18.2181 15.0913 18.15 15.2524 18.1143 15.3447C17.8641 15.2174 17.9628 14.9149 17.9615 14.7156C17.9526 13.2907 17.9571 11.8664 17.9571 10.4414C17.9571 9.16807 17.9571 7.89467 17.9571 6.62126C17.9571 6.4086 17.9322 6.18766 18.0965 6.01193C21.0406 5.36568 23.9472 5.39561 26.7226 6.6913C29.3451 7.91568 31.3189 9.81942 32.2205 12.6343C32.8941 14.7354 32.9654 16.8556 31.8589 18.8739C31.3132 19.8691 30.5218 20.6395 29.5871 21.2724C29.4228 21.3838 29.2598 21.4972 29.0459 21.6442C29.6412 21.9575 30.2092 22.2249 30.7096 22.6031C27.0244 22.6031 23.3391 22.6108 19.6539 22.5987C19.2865 22.5987 19.1566 22.5942 19.1566 22.5942" fill="white"/>
<path d="M17.8582 39.4849C15.3304 39.47 12.1055 39.4707 9.58105 39.4849C9.59124 36.5672 9.58743 33.185 9.58743 30.2674C9.58743 27.3781 9.59124 24.5697 9.58105 21.6797C12.096 21.6953 15.3457 21.6953 17.8613 21.6797" fill="white"/>
<path d="M9.58094 22.1363C9.5924 20.682 9.56693 18.8591 9.59049 17.4055C9.63952 14.4512 10.422 11.7491 12.4002 9.47734C13.9315 7.71876 15.8384 6.57779 18.0981 6.01367C18.1032 7.74168 18.1081 9.47012 18.1127 11.199C18.1127 12.4227 18.1127 13.6471 18.1127 14.8708V15.3458C17.9071 16.0417 17.8491 16.6867 17.8517 17.4119C17.8555 18.8662 17.8447 20.682 17.8587 22.1363C15.3323 22.1242 12.1042 22.1235 9.58094 22.1363Z" fill="white"/>
<path d="M55.7445 31.2512H42.9425C43.0575 32.4194 43.3347 33.2896 43.774 33.8618C44.3911 34.6843 45.1964 35.0955 46.19 35.0955C46.8176 35.0955 47.4138 34.9167 47.9786 34.5591C48.3237 34.3326 48.695 33.9333 49.0925 33.3611L55.3837 34.0227C54.4214 35.9299 53.2605 37.3008 51.9008 38.1352C50.5411 38.9577 48.5904 39.369 46.0488 39.369C43.8419 39.369 42.1057 39.0173 40.8402 38.314C39.5746 37.5988 38.5234 36.4723 37.6867 34.9346C36.8604 33.3849 36.4473 31.5671 36.4473 29.481C36.4473 26.5128 37.2788 24.1109 38.9418 22.2751C40.6153 20.4394 42.9215 19.5215 45.8606 19.5215C48.2453 19.5215 50.1279 19.9328 51.5086 20.7553C52.8892 21.5778 53.9403 22.7698 54.662 24.3314C55.3837 25.893 55.7445 27.9254 55.7445 30.4287V31.2512ZM49.2494 27.7645C49.1239 26.3579 48.7892 25.3506 48.2453 24.7426C47.7119 24.1347 47.0059 23.8307 46.1273 23.8307C45.1127 23.8307 44.3022 24.2897 43.6955 25.2075C43.3085 25.7797 43.0627 26.632 42.9581 27.7645H49.2494Z" fill="white"/>
<path d="M65.7388 12.7266V19.9503H69.2531V25.2609H65.7388V32.0019C65.7388 32.8125 65.8067 33.3489 65.9427 33.6111C66.1519 34.0164 66.518 34.2191 67.0409 34.2191C67.5116 34.2191 68.1705 34.0641 69.0177 33.7542L69.4884 38.7786C67.909 39.172 66.4343 39.3687 65.0641 39.3687C63.4743 39.3687 62.3029 39.1362 61.5498 38.6713C60.7968 38.2064 60.2372 37.5031 59.8711 36.5614C59.5155 35.6078 59.3377 34.0701 59.3377 31.9482V25.2609H56.9844V19.9503H59.3377V16.4636L65.7388 12.7266Z" fill="white"/>
<path d="M77.4898 26.1016L71.3869 25.3685C71.617 24.1526 71.9464 23.1989 72.3753 22.5076C72.8145 21.8043 73.4421 21.1963 74.2579 20.6837C74.8436 20.3142 75.649 20.0281 76.674 19.8255C77.699 19.6228 78.8077 19.5215 80 19.5215C81.9141 19.5215 83.4516 19.6467 84.6126 19.897C85.7735 20.1354 86.741 20.642 87.515 21.4168C88.0589 21.9533 88.4877 22.7162 88.8015 23.7056C89.1152 24.683 89.2721 25.6188 89.2721 26.5128V34.8988C89.2721 35.7929 89.3192 36.4962 89.4133 37.0087C89.5179 37.5094 89.7376 38.1531 90.0723 38.9399H84.0791C83.8386 38.4511 83.6817 38.0816 83.6085 37.8313C83.5353 37.569 83.462 37.1637 83.3888 36.6154C82.5521 37.5332 81.7206 38.1889 80.8943 38.5822C79.7647 39.1067 78.4521 39.369 76.9564 39.369C74.9691 39.369 73.4578 38.8445 72.4223 37.7955C71.3973 36.7465 70.8848 35.4531 70.8848 33.9154C70.8848 32.473 71.2561 31.2869 71.9987 30.3572C72.7413 29.4274 74.1115 28.736 76.1092 28.283C78.5044 27.7347 80.0576 27.3532 80.7688 27.1386C81.48 26.9122 82.2331 26.6201 83.028 26.2625C83.028 25.3685 82.8659 24.7426 82.5416 24.385C82.2174 24.0274 81.6474 23.8486 80.8315 23.8486C79.7856 23.8486 79.0012 24.0393 78.4782 24.4208C78.0703 24.7188 77.7408 25.2791 77.4898 26.1016ZM83.028 29.928C82.1494 30.2856 81.2342 30.6015 80.2824 30.8757C78.9855 31.2691 78.1644 31.6565 77.8193 32.0379C77.4637 32.4313 77.2859 32.8783 77.2859 33.379C77.2859 33.9512 77.4584 34.422 77.8036 34.7915C78.1592 35.1492 78.6769 35.328 79.3568 35.328C80.068 35.328 80.7269 35.1313 81.3336 34.7379C81.9507 34.3445 82.3847 33.8677 82.6358 33.3075C82.8972 32.7353 83.028 31.9962 83.028 31.0903V29.928Z" fill="white"/>
<path d="M92.6777 12.7266H99.0788V38.9396H92.6777V12.7266Z" fill="white"/>
<path d="M121.012 31.2512H108.21C108.325 32.4194 108.602 33.2896 109.042 33.8618C109.659 34.6843 110.464 35.0955 111.458 35.0955C112.085 35.0955 112.681 34.9167 113.246 34.5591C113.591 34.3326 113.963 33.9333 114.36 33.3611L120.651 34.0227C119.689 35.9299 118.528 37.3008 117.168 38.1352C115.809 38.9577 113.858 39.369 111.316 39.369C109.109 39.369 107.373 39.0173 106.108 38.314C104.842 37.5988 103.791 36.4723 102.954 34.9346C102.128 33.3849 101.715 31.5671 101.715 29.481C101.715 26.5128 102.546 24.1109 104.209 22.2751C105.883 20.4394 108.189 19.5215 111.128 19.5215C113.513 19.5215 115.395 19.9328 116.776 20.7553C118.157 21.5778 119.208 22.7698 119.93 24.3314C120.651 25.893 121.012 27.9254 121.012 30.4287V31.2512ZM114.517 27.7645C114.391 26.3579 114.057 25.3506 113.513 24.7426C112.979 24.1347 112.273 23.8307 111.395 23.8307C110.38 23.8307 109.57 24.2897 108.963 25.2075C108.576 25.7797 108.33 26.632 108.226 27.7645H114.517Z" fill="white"/>
<path d="M135.729 31.5194L141.8 32.3061C141.466 33.7485 140.917 35.0002 140.153 36.0611C139.39 37.1101 138.412 37.9266 137.219 38.5107C136.037 39.0948 134.531 39.3869 132.701 39.3869C130.933 39.3869 129.459 39.2021 128.277 38.8326C127.105 38.4511 126.096 37.8432 125.249 37.0087C124.402 36.1624 123.737 35.173 123.256 34.0406C122.775 32.9081 122.535 31.4062 122.535 29.5346C122.535 27.5797 122.827 25.9526 123.413 24.6532C123.842 23.6996 124.428 22.8473 125.17 22.0963C125.913 21.3334 126.676 20.7672 127.461 20.3976C128.705 19.8135 130.301 19.5215 132.246 19.5215C134.965 19.5215 137.036 20.0758 138.459 21.1844C139.892 22.293 140.896 23.9142 141.471 26.0479L135.462 26.9598C135.274 26.1492 134.929 25.5413 134.427 25.136C133.935 24.7188 133.271 24.5102 132.434 24.5102C131.378 24.5102 130.52 24.9453 129.861 25.8155C129.213 26.6737 128.889 27.979 128.889 29.7313C128.889 31.2929 129.213 32.479 129.861 33.2896C130.51 34.1002 131.336 34.5055 132.34 34.5055C133.177 34.5055 133.878 34.2611 134.442 33.7724C135.018 33.2836 135.446 32.5326 135.729 31.5194Z" fill="white"/>
<path d="M151.795 12.7266V19.9503H155.309V25.2609H151.795V32.0019C151.795 32.8125 151.863 33.3489 151.999 33.6111C152.208 34.0164 152.574 34.2191 153.097 34.2191C153.568 34.2191 154.227 34.0641 155.074 33.7542L155.544 38.7786C153.965 39.172 152.49 39.3687 151.12 39.3687C149.53 39.3687 148.359 39.1362 147.606 38.6713C146.853 38.2064 146.293 37.5031 145.927 36.5614C145.572 35.6078 145.394 34.0701 145.394 31.9482V25.2609H143.04V19.9503H145.394V16.4636L151.795 12.7266Z" fill="white"/>
<path d="M157.961 12.7266H164.347V17.6795H157.961V12.7266ZM157.961 19.9503H164.347V38.9396H157.961V19.9503Z" fill="white"/>
<path d="M180.209 31.5194L186.28 32.3061C185.945 33.7485 185.396 35.0002 184.633 36.0611C183.869 37.1101 182.891 37.9266 181.699 38.5107C180.517 39.0948 179.011 39.3869 177.181 39.3869C175.413 39.3869 173.938 39.2021 172.756 38.8326C171.585 38.4511 170.576 37.8432 169.728 37.0087C168.881 36.1624 168.217 35.173 167.736 34.0406C167.255 32.9081 167.014 31.4062 167.014 29.5346C167.014 27.5797 167.307 25.9526 167.893 24.6532C168.322 23.6996 168.907 22.8473 169.65 22.0963C170.393 21.3334 171.156 20.7672 171.941 20.3976C173.185 19.8135 174.78 19.5215 176.726 19.5215C179.445 19.5215 181.516 20.0758 182.938 21.1844C184.371 22.293 185.375 23.9142 185.951 26.0479L179.942 26.9598C179.754 26.1492 179.408 25.5413 178.906 25.136C178.415 24.7188 177.751 24.5102 176.914 24.5102C175.858 24.5102 175 24.9453 174.341 25.8155C173.692 26.6737 173.368 27.979 173.368 29.7313C173.368 31.2929 173.692 32.479 174.341 33.2896C174.989 34.1002 175.816 34.5055 176.82 34.5055C177.657 34.5055 178.357 34.2611 178.922 33.7724C179.497 33.2836 179.926 32.5326 180.209 31.5194Z" fill="white"/>
</svg>
