<svg width="750" height="500" viewBox="0 0 750 500" fill="none" xmlns="http://www.w3.org/2000/svg">
<path d="M630.78 427.23H81V447.25H630.78V427.23Z" fill="#C7C7C7"/>
<path d="M573.97 135.47H137.81V427.23H573.97V135.47Z" fill="#DBDBDB"/>
<path d="M570.81 139.03H140.98V423.67H570.81V139.03Z" fill="#263238"/>
<path d="M551.77 157.32H160.01V405.37H551.77V157.32Z" fill="#455A64"/>
<path d="M244.01 166.87H160.01V405.38H244.01V166.87Z" fill="#37474F"/>
<path d="M169 166.87H160.01V405.38H169V166.87Z" fill="#455A64"/>
<path d="M244.02 248.44H169V251.99H244.02V248.44Z" fill="#90CAF9"/>
<path d="M206.53 178.71H177.36V180.3H206.53V178.71Z" fill="white"/>
<path d="M173.63 179H175.51L174.57 180L173.63 179Z" fill="white"/>
<path d="M183.57 184.6H179.7V186.19H183.57V184.6Z" fill="white"/>
<path d="M177.36 186.33V184.45L178.36 185.39L177.36 186.33Z" fill="white"/>
<path d="M183.57 190.49H179.7V192.08H183.57V190.49Z" fill="white"/>
<path d="M176.92 190.78H178.8L177.86 191.78L176.92 190.78Z" fill="white"/>
<path d="M183.57 196.38H179.7V197.97H183.57V196.38Z" fill="white"/>
<path d="M176.92 196.67H178.8L177.86 197.68L176.92 196.67Z" fill="white"/>
<path d="M185.92 202.27H182.05V203.86H185.92V202.27Z" fill="white"/>
<path d="M179.7 204V202.12L180.71 203.06L179.7 204Z" fill="white"/>
<path d="M188.27 208.17H184.4V209.76H188.27V208.17Z" fill="white"/>
<path d="M182.05 209.9V208.02L183.06 208.96L182.05 209.9Z" fill="white"/>
<path d="M188.27 267.07H184.4V268.66H188.27V267.07Z" fill="white"/>
<path d="M182.05 268.8V266.92L183.06 267.86L182.05 268.8Z" fill="white"/>
<path d="M190.62 214.05H186.75V215.64H190.62V214.05Z" fill="white"/>
<path d="M184.4 215.78V213.9L185.41 214.84L184.4 215.78Z" fill="white"/>
<path d="M190.62 261.18H186.75V262.77H190.62V261.18Z" fill="white"/>
<path d="M184.4 262.91V261.03L185.41 261.97L184.4 262.91Z" fill="white"/>
<path d="M192.97 219.94H189.1V221.53H192.97V219.94Z" fill="white"/>
<path d="M186.75 221.67V219.79L187.76 220.73L186.75 221.67Z" fill="white"/>
<path d="M192.97 255.28H189.1V256.87H192.97V255.28Z" fill="white"/>
<path d="M186.75 257.02V255.14L187.76 256.08L186.75 257.02Z" fill="white"/>
<path d="M195.32 225.84H191.45V227.43H195.32V225.84Z" fill="white"/>
<path d="M189.1 227.57V225.69L190.11 226.63L189.1 227.57Z" fill="white"/>
<path d="M195.76 231.72H191.89V233.31H195.76V231.72Z" fill="white"/>
<path d="M189.1 232.01H190.98L190.04 233.02L189.1 232.01Z" fill="white"/>
<path d="M195.76 237.61H191.89V239.2H195.76V237.61Z" fill="white"/>
<path d="M189.1 237.9H190.98L190.04 238.91L189.1 237.9Z" fill="white"/>
<path d="M195.76 243.5H191.89V245.09H195.76V243.5Z" fill="white"/>
<path d="M189.1 243.79H190.98L190.04 244.8L189.1 243.79Z" fill="white"/>
<path d="M195.76 249.39H191.89V250.98H195.76V249.39Z" fill="white"/>
<path d="M189.1 249.68H190.98L190.04 250.69L189.1 249.68Z" fill="white"/>
<path d="M183.57 272.96H179.7V274.55H183.57V272.96Z" fill="white"/>
<path d="M177.36 274.69V272.81L178.36 273.75L177.36 274.69Z" fill="white"/>
<path d="M183.57 278.85H179.7V280.44H183.57V278.85Z" fill="white"/>
<path d="M176.92 279.14H178.8L177.86 280.15L176.92 279.14Z" fill="white"/>
<path d="M183.57 284.74H179.7V286.33H183.57V284.74Z" fill="white"/>
<path d="M176.92 285.03H178.8L177.86 286.04L176.92 285.03Z" fill="white"/>
<path d="M185.92 290.63H182.05V292.22H185.92V290.63Z" fill="white"/>
<path d="M179.7 292.37V290.49L180.71 291.43L179.7 292.37Z" fill="white"/>
<path d="M188.27 296.53H184.4V298.12H188.27V296.53Z" fill="white"/>
<path d="M182.05 298.26V296.38L183.06 297.32L182.05 298.26Z" fill="white"/>
<path d="M188.27 302.42H184.4V304.01H188.27V302.42Z" fill="white"/>
<path d="M182.05 304.16V302.28L183.06 303.22L182.05 304.16Z" fill="white"/>
<path d="M188.71 308.31H184.84V309.9H188.71V308.31Z" fill="white"/>
<path d="M182.05 308.6H183.93L182.99 309.61L182.05 308.6Z" fill="white"/>
<path d="M188.71 314.2H184.84V315.79H188.71V314.2Z" fill="white"/>
<path d="M182.05 314.49H183.93L182.99 315.5L182.05 314.49Z" fill="white"/>
<path d="M188.71 320.09H184.84V321.68H188.71V320.09Z" fill="white"/>
<path d="M182.05 320.38H183.93L182.99 321.39L182.05 320.38Z" fill="white"/>
<path d="M188.71 325.98H184.84V327.57H188.71V325.98Z" fill="white"/>
<path d="M182.05 326.27H183.93L182.99 327.28L182.05 326.27Z" fill="white"/>
<path d="M551.77 157.32H160.01V166.86H551.77V157.32Z" fill="#90CAF9"/>
<path d="M169 162.1C169 162.458 168.894 162.808 168.695 163.105C168.496 163.403 168.213 163.635 167.883 163.772C167.552 163.909 167.188 163.945 166.837 163.875C166.486 163.805 166.163 163.633 165.91 163.38C165.657 163.127 165.485 162.804 165.415 162.453C165.345 162.102 165.381 161.738 165.518 161.407C165.655 161.077 165.887 160.794 166.184 160.595C166.482 160.396 166.832 160.29 167.19 160.29C167.67 160.29 168.13 160.481 168.47 160.82C168.809 161.159 169 161.62 169 162.1Z" fill="#C7C7C7"/>
<path d="M176.37 162.1C176.37 162.458 176.264 162.808 176.065 163.105C175.866 163.403 175.583 163.635 175.253 163.772C174.922 163.909 174.558 163.945 174.207 163.875C173.856 163.805 173.533 163.633 173.28 163.38C173.027 163.127 172.855 162.804 172.785 162.453C172.715 162.102 172.751 161.738 172.888 161.407C173.025 161.077 173.257 160.794 173.554 160.595C173.852 160.396 174.202 160.29 174.56 160.29C175.04 160.29 175.5 160.481 175.84 160.82C176.179 161.159 176.37 161.62 176.37 162.1Z" fill="white"/>
<path d="M183.75 162.1C183.75 162.458 183.644 162.808 183.445 163.105C183.246 163.403 182.963 163.635 182.633 163.772C182.302 163.909 181.938 163.945 181.587 163.875C181.236 163.805 180.913 163.633 180.66 163.38C180.407 163.127 180.235 162.804 180.165 162.453C180.095 162.102 180.131 161.738 180.268 161.407C180.405 161.077 180.637 160.794 180.934 160.595C181.232 160.396 181.582 160.29 181.94 160.29C182.42 160.29 182.88 160.481 183.22 160.82C183.559 161.159 183.75 161.62 183.75 162.1Z" fill="#455A64"/>
<path d="M270.82 209.28H263.75V211.01H270.82V209.28Z" fill="#EBEBEB"/>
<path d="M435.82 209.28H279.15V211.01H435.82V209.28Z" fill="#EBEBEB"/>
<path d="M453.59 209.28H440.17V211.01H453.59V209.28Z" fill="#90CAF9"/>
<path d="M506.96 250.26H461.65V251.99H506.96V250.26Z" fill="#EBEBEB"/>
<path d="M523.03 209.28H456.51V211.01H523.03V209.28Z" fill="#A6A6A6"/>
<path d="M270.82 217.47H263.75V219.2H270.82V217.47Z" fill="#EBEBEB"/>
<path d="M339.25 217.47H286.04V219.2H339.25V217.47Z" fill="#A6A6A6"/>
<path d="M458.47 250.26H438.34V251.99H458.47V250.26Z" fill="#A6A6A6"/>
<path d="M329.97 242.06H279.15V243.79H329.97V242.06Z" fill="#A6A6A6"/>
<path d="M321.69 225.67H286.04V227.4H321.69V225.67Z" fill="#90CAF9"/>
<path d="M516.69 233.86H449.15V235.59H516.69V233.86Z" fill="#A6A6A6"/>
<path d="M435.83 274.09H368.29V275.82H435.83V274.09Z" fill="#A6A6A6"/>
<path d="M458.18 225.67H325.65V227.4H458.18V225.67Z" fill="#A6A6A6"/>
<path d="M433.73 250.26H279.15V251.99H433.73V250.26Z" fill="#90CAF9"/>
<path d="M452.1 217.47H342.59V219.2H452.1V217.47Z" fill="#EBEBEB"/>
<path d="M486.77 225.67H463.85V227.4H486.77V225.67Z" fill="#EBEBEB"/>
<path d="M270.82 225.67H263.75V227.4H270.82V225.67Z" fill="#EBEBEB"/>
<path d="M270.82 233.86H263.75V235.59H270.82V233.86Z" fill="#A6A6A6"/>
<path d="M320.92 233.86H279.15V235.59H320.92V233.86Z" fill="#EBEBEB"/>
<path d="M327.81 258.45H286.04V260.18H327.81V258.45Z" fill="#EBEBEB"/>
<path d="M497.85 266.65H439.53V268.38H497.85V266.65Z" fill="#90CAF9"/>
<path d="M435.88 266.65H323.82V268.38H435.88V266.65Z" fill="#EBEBEB"/>
<path d="M317.44 266.65H286.04V268.38H317.44V266.65Z" fill="#A6A6A6"/>
<path d="M453.59 242.06H332.85V243.79H453.59V242.06Z" fill="#EBEBEB"/>
<path d="M528.55 242.06H456.51V243.79H528.55V242.06Z" fill="#90CAF9"/>
<path d="M445.86 233.86H325.17V235.59H445.86V233.86Z" fill="#90CAF9"/>
<path d="M270.82 242.06H263.75V243.79H270.82V242.06Z" fill="#EBEBEB"/>
<path d="M270.82 250.26H263.75V251.99H270.82V250.26Z" fill="#EBEBEB"/>
<path d="M270.82 258.45H263.75V260.18H270.82V258.45Z" fill="#A6A6A6"/>
<path d="M270.82 266.65H263.75V268.38H270.82V266.65Z" fill="#EBEBEB"/>
<path d="M270.82 274.09H263.75V275.82H270.82V274.09Z" fill="#EBEBEB"/>
<path d="M362.02 274.09H279.15V275.82H362.02V274.09Z" fill="#EBEBEB"/>
<path d="M270.82 282.29H263.75V284.02H270.82V282.29Z" fill="#EBEBEB"/>
<path d="M339.25 282.29H286.04V284.02H339.25V282.29Z" fill="#A6A6A6"/>
<path d="M329.97 306.87H279.15V308.6H329.97V306.87Z" fill="#A6A6A6"/>
<path d="M321.69 290.48H286.04V292.21H321.69V290.48Z" fill="#90CAF9"/>
<path d="M403.34 323.27H367.69V325H403.34V323.27Z" fill="#90CAF9"/>
<path d="M321.69 339.66H286.04V341.39H321.69V339.66Z" fill="#90CAF9"/>
<path d="M458.18 290.48H325.65V292.21H458.18V290.48Z" fill="#A6A6A6"/>
<path d="M433.73 315.07H279.15V316.8H433.73V315.07Z" fill="#90CAF9"/>
<path d="M452.1 282.29H342.59V284.02H452.1V282.29Z" fill="#EBEBEB"/>
<path d="M475.28 298.68H452.4V300.41H475.28V298.68Z" fill="#EBEBEB"/>
<path d="M270.82 290.48H263.75V292.21H270.82V290.48Z" fill="#EBEBEB"/>
<path d="M270.82 298.68H263.75V300.41H270.82V298.68Z" fill="#A6A6A6"/>
<path d="M320.92 298.68H279.15V300.41H320.92V298.68Z" fill="#EBEBEB"/>
<path d="M453.59 306.87H332.85V308.6H453.59V306.87Z" fill="#EBEBEB"/>
<path d="M445.86 298.68H325.17V300.41H445.86V298.68Z" fill="#90CAF9"/>
<path d="M270.82 306.87H263.75V308.6H270.82V306.87Z" fill="#EBEBEB"/>
<path d="M270.82 323.27H263.75V325H270.82V323.27Z" fill="#EBEBEB"/>
<path d="M362.02 323.27H279.15V325H362.02V323.27Z" fill="#EBEBEB"/>
<path d="M270.82 331.46H263.75V333.19H270.82V331.46Z" fill="#EBEBEB"/>
<path d="M339.25 331.46H286.04V333.19H339.25V331.46Z" fill="#A6A6A6"/>
<path d="M329.97 356.05H279.15V357.78H329.97V356.05Z" fill="#A6A6A6"/>
<path d="M458.18 339.66H325.65V341.39H458.18V339.66Z" fill="#A6A6A6"/>
<path d="M475.28 347.85H452.4V349.58H475.28V347.85Z" fill="#EBEBEB"/>
<path d="M270.82 339.66H263.75V341.39H270.82V339.66Z" fill="#EBEBEB"/>
<path d="M270.82 347.85H263.75V349.58H270.82V347.85Z" fill="#A6A6A6"/>
<path d="M320.92 347.85H279.15V349.58H320.92V347.85Z" fill="#EBEBEB"/>
<path d="M453.59 356.05H332.85V357.78H453.59V356.05Z" fill="#EBEBEB"/>
<path d="M445.86 347.85H325.17V349.58H445.86V347.85Z" fill="#90CAF9"/>
<path d="M270.82 356.05H263.75V357.78H270.82V356.05Z" fill="#EBEBEB"/>
<path d="M268.11 193.44C268.169 193.496 268.216 193.563 268.248 193.638C268.28 193.713 268.297 193.794 268.297 193.875C268.297 193.956 268.28 194.037 268.248 194.112C268.216 194.186 268.169 194.254 268.11 194.31C268.055 194.366 267.99 194.411 267.918 194.442C267.846 194.473 267.768 194.489 267.69 194.49C267.522 194.491 267.361 194.427 267.24 194.31L264.51 191.55C264.51 191.55 264.51 191.55 264.51 191.49C264.506 191.463 264.506 191.436 264.51 191.41C264.51 191.41 264.51 191.36 264.51 191.35C264.51 191.34 264.51 191.35 264.51 191.3V191.23C264.51 191.23 264.51 191.23 264.51 191.17C264.51 191.11 264.51 191.17 264.51 191.12V191C264.51 191 264.51 190.95 264.51 190.92C264.524 190.889 264.541 190.859 264.56 190.83C264.56 190.83 264.56 190.83 264.61 190.77L267.34 188C267.457 187.888 267.613 187.826 267.775 187.826C267.937 187.826 268.093 187.888 268.21 188C268.269 188.056 268.316 188.123 268.348 188.198C268.38 188.273 268.397 188.354 268.397 188.435C268.397 188.516 268.38 188.597 268.348 188.672C268.316 188.746 268.269 188.814 268.21 188.87L265.91 191.19L268.11 193.44Z" fill="#90CAF9"/>
<path d="M270.58 193.75L272.96 188.1C272.987 188.034 273.027 187.974 273.078 187.924C273.129 187.874 273.189 187.834 273.255 187.807C273.321 187.78 273.391 187.766 273.463 187.767C273.534 187.767 273.604 187.782 273.67 187.81C273.733 187.837 273.791 187.877 273.839 187.926C273.887 187.976 273.924 188.034 273.949 188.098C273.975 188.163 273.987 188.231 273.985 188.3C273.983 188.369 273.968 188.437 273.94 188.5L271.56 194.17C271.519 194.265 271.45 194.347 271.363 194.404C271.276 194.461 271.174 194.491 271.07 194.49C271.004 194.504 270.936 194.504 270.87 194.49C270.799 194.464 270.735 194.424 270.681 194.371C270.627 194.319 270.585 194.255 270.558 194.185C270.531 194.115 270.518 194.04 270.522 193.965C270.526 193.89 270.546 193.817 270.58 193.75Z" fill="#90CAF9"/>
<path d="M278.63 191.47C278.63 191.47 278.63 191.52 278.57 191.54L275.84 194.3C275.782 194.357 275.713 194.403 275.638 194.434C275.562 194.465 275.482 194.48 275.4 194.48C275.28 194.477 275.163 194.439 275.064 194.37C274.965 194.302 274.888 194.206 274.843 194.095C274.797 193.984 274.785 193.862 274.807 193.744C274.83 193.625 274.887 193.516 274.97 193.43L277.27 191.11L274.97 188.79C274.911 188.734 274.864 188.666 274.832 188.592C274.8 188.517 274.783 188.436 274.783 188.355C274.783 188.274 274.8 188.193 274.832 188.118C274.864 188.043 274.911 187.976 274.97 187.92C275.087 187.808 275.243 187.746 275.405 187.746C275.567 187.746 275.723 187.808 275.84 187.92L278.57 190.69C278.57 190.69 278.57 190.69 278.63 190.75C278.648 190.779 278.665 190.809 278.68 190.84C278.677 190.87 278.677 190.9 278.68 190.93V190.99C278.68 190.99 278.68 190.99 278.68 191.04V191.17C278.678 191.2 278.678 191.23 278.68 191.26L278.63 191.47Z" fill="#90CAF9"/>
<path d="M668.64 78.7699H289.91V318.57H668.64V78.7699Z" fill="white"/>
<path d="M668.76 318.69H289.76V78.6899H668.76V318.69ZM290.03 318.44H668.51V78.8899H290.03V318.44Z" fill="#263238"/>
<path d="M668.64 78.7699H289.91V87.9999H668.64V78.7699Z" fill="#90CAF9"/>
<path d="M298.59 83.3799C298.592 83.7285 298.489 84.0698 298.296 84.3598C298.103 84.6499 297.827 84.8757 297.504 85.0081C297.182 85.1405 296.827 85.1735 296.486 85.103C296.144 85.0324 295.832 84.8615 295.588 84.6121C295.344 84.3627 295.181 84.0463 295.118 83.7033C295.056 83.3603 295.097 83.0065 295.237 82.6871C295.377 82.3678 295.609 82.0975 295.903 81.9109C296.198 81.7243 296.541 81.6299 296.89 81.6399C297.344 81.6503 297.777 81.8383 298.094 82.1634C298.412 82.4886 298.59 82.9252 298.59 83.3799Z" fill="#C7C7C7"/>
<path d="M305.72 83.3799C305.722 83.7269 305.62 84.0666 305.429 84.3559C305.237 84.6452 304.964 84.8711 304.644 85.0048C304.324 85.1385 303.971 85.174 303.631 85.1067C303.29 85.0395 302.978 84.8727 302.732 84.6273C302.487 84.382 302.32 84.0693 302.253 83.7289C302.186 83.3885 302.221 83.0358 302.355 82.7156C302.489 82.3954 302.714 82.1222 303.004 81.9307C303.293 81.7391 303.633 81.6379 303.98 81.6399C304.441 81.6399 304.884 81.8232 305.21 82.1496C305.536 82.4759 305.72 82.9184 305.72 83.3799Z" fill="white"/>
<path d="M312.89 83.3799C312.892 83.7269 312.79 84.0666 312.599 84.3559C312.407 84.6452 312.134 84.8711 311.814 85.0048C311.494 85.1385 311.141 85.174 310.801 85.1067C310.46 85.0395 310.148 84.8727 309.902 84.6273C309.657 84.382 309.49 84.0693 309.423 83.7289C309.356 83.3885 309.391 83.0358 309.525 82.7156C309.658 82.3954 309.884 82.1222 310.174 81.9307C310.463 81.7391 310.803 81.6379 311.15 81.6399C311.611 81.6399 312.054 81.8232 312.38 82.1496C312.706 82.4759 312.89 82.9184 312.89 83.3799Z" fill="#455A64"/>
<path d="M328.68 87.99H300.68V212.38H328.68V87.99Z" fill="#EBEBEB"/>
<path d="M645.149 103.33H313.399V133.46H645.149V103.33Z" fill="#90CAF9"/>
<path d="M336.32 114.99H328.68V116.23H336.32V114.99Z" fill="white"/>
<path d="M336.32 120.56H328.68V121.8H336.32V120.56Z" fill="white"/>
<path d="M336.32 117.81H328.68V119.05H336.32V117.81Z" fill="white"/>
<path d="M426.95 113.87H353.41V122.93H426.95V113.87Z" fill="white"/>
<path d="M427.039 123H353.319V113.75H427.039V123Z" fill="white"/>
<path d="M427.04 113.77H417.79V123.02H427.04V113.77Z" fill="#455A64"/>
<path d="M425.29 120.94L424.45 121.57L422.9 119.57L422.34 118.82C422.454 118.77 422.561 118.706 422.66 118.63C422.849 118.488 422.998 118.298 423.09 118.08L423.69 118.87L425.29 120.94Z" fill="white"/>
<path d="M423.64 116.12C423.375 115.776 423.017 115.516 422.608 115.368C422.199 115.221 421.757 115.194 421.334 115.29C420.91 115.385 420.523 115.6 420.217 115.908C419.911 116.216 419.7 116.606 419.608 117.03C419.515 117.454 419.546 117.896 419.697 118.304C419.847 118.711 420.111 119.067 420.457 119.33C420.803 119.592 421.217 119.751 421.649 119.786C422.082 119.822 422.516 119.733 422.9 119.53C423.013 119.469 423.12 119.399 423.22 119.32C423.401 119.182 423.56 119.017 423.69 118.83C423.974 118.433 424.123 117.955 424.114 117.467C424.105 116.978 423.939 116.506 423.64 116.12ZM422.64 118.59C422.542 118.666 422.434 118.73 422.32 118.78C422.013 118.902 421.672 118.909 421.36 118.799C421.048 118.69 420.786 118.471 420.623 118.183C420.46 117.896 420.406 117.559 420.471 117.235C420.537 116.911 420.718 116.621 420.98 116.42C421.217 116.239 421.507 116.141 421.805 116.139C422.103 116.138 422.393 116.234 422.632 116.413C422.871 116.591 423.045 116.843 423.127 117.129C423.21 117.416 423.197 117.722 423.09 118C423.004 118.233 422.855 118.437 422.66 118.59H422.64Z" fill="white"/>
<path d="M355.8 115.65H355.31V121.15H355.8V115.65Z" fill="#C7C7C7"/>
<path d="M629.82 117.02H598.04V119.78H629.82V117.02Z" fill="white"/>
<path d="M581.049 117.02H549.27V119.78H581.049V117.02Z" fill="white"/>
<path opacity="0.1" d="M532.28 117.02H500.5V119.78H532.28V117.02Z" fill="black"/>
<path d="M483.509 117.02H451.729V119.78H483.509V117.02Z" fill="white"/>
<path d="M668.64 227.34H289.91V257.47H668.64V227.34Z" fill="#90CAF9"/>
<path d="M386.699 271.7H313.399V275.09H386.699V271.7Z" fill="#455A64"/>
<path d="M313.399 283.32L325.159 283.14L336.919 283.03L360.439 282.94L383.959 283.03L395.719 283.13L407.479 283.32L395.719 283.5L383.959 283.61L360.439 283.69L336.919 283.61L325.159 283.5L313.399 283.32Z" fill="#A6A6A6"/>
<path d="M313.399 287.94L325.159 287.76L336.919 287.66L360.439 287.57L383.959 287.65L395.719 287.76L407.479 287.94L395.719 288.13L383.959 288.23L360.439 288.32L336.919 288.23L325.159 288.13L313.399 287.94Z" fill="#A6A6A6"/>
<path d="M313.399 292.57L325.159 292.39L336.919 292.28L360.439 292.19L383.959 292.28L395.719 292.39L407.479 292.57L395.719 292.75L383.959 292.86L360.439 292.94L336.919 292.86L325.159 292.75L313.399 292.57Z" fill="#A6A6A6"/>
<path d="M313.399 297.19L325.159 297.01L336.919 296.91L360.439 296.82L383.959 296.91L395.719 297.01L407.479 297.19L395.719 297.38L383.959 297.48L360.439 297.57L336.919 297.48L325.159 297.38L313.399 297.19Z" fill="#A6A6A6"/>
<path d="M313.399 301.82C317.319 301.67 321.239 301.59 325.159 301.53L336.919 301.45L348.679 301.53C352.599 301.59 356.519 301.66 360.439 301.82C356.519 301.98 352.599 302.05 348.679 302.11L336.889 302.2L325.129 302.11C321.239 302.05 317.319 302 313.399 301.82Z" fill="#A6A6A6"/>
<path d="M505.53 271.7H432.229V275.09H505.53V271.7Z" fill="#455A64"/>
<path d="M432.229 283.32L443.99 283.14L455.749 283.03L479.27 282.94L502.79 283.03L514.549 283.13L526.309 283.32L514.549 283.5L502.79 283.61L479.27 283.69L455.749 283.61L443.99 283.5L432.229 283.32Z" fill="#A6A6A6"/>
<path d="M432.229 287.94L443.99 287.76L455.749 287.66L479.27 287.57L502.79 287.65L514.549 287.76L526.309 287.94L514.549 288.13L502.79 288.23L479.27 288.32L455.749 288.23L443.99 288.13L432.229 287.94Z" fill="#A6A6A6"/>
<path d="M432.229 292.57L443.99 292.39L455.749 292.28L479.27 292.19L502.79 292.28L514.549 292.39L526.309 292.57L514.549 292.75L502.79 292.86L479.27 292.94L455.749 292.86L443.99 292.75L432.229 292.57Z" fill="#A6A6A6"/>
<path d="M432.229 297.19L443.99 297.01L455.749 296.91L479.27 296.82L502.79 296.91L514.549 297.01L526.309 297.19L514.549 297.38L502.79 297.48L479.27 297.57L455.749 297.48L443.99 297.38L432.229 297.19Z" fill="#A6A6A6"/>
<path d="M432.229 301.82C436.149 301.67 440.07 301.59 443.99 301.53L455.749 301.45L467.509 301.53C471.429 301.59 475.35 301.66 479.27 301.82C475.35 301.98 471.429 302.05 467.509 302.11L455.749 302.2L443.99 302.11C440.07 302.05 436.149 302 432.229 301.82Z" fill="#A6A6A6"/>
<path d="M624.36 271.7H551.06V275.09H624.36V271.7Z" fill="#455A64"/>
<path d="M551.06 283.32L562.82 283.14L574.58 283.03L598.1 282.94L621.63 283.03L633.39 283.13L645.15 283.32L633.39 283.5L621.63 283.61L598.1 283.69L574.58 283.61L562.82 283.5L551.06 283.32Z" fill="#A6A6A6"/>
<path d="M551.06 287.94L562.82 287.76L574.58 287.66L598.1 287.57L621.63 287.65L633.39 287.76L645.15 287.94L633.39 288.13L621.63 288.23L598.1 288.32L574.58 288.23L562.82 288.13L551.06 287.94Z" fill="#A6A6A6"/>
<path d="M551.06 292.57L562.82 292.39L574.58 292.28L598.1 292.19L621.63 292.28L633.39 292.39L645.15 292.57L633.39 292.75L621.63 292.86L598.1 292.94L574.58 292.86L562.82 292.75L551.06 292.57Z" fill="#A6A6A6"/>
<path d="M551.06 297.19L562.82 297.01L574.58 296.91L598.1 296.82L621.63 296.91L633.39 297.01L645.15 297.19L633.39 297.38L621.63 297.48L598.1 297.57L574.58 297.48L562.82 297.38L551.06 297.19Z" fill="#A6A6A6"/>
<path d="M551.06 301.82C554.98 301.67 558.9 301.59 562.82 301.53L574.58 301.45L586.34 301.53C590.26 301.59 594.18 301.66 598.1 301.82C594.18 301.98 590.26 302.05 586.34 302.11L574.58 302.2L562.82 302.11C558.89 302.05 554.98 302 551.06 301.82Z" fill="#A6A6A6"/>
<path d="M355.11 216.15H419.21V152.05H355.11V216.15Z" fill="#EBEBEB"/>
<path d="M358.879 212.38H415.439V155.82H358.879V212.38Z" fill="#455A64"/>
<path d="M367.99 169.31C367.766 170.434 367.909 171.6 368.398 172.636C368.887 173.673 369.697 174.524 370.707 175.065C371.718 175.605 372.875 175.807 374.009 175.639C375.143 175.471 376.192 174.943 377.003 174.132C377.813 173.322 378.341 172.272 378.509 171.139C378.677 170.005 378.476 168.847 377.935 167.837C377.394 166.827 376.543 166.017 375.507 165.528C374.47 165.038 373.304 164.895 372.18 165.12C371.146 165.327 370.196 165.835 369.451 166.58C368.705 167.326 368.197 168.276 367.99 169.31Z" fill="#37474F"/>
<path d="M374.56 197.7H415.44L395 174.78L374.56 197.7Z" fill="#37474F"/>
<path d="M358.88 197.7H392.63L375.75 182.77L358.88 197.7Z" fill="#263238"/>
<path d="M415.44 197.7H358.88V212.38H415.44V197.7Z" fill="#263238"/>
<path d="M539.339 216.15H603.439V152.05H539.339V216.15Z" fill="#EBEBEB"/>
<path d="M543.11 212.38H599.67V155.82H543.11V212.38Z" fill="#455A64"/>
<path d="M552.22 169.31C551.998 170.431 552.141 171.595 552.63 172.628C553.12 173.661 553.928 174.51 554.936 175.049C555.945 175.588 557.1 175.788 558.231 175.62C559.362 175.452 560.409 174.925 561.217 174.117C562.025 173.308 562.553 172.261 562.72 171.13C562.888 169.999 562.688 168.845 562.149 167.836C561.61 166.828 560.762 166.019 559.728 165.53C558.695 165.041 557.532 164.897 556.41 165.12C555.376 165.325 554.425 165.833 553.679 166.579C552.933 167.325 552.426 168.275 552.22 169.31Z" fill="#37474F"/>
<path d="M558.79 197.7H599.67L579.23 174.78L558.79 197.7Z" fill="#37474F"/>
<path d="M543.1 197.7H576.85L559.98 182.77L543.1 197.7Z" fill="#263238"/>
<path d="M599.66 197.7H543.1V212.38H599.66V197.7Z" fill="#263238"/>
<path d="M447.209 216.15H511.319V152.05H447.209V216.15Z" fill="#EBEBEB"/>
<path d="M450.99 212.38H507.55V155.82H450.99V212.38Z" fill="#90CAF9"/>
<path opacity="0.1" d="M460.1 169.31C459.875 170.434 460.018 171.6 460.507 172.636C460.997 173.673 461.806 174.524 462.817 175.065C463.827 175.605 464.985 175.807 466.118 175.639C467.252 175.471 468.302 174.943 469.112 174.132C469.922 173.322 470.451 172.272 470.618 171.139C470.786 170.005 470.585 168.847 470.044 167.837C469.504 166.827 468.652 166.017 467.616 165.528C466.58 165.038 465.413 164.895 464.29 165.12C463.256 165.327 462.306 165.835 461.56 166.58C460.814 167.326 460.306 168.276 460.1 169.31Z" fill="black"/>
<path opacity="0.1" d="M466.67 197.7H507.55L487.11 174.78L466.67 197.7Z" fill="black"/>
<path d="M450.99 197.7H484.74L467.87 182.77L450.99 197.7Z" fill="#90CAF9"/>
<g opacity="0.2">
<path d="M450.99 197.7H484.74L467.87 182.77L450.99 197.7Z" fill="black"/>
</g>
<path d="M507.55 197.7H450.99V212.38H507.55V197.7Z" fill="#90CAF9"/>
<path opacity="0.2" d="M507.55 197.7H450.99V212.38H507.55V197.7Z" fill="black"/>
<path d="M358.88 235.47L374.53 235.29L390.18 235.18L421.49 235.09L452.79 235.18L468.44 235.28L484.1 235.47L468.44 235.65L452.79 235.76L421.49 235.84L390.18 235.76L374.53 235.65L358.88 235.47Z" fill="white"/>
<path d="M358.88 240.09L374.53 239.91L390.18 239.81L421.49 239.72L452.79 239.81L468.44 239.91L484.1 240.09L468.44 240.28L452.79 240.38L421.49 240.47L390.18 240.38L374.53 240.28L358.88 240.09Z" fill="white"/>
<path d="M358.88 244.72L374.53 244.54L390.18 244.43L421.49 244.35L452.79 244.43L468.44 244.54L484.1 244.72L468.44 244.9L452.79 245.01L421.49 245.09L390.18 245.01L374.53 244.9L358.88 244.72Z" fill="white"/>
<path d="M358.89 249.35C364.1 249.19 369.32 249.12 374.54 249.06L390.19 248.97L405.84 249.06C411.06 249.12 416.28 249.19 421.5 249.35C416.28 249.5 411.06 249.57 405.84 249.63L390.19 249.72L374.54 249.63C369.31 249.57 364.09 249.5 358.89 249.35Z" fill="white"/>
<path d="M317.97 247V237.82L313.51 242.08L317.97 247Z" fill="white"/>
<path d="M640.81 237.82V247L645.27 242.74L640.81 237.82Z" fill="white"/>
</svg>
