<svg width="121" height="164" viewBox="0 0 121 164" fill="none" xmlns="http://www.w3.org/2000/svg">
<path d="M102.247 82.3339C115.942 92.174 121.293 105.708 119.774 122.221C117.889 142.709 102.124 158.652 81.5134 162.192C70.293 164.117 57.6339 163.966 46.3273 163.997C46.3458 152.857 46.4352 139.157 46.4044 128.016C50.9301 128.056 56.8792 128.075 61.411 128.016C65.2467 127.964 68.9128 127.197 72.2648 125.182C77.1941 122.218 79.1073 117.683 78.8793 112.172C78.6575 106.866 76.0788 102.929 71.3775 100.394C68.0594 98.6037 64.4672 98.0152 60.7733 97.9567C56.6758 97.892 52.5783 97.9567 48.4808 97.9351H46.3458C46.275 93.2862 46.4444 86.952 46.3458 82.3061C46.962 82.2815 49.4513 81.8625 50.0644 81.8625C66.1935 81.8625 82.3226 81.8625 98.4517 81.8625C99.7326 81.8443 101.01 82.0029 102.247 82.3339Z" fill="#9C97FF"/>
<path d="M46.3458 82.2966C46.3211 73.8583 46.429 73.9969 46.3304 65.5616C50.3354 65.6633 56.7436 65.7958 60.7147 64.8222C67.1629 63.2449 71.168 59.3415 71.9566 53.7313C72.998 46.3373 70.5087 40.6255 64.7753 37.2242C56.6511 32.4058 45.6588 36.4078 41.9772 45.5178C41.7954 45.9707 41.4658 46.7501 41.2932 47.1968C40.0825 46.5807 40.56 45.1173 40.5538 44.153C40.5107 37.2581 40.5323 30.3663 40.5323 23.4715C40.5323 17.3098 40.5323 11.1482 40.5323 4.98655C40.5323 3.95756 40.4121 2.88849 41.207 2.03818C55.4527 -1.08885 69.5166 -0.944038 82.9459 5.32543C95.6358 11.2499 105.186 20.4615 109.549 34.0818C112.808 44.2485 113.153 54.5076 107.799 64.2738C105.159 69.0892 101.329 72.817 96.8066 75.8793C96.0117 76.4185 95.223 76.9668 94.1879 77.6785C97.0684 79.1943 99.8165 80.4882 102.238 82.3182C84.4063 82.3182 66.5745 82.3552 48.7427 82.2966C46.965 82.2966 46.3365 82.2751 46.3365 82.2751" fill="#9C97FF"/>
<path d="M40.0548 164C27.8239 163.924 12.2195 163.927 0.00408936 164C0.0533825 149.023 0.0348994 131.66 0.0348994 116.683C0.0348994 101.851 0.0533825 87.4344 0.00408936 72.5991C12.1733 72.6792 27.8978 72.6792 40.0702 72.5991" fill="#9C97FF"/>
<path d="M0.00414171 80.0602C0.0595965 73.0236 -0.0636382 64.2031 0.0503521 57.1696C0.287575 42.8746 4.07391 29.7997 13.646 18.8073C21.0554 10.2981 30.2824 4.77721 41.2163 2.04761C41.2409 10.409 41.2645 18.7723 41.2871 27.1378C41.2871 33.0591 41.2871 38.9836 41.2871 44.9049V47.2032C40.292 50.5705 40.0117 53.6914 40.024 57.2005C40.0425 64.2371 39.9901 73.0236 40.0579 80.0602C27.8332 80.0016 12.2165 79.9985 0.00722553 80.0602" fill="#9C97FF"/>
</svg>
