<svg width="401" height="267" viewBox="0 0 401 267" fill="none" xmlns="http://www.w3.org/2000/svg">
<path d="M333.583 246.8H40V257.49H333.583V246.8Z" fill="#C7C7C7"/>
<path d="M303.246 91H70.3369V246.8H303.246V91Z" fill="#DBDBDB"/>
<path d="M301.559 92.901H72.0293V244.899H301.559V92.901Z" fill="#263238"/>
<path d="M291.391 102.668H82.1914V235.127H291.391V102.668Z" fill="#455A64"/>
<path d="M127.047 107.768H82.1914V235.132H127.047V107.768Z" fill="#37474F"/>
<path d="M86.9921 107.768H82.1914V235.132H86.9921V107.768Z" fill="#455A64"/>
<path d="M127.053 151.326H86.9922V153.222H127.053V151.326Z" fill="#9E78F7"/>
<path d="M107.033 114.09H91.4561V114.939H107.033V114.09Z" fill="white"/>
<path d="M89.4648 114.245H90.4688L89.9668 114.779L89.4648 114.245Z" fill="white"/>
<path d="M94.7726 117.235H92.7061V118.085H94.7726V117.235Z" fill="white"/>
<path d="M91.4561 118.159V117.155L91.9894 117.657L91.4561 118.159Z" fill="white"/>
<path d="M94.7726 120.381H92.7061V121.23H94.7726V120.381Z" fill="white"/>
<path d="M91.2217 120.536H92.2256L91.7236 121.07L91.2217 120.536Z" fill="white"/>
<path d="M94.7726 123.526H92.7061V124.375H94.7726V123.526Z" fill="white"/>
<path d="M91.2217 123.681H92.2256L91.7236 124.22L91.2217 123.681Z" fill="white"/>
<path d="M96.0275 126.671H93.9609V127.52H96.0275V126.671Z" fill="white"/>
<path d="M92.7061 127.595V126.591L93.2447 127.093L92.7061 127.595Z" fill="white"/>
<path d="M97.2824 129.822H95.2158V130.671H97.2824V129.822Z" fill="white"/>
<path d="M93.9609 130.746V129.742L94.4996 130.244L93.9609 130.746Z" fill="white"/>
<path d="M97.2824 161.274H95.2158V162.123H97.2824V161.274Z" fill="white"/>
<path d="M93.9609 162.198V161.194L94.4996 161.696L93.9609 162.198Z" fill="white"/>
<path d="M98.5373 132.962H96.4707V133.811H98.5373V132.962Z" fill="white"/>
<path d="M95.2158 133.886V132.882L95.7545 133.384L95.2158 133.886Z" fill="white"/>
<path d="M98.5373 158.129H96.4707V158.978H98.5373V158.129Z" fill="white"/>
<path d="M95.2158 159.053V158.049L95.7545 158.551L95.2158 159.053Z" fill="white"/>
<path d="M99.7922 136.107H97.7256V136.956H99.7922V136.107Z" fill="white"/>
<path d="M96.4707 137.031V136.027L97.0094 136.529L96.4707 137.031Z" fill="white"/>
<path d="M99.7922 154.979H97.7256V155.828H99.7922V154.979Z" fill="white"/>
<path d="M96.4707 155.908V154.904L97.0094 155.406L96.4707 155.908Z" fill="white"/>
<path d="M101.047 139.258H98.9805V140.107H101.047V139.258Z" fill="white"/>
<path d="M97.7256 140.181V139.177L98.2642 139.679L97.7256 140.181Z" fill="white"/>
<path d="M101.281 142.397H99.2148V143.247H101.281V142.397Z" fill="white"/>
<path d="M97.7256 142.552H98.7295L98.2275 143.092L97.7256 142.552Z" fill="white"/>
<path d="M101.281 145.543H99.2148V146.392H101.281V145.543Z" fill="white"/>
<path d="M97.7256 145.698H98.7295L98.2275 146.237L97.7256 145.698Z" fill="white"/>
<path d="M101.281 148.688H99.2148V149.537H101.281V148.688Z" fill="white"/>
<path d="M97.7256 148.843H98.7295L98.2275 149.382L97.7256 148.843Z" fill="white"/>
<path d="M101.281 151.833H99.2148V152.682H101.281V151.833Z" fill="white"/>
<path d="M97.7256 151.988H98.7295L98.2275 152.528L97.7256 151.988Z" fill="white"/>
<path d="M94.7726 164.42H92.7061V165.269H94.7726V164.42Z" fill="white"/>
<path d="M91.4561 165.344V164.34L91.9894 164.842L91.4561 165.344Z" fill="white"/>
<path d="M94.7726 167.565H92.7061V168.414H94.7726V167.565Z" fill="white"/>
<path d="M91.2217 167.72H92.2256L91.7236 168.259L91.2217 167.72Z" fill="white"/>
<path d="M94.7726 170.71H92.7061V171.559H94.7726V170.71Z" fill="white"/>
<path d="M91.2217 170.865H92.2256L91.7236 171.404L91.2217 170.865Z" fill="white"/>
<path d="M96.0275 173.855H93.9609V174.705H96.0275V173.855Z" fill="white"/>
<path d="M92.7061 174.785V173.781L93.2447 174.283L92.7061 174.785Z" fill="white"/>
<path d="M97.2824 177.006H95.2158V177.855H97.2824V177.006Z" fill="white"/>
<path d="M93.9609 177.93V176.926L94.4996 177.428L93.9609 177.93Z" fill="white"/>
<path d="M97.2824 180.151H95.2158V181H97.2824V180.151Z" fill="white"/>
<path d="M93.9609 181.08V180.077L94.4996 180.578L93.9609 181.08Z" fill="white"/>
<path d="M97.5168 183.297H95.4502V184.146H97.5168V183.297Z" fill="white"/>
<path d="M93.9609 183.451H94.9649L94.4629 183.991L93.9609 183.451Z" fill="white"/>
<path d="M97.5168 186.442H95.4502V187.291H97.5168V186.442Z" fill="white"/>
<path d="M93.9609 186.597H94.9649L94.4629 187.136L93.9609 186.597Z" fill="white"/>
<path d="M97.5168 189.587H95.4502V190.436H97.5168V189.587Z" fill="white"/>
<path d="M93.9609 189.742H94.9649L94.4629 190.281L93.9609 189.742Z" fill="white"/>
<path d="M97.5168 192.732H95.4502V193.581H97.5168V192.732Z" fill="white"/>
<path d="M93.9609 192.887H94.9649L94.4629 193.427L93.9609 192.887Z" fill="white"/>
<path d="M291.391 102.668H82.1914V107.762H291.391V102.668Z" fill="#9E78F7"/>
<path d="M86.9917 105.22C86.9917 105.412 86.935 105.598 86.8288 105.757C86.7226 105.916 86.5716 106.04 86.395 106.113C86.2184 106.187 86.0241 106.206 85.8366 106.168C85.6491 106.131 85.4769 106.039 85.3417 105.904C85.2065 105.769 85.1145 105.597 85.0772 105.409C85.0399 105.222 85.059 105.027 85.1322 104.851C85.2053 104.674 85.3292 104.523 85.4882 104.417C85.6471 104.311 85.834 104.254 86.0251 104.254C86.2815 104.254 86.5273 104.356 86.7086 104.537C86.8898 104.718 86.9917 104.964 86.9917 105.22Z" fill="#C7C7C7"/>
<path d="M90.9272 105.22C90.9272 105.412 90.8705 105.598 90.7643 105.757C90.6581 105.916 90.5072 106.04 90.3306 106.113C90.1539 106.187 89.9596 106.206 89.7721 106.168C89.5846 106.131 89.4124 106.039 89.2772 105.904C89.1421 105.769 89.05 105.597 89.0127 105.409C88.9754 105.222 88.9946 105.027 89.0677 104.851C89.1409 104.674 89.2648 104.523 89.4237 104.417C89.5826 104.311 89.7695 104.254 89.9607 104.254C90.217 104.254 90.4629 104.356 90.6441 104.537C90.8254 104.718 90.9272 104.964 90.9272 105.22Z" fill="white"/>
<path d="M94.8686 105.22C94.8686 105.412 94.8119 105.598 94.7057 105.757C94.5995 105.916 94.4486 106.04 94.272 106.113C94.0954 106.187 93.901 106.206 93.7135 106.168C93.526 106.131 93.3538 106.039 93.2186 105.904C93.0835 105.769 92.9914 105.597 92.9541 105.409C92.9168 105.222 92.936 105.027 93.0091 104.851C93.0823 104.674 93.2062 104.523 93.3651 104.417C93.5241 104.311 93.7109 104.254 93.9021 104.254C94.1584 104.254 94.4043 104.356 94.5855 104.537C94.7668 104.718 94.8686 104.964 94.8686 105.22Z" fill="#455A64"/>
<path d="M141.364 130.415H137.589V131.338H141.364V130.415Z" fill="#EBEBEB"/>
<path d="M229.474 130.415H145.812V131.338H229.474V130.415Z" fill="#EBEBEB"/>
<path d="M238.963 130.415H231.797V131.338H238.963V130.415Z" fill="#9E78F7"/>
<path d="M267.463 152.298H243.268V153.222H267.463V152.298Z" fill="#EBEBEB"/>
<path d="M276.044 130.415H240.522V131.338H276.044V130.415Z" fill="#A6A6A6"/>
<path d="M141.364 134.788H137.589V135.712H141.364V134.788Z" fill="#EBEBEB"/>
<path d="M177.905 134.788H149.491V135.712H177.905V134.788Z" fill="#A6A6A6"/>
<path d="M241.569 152.298H230.819V153.222H241.569V152.298Z" fill="#A6A6A6"/>
<path d="M172.95 147.919H145.812V148.843H172.95V147.919Z" fill="#A6A6A6"/>
<path d="M168.528 139.167H149.491V140.091H168.528V139.167Z" fill="#9E78F7"/>
<path d="M272.658 143.54H236.592V144.464H272.658V143.54Z" fill="#A6A6A6"/>
<path d="M229.479 165.023H193.413V165.947H229.479V165.023Z" fill="#A6A6A6"/>
<path d="M241.415 139.167H170.644V140.091H241.415V139.167Z" fill="#A6A6A6"/>
<path d="M228.358 152.298H145.812V153.222H228.358V152.298Z" fill="#9E78F7"/>
<path d="M238.168 134.788H179.689V135.712H238.168V134.788Z" fill="#EBEBEB"/>
<path d="M256.681 139.167H244.441V140.091H256.681V139.167Z" fill="#EBEBEB"/>
<path d="M141.364 139.167H137.589V140.091H141.364V139.167Z" fill="#EBEBEB"/>
<path d="M141.364 143.54H137.589V144.464H141.364V143.54Z" fill="#A6A6A6"/>
<path d="M168.118 143.54H145.812V144.464H168.118V143.54Z" fill="#EBEBEB"/>
<path d="M171.796 156.671H149.491V157.595H171.796V156.671Z" fill="#EBEBEB"/>
<path d="M262.598 161.05H231.455V161.974H262.598V161.05Z" fill="#9E78F7"/>
<path d="M229.506 161.05H169.666V161.974H229.506V161.05Z" fill="#EBEBEB"/>
<path d="M166.259 161.05H149.491V161.974H166.259V161.05Z" fill="#A6A6A6"/>
<path d="M238.963 147.919H174.488V148.843H238.963V147.919Z" fill="#EBEBEB"/>
<path d="M278.992 147.919H240.522V148.843H278.992V147.919Z" fill="#9E78F7"/>
<path d="M234.835 143.54H170.387V144.464H234.835V143.54Z" fill="#9E78F7"/>
<path d="M141.364 147.919H137.589V148.843H141.364V147.919Z" fill="#EBEBEB"/>
<path d="M141.364 152.298H137.589V153.222H141.364V152.298Z" fill="#EBEBEB"/>
<path d="M141.364 156.671H137.589V157.595H141.364V156.671Z" fill="#A6A6A6"/>
<path d="M141.364 161.05H137.589V161.974H141.364V161.05Z" fill="#EBEBEB"/>
<path d="M141.364 165.023H137.589V165.947H141.364V165.023Z" fill="#EBEBEB"/>
<path d="M190.065 165.023H145.812V165.947H190.065V165.023Z" fill="#EBEBEB"/>
<path d="M141.364 169.402H137.589V170.326H141.364V169.402Z" fill="#EBEBEB"/>
<path d="M177.905 169.402H149.491V170.326H177.905V169.402Z" fill="#A6A6A6"/>
<path d="M172.95 182.528H145.812V183.451H172.95V182.528Z" fill="#A6A6A6"/>
<path d="M168.528 173.775H149.491V174.699H168.528V173.775Z" fill="#9E78F7"/>
<path d="M212.13 191.285H193.093V192.209H212.13V191.285Z" fill="#9E78F7"/>
<path d="M168.528 200.037H149.491V200.961H168.528V200.037Z" fill="#9E78F7"/>
<path d="M241.415 173.775H170.644V174.699H241.415V173.775Z" fill="#A6A6A6"/>
<path d="M228.358 186.906H145.812V187.83H228.358V186.906Z" fill="#9E78F7"/>
<path d="M238.168 169.402H179.689V170.326H238.168V169.402Z" fill="#EBEBEB"/>
<path d="M250.545 178.154H238.327V179.078H250.545V178.154Z" fill="#EBEBEB"/>
<path d="M141.364 173.775H137.589V174.699H141.364V173.775Z" fill="#EBEBEB"/>
<path d="M141.364 178.154H137.589V179.078H141.364V178.154Z" fill="#A6A6A6"/>
<path d="M168.118 178.154H145.812V179.078H168.118V178.154Z" fill="#EBEBEB"/>
<path d="M238.963 182.528H174.488V183.451H238.963V182.528Z" fill="#EBEBEB"/>
<path d="M234.835 178.154H170.387V179.078H234.835V178.154Z" fill="#9E78F7"/>
<path d="M141.364 182.528H137.589V183.451H141.364V182.528Z" fill="#EBEBEB"/>
<path d="M141.364 191.285H137.589V192.209H141.364V191.285Z" fill="#EBEBEB"/>
<path d="M190.065 191.285H145.812V192.209H190.065V191.285Z" fill="#EBEBEB"/>
<path d="M141.364 195.659H137.589V196.583H141.364V195.659Z" fill="#EBEBEB"/>
<path d="M177.905 195.659H149.491V196.583H177.905V195.659Z" fill="#A6A6A6"/>
<path d="M172.95 208.79H145.812V209.713H172.95V208.79Z" fill="#A6A6A6"/>
<path d="M241.415 200.037H170.644V200.961H241.415V200.037Z" fill="#A6A6A6"/>
<path d="M250.545 204.411H238.327V205.335H250.545V204.411Z" fill="#EBEBEB"/>
<path d="M141.364 200.037H137.589V200.961H141.364V200.037Z" fill="#EBEBEB"/>
<path d="M141.364 204.411H137.589V205.335H141.364V204.411Z" fill="#A6A6A6"/>
<path d="M168.118 204.411H145.812V205.335H168.118V204.411Z" fill="#EBEBEB"/>
<path d="M238.963 208.79H174.488V209.713H238.963V208.79Z" fill="#EBEBEB"/>
<path d="M234.835 204.411H170.387V205.335H234.835V204.411Z" fill="#9E78F7"/>
<path d="M141.364 208.79H137.589V209.713H141.364V208.79Z" fill="#EBEBEB"/>
<path d="M139.917 121.956C139.949 121.986 139.974 122.022 139.991 122.062C140.008 122.102 140.017 122.145 140.017 122.188C140.017 122.232 140.008 122.275 139.991 122.315C139.974 122.355 139.949 122.391 139.917 122.421C139.888 122.451 139.853 122.475 139.815 122.491C139.776 122.508 139.735 122.516 139.693 122.517C139.603 122.517 139.517 122.483 139.453 122.421L137.995 120.947C137.995 120.947 137.995 120.947 137.995 120.915C137.993 120.901 137.993 120.886 137.995 120.872C137.995 120.872 137.995 120.845 137.995 120.84C137.995 120.835 137.995 120.84 137.995 120.813V120.776C137.995 120.776 137.995 120.776 137.995 120.744C137.995 120.712 137.995 120.744 137.995 120.717V120.653C137.995 120.653 137.995 120.626 137.995 120.61C138.003 120.594 138.012 120.578 138.022 120.562C138.022 120.562 138.022 120.562 138.048 120.53L139.506 119.051C139.569 118.991 139.652 118.958 139.738 118.958C139.825 118.958 139.908 118.991 139.971 119.051C140.002 119.081 140.027 119.117 140.044 119.157C140.062 119.197 140.07 119.24 140.07 119.283C140.07 119.327 140.062 119.37 140.044 119.41C140.027 119.45 140.002 119.486 139.971 119.516L138.742 120.755L139.917 121.956Z" fill="#9E78F7"/>
<path d="M141.235 122.122L142.506 119.104C142.521 119.069 142.542 119.037 142.569 119.011C142.596 118.984 142.628 118.962 142.664 118.948C142.699 118.934 142.737 118.926 142.775 118.927C142.813 118.927 142.85 118.935 142.885 118.95C142.919 118.964 142.95 118.985 142.975 119.012C143.001 119.038 143.021 119.069 143.035 119.104C143.048 119.138 143.055 119.175 143.054 119.211C143.053 119.248 143.045 119.284 143.03 119.318L141.759 122.346C141.737 122.397 141.7 122.44 141.654 122.471C141.607 122.501 141.553 122.517 141.497 122.517C141.462 122.524 141.425 122.524 141.39 122.517C141.352 122.503 141.318 122.481 141.289 122.453C141.261 122.425 141.238 122.391 141.224 122.354C141.209 122.317 141.202 122.277 141.204 122.237C141.206 122.196 141.217 122.157 141.235 122.122Z" fill="#9E78F7"/>
<path d="M145.535 120.904C145.535 120.904 145.535 120.931 145.503 120.941L144.045 122.415C144.014 122.446 143.977 122.47 143.937 122.487C143.897 122.503 143.853 122.512 143.81 122.511C143.746 122.51 143.683 122.489 143.63 122.453C143.578 122.416 143.537 122.365 143.512 122.306C143.488 122.246 143.481 122.181 143.493 122.118C143.505 122.055 143.536 121.997 143.58 121.951L144.808 120.712L143.58 119.473C143.549 119.443 143.524 119.407 143.506 119.367C143.489 119.327 143.48 119.284 143.48 119.241C143.48 119.197 143.489 119.154 143.506 119.114C143.524 119.074 143.549 119.038 143.58 119.008C143.643 118.949 143.726 118.915 143.812 118.915C143.899 118.915 143.982 118.949 144.045 119.008L145.503 120.488C145.503 120.488 145.503 120.488 145.535 120.52C145.544 120.535 145.553 120.551 145.561 120.568C145.56 120.584 145.56 120.6 145.561 120.616V120.648C145.561 120.648 145.561 120.648 145.561 120.674V120.744C145.561 120.76 145.561 120.776 145.561 120.792L145.535 120.904Z" fill="#9E78F7"/>
<path d="M76.921 122.519H49.6924V86.9547H70.2193L76.921 93.6564V122.519Z" fill="#9E78F7"/>
<path opacity="0.6" d="M76.921 122.519H49.6924V86.9547H70.2193L76.921 93.6564V122.519Z" fill="white"/>
<path d="M76.9205 93.6564H70.2188V86.9547L76.9205 93.6564Z" fill="#9E78F7"/>
<path d="M55.9883 99.4877C55.9894 99.889 56.1094 100.281 56.3333 100.614C56.5571 100.947 56.8747 101.206 57.2459 101.359C57.6171 101.512 58.0252 101.551 58.4186 101.471C58.812 101.392 59.1731 101.198 59.4561 100.913C59.7392 100.629 59.9315 100.267 60.0087 99.873C60.086 99.4791 60.0447 99.0712 59.8902 98.7009C59.7356 98.3305 59.4747 98.0142 59.1404 97.7921C58.8061 97.5701 58.4135 97.4521 58.0122 97.4531C57.7455 97.4531 57.4814 97.5058 57.2352 97.6082C56.989 97.7106 56.7654 97.8606 56.5773 98.0497C56.3892 98.2387 56.2404 98.4631 56.1393 98.7099C56.0382 98.9567 55.9869 99.221 55.9883 99.4877Z" fill="#9E78F7"/>
<path d="M59.1172 108.507H72.889L66.0058 100.102L59.1172 108.507Z" fill="#9E78F7"/>
<path d="M53.7188 108.507H65.0876L59.4058 103.033L53.7188 108.507Z" fill="#9E78F7"/>
<path opacity="0.1" d="M53.7188 108.507H65.0876L59.4058 103.033L53.7188 108.507Z" fill="black"/>
<path d="M72.884 95.0555H53.7188V108.507H72.884V95.0555Z" stroke="#9E78F7" stroke-width="2" stroke-miterlimit="10"/>
<path d="M62.6366 109.959H43.0762V118.055H62.6366V109.959Z" fill="#455A64"/>
<path d="M48.8221 112.165V116.09H48.0638V114.413H46.2802V116.09H45.5166V112.165H46.2802V113.767H48.0638V112.165H48.8221Z" fill="white"/>
<path d="M52.5704 112.832H51.3155V116.09H50.5625V112.832H49.3076V112.165H52.5704V112.832Z" fill="white"/>
<path d="M56.2607 116.09V113.489L55.2461 115.428H54.8349L53.8257 113.489V116.09H53.0674V112.165H53.8844L55.0432 114.397L56.218 112.165H57.0297V116.09H56.2607Z" fill="white"/>
<path d="M57.8408 116.09V112.165H58.6311V115.422H60.6336V116.09H57.8408Z" fill="white"/>
<path d="M76.9209 165.72H49.6602V130.118H70.2138L76.9209 136.825V165.72Z" fill="#9E78F7"/>
<path opacity="0.6" d="M76.9209 165.72H49.6602V130.118H70.2138L76.9209 136.825V165.72Z" fill="white"/>
<path d="M76.9209 136.825H70.2139V130.118L76.9209 136.825Z" fill="#9E78F7"/>
<path d="M55.9609 142.662C55.962 143.064 56.0824 143.457 56.3068 143.791C56.5312 144.125 56.8497 144.385 57.2218 144.538C57.594 144.691 58.0032 144.73 58.3976 144.651C58.7921 144.571 59.1541 144.376 59.4379 144.091C59.7217 143.806 59.9145 143.443 59.992 143.048C60.0694 142.653 60.0281 142.244 59.8731 141.873C59.7181 141.501 59.4565 141.184 59.1214 140.962C58.7862 140.739 58.3925 140.621 57.9901 140.622C57.451 140.625 56.9349 140.841 56.5546 141.223C56.1744 141.605 55.9609 142.122 55.9609 142.662Z" fill="#9E78F7"/>
<path d="M59.1016 151.691H72.8841L65.9902 143.276L59.1016 151.691Z" fill="#9E78F7"/>
<path d="M53.6973 151.691H65.0768L59.3844 146.213L53.6973 151.691Z" fill="#9E78F7"/>
<path opacity="0.1" d="M53.6973 151.691H65.0768L59.3844 146.213L53.6973 151.691Z" fill="black"/>
<path d="M72.8839 138.229H53.6973V151.692H72.8839V138.229Z" stroke="#9E78F7" stroke-width="2" stroke-miterlimit="10"/>
<path d="M62.6204 153.144H43.0439V161.245H62.6204V153.144Z" fill="#455A64"/>
<path d="M47.6684 157.288C47.6689 157.045 47.7122 156.805 47.7965 156.578C47.8818 156.345 48.0104 156.132 48.1757 155.948C48.3482 155.761 48.5548 155.608 48.7844 155.499C49.0408 155.383 49.3198 155.324 49.6014 155.328C49.931 155.319 50.2565 155.402 50.5413 155.568C50.7922 155.715 50.996 155.93 51.1287 156.188L50.5413 156.594C50.4581 156.396 50.309 156.234 50.1194 156.134C50.0356 156.088 49.9457 156.054 49.8524 156.033C49.7626 156.016 49.6715 156.007 49.5801 156.006C49.4061 156.002 49.2338 156.041 49.0781 156.118C48.9421 156.196 48.8224 156.299 48.7257 156.423C48.6285 156.549 48.556 156.692 48.5121 156.845C48.4126 157.159 48.4126 157.497 48.5121 157.811C48.5643 157.965 48.6439 158.108 48.747 158.233C48.8485 158.355 48.9739 158.455 49.1155 158.527C49.2585 158.602 49.4183 158.641 49.5801 158.639C49.6735 158.638 49.7667 158.628 49.8578 158.607C49.9533 158.585 50.045 158.549 50.1301 158.5C50.2213 158.453 50.3028 158.39 50.3704 158.313C50.447 158.234 50.5085 158.142 50.552 158.041L51.1767 158.399C51.1136 158.546 51.0209 158.678 50.9044 158.788C50.7898 158.904 50.6584 159.001 50.5146 159.077C50.365 159.153 50.2074 159.212 50.0447 159.253C49.8858 159.293 49.7225 159.313 49.5587 159.312C49.2921 159.314 49.0286 159.254 48.7898 159.135C48.5635 159.021 48.3607 158.865 48.1917 158.676C48.022 158.485 47.8881 158.264 47.7965 158.025C47.7069 157.79 47.6634 157.539 47.6684 157.288Z" fill="white"/>
<path d="M54.0391 156.38C53.9969 156.339 53.9503 156.304 53.9002 156.273C53.7238 156.168 53.5332 156.089 53.3342 156.038C53.2192 156.008 53.1006 155.994 52.9817 155.996C52.8173 155.984 52.6534 156.024 52.5118 156.108C52.4613 156.146 52.4208 156.197 52.3938 156.254C52.3668 156.312 52.3542 156.375 52.357 156.439C52.355 156.509 52.3756 156.579 52.4157 156.636C52.4628 156.695 52.5208 156.744 52.5866 156.781C52.6756 156.825 52.7686 156.861 52.8643 156.887C52.9764 156.925 53.1099 156.957 53.2541 156.994C53.3983 157.032 53.6225 157.101 53.7881 157.16C53.9332 157.211 54.0686 157.287 54.1886 157.384C54.295 157.469 54.3809 157.576 54.4396 157.699C54.5034 157.844 54.5344 158 54.5303 158.158C54.5337 158.344 54.4916 158.527 54.4075 158.692C54.3299 158.836 54.2203 158.961 54.0871 159.055C53.9458 159.151 53.7884 159.219 53.6225 159.258C53.447 159.296 53.2681 159.316 53.0885 159.317C52.792 159.317 52.497 159.274 52.2128 159.189C51.9358 159.105 51.6743 158.977 51.4385 158.81L51.7749 158.153C51.8323 158.2 51.893 158.243 51.9565 158.281C52.1751 158.412 52.4104 158.513 52.656 158.58C52.8009 158.617 52.9498 158.635 53.0992 158.634C53.5211 158.634 53.7293 158.5 53.7293 158.228C53.7327 158.15 53.7081 158.075 53.6599 158.014C53.6029 157.948 53.5318 157.895 53.4517 157.859C53.3487 157.809 53.2415 157.768 53.1313 157.736L52.7094 157.614C52.5435 157.571 52.3811 157.515 52.2235 157.448C52.0968 157.394 51.9796 157.32 51.8764 157.229C51.7862 157.15 51.715 157.051 51.6681 156.941C51.6209 156.816 51.5973 156.684 51.5987 156.551C51.5946 156.367 51.633 156.184 51.7108 156.017C51.7829 155.867 51.8867 155.734 52.0152 155.627C52.1528 155.522 52.3084 155.442 52.4744 155.392C52.6476 155.34 52.8275 155.313 53.0084 155.312C53.269 155.31 53.5278 155.355 53.7721 155.446C53.9801 155.535 54.1773 155.648 54.3595 155.782L54.0391 156.38Z" fill="white"/>
<path d="M57.435 156.38C57.3896 156.341 57.3414 156.305 57.2908 156.273C57.1159 156.165 56.9248 156.086 56.7248 156.038C56.6116 156.008 56.4948 155.994 56.3777 155.996C56.2132 155.983 56.0489 156.022 55.9078 156.108C55.8565 156.146 55.8155 156.196 55.7885 156.254C55.7615 156.312 55.7492 156.375 55.7529 156.439C55.7494 156.509 55.7681 156.578 55.8063 156.636C55.8534 156.695 55.9115 156.744 55.9772 156.781C56.0662 156.825 56.1592 156.86 56.2549 156.887C56.367 156.925 56.5005 156.957 56.6447 156.994C56.7889 157.032 57.0132 157.101 57.1787 157.16C57.3244 157.21 57.46 157.286 57.5792 157.384C57.6857 157.469 57.7715 157.576 57.8302 157.699C57.894 157.844 57.925 158 57.921 158.158C57.9244 158.344 57.8822 158.527 57.7981 158.692C57.7245 158.839 57.6141 158.964 57.4777 159.055C57.3364 159.151 57.179 159.219 57.0132 159.258C56.8377 159.296 56.6587 159.316 56.4792 159.317C56.1826 159.317 55.8876 159.274 55.6034 159.189C55.327 159.104 55.0657 158.976 54.8291 158.81L55.1709 158.153C55.2251 158.202 55.2841 158.245 55.3471 158.281C55.4474 158.34 55.5508 158.393 55.6568 158.441C55.7825 158.499 55.9129 158.545 56.0466 158.58C56.1915 158.617 56.3404 158.635 56.4898 158.634C56.9117 158.634 57.12 158.5 57.12 158.228C57.1234 158.15 57.0987 158.075 57.0505 158.014C56.9944 157.949 56.9253 157.896 56.8476 157.859C56.7424 157.81 56.6335 157.769 56.5219 157.736L56.1054 157.614C55.9375 157.571 55.7732 157.516 55.6141 157.448C55.4874 157.394 55.3702 157.32 55.267 157.229C55.1768 157.15 55.1057 157.051 55.0587 156.941C55.0115 156.816 54.9879 156.684 54.9893 156.551C54.9852 156.367 55.0236 156.184 55.1014 156.017C55.1737 155.865 55.2796 155.732 55.4112 155.627C55.5469 155.522 55.7007 155.442 55.8651 155.392C56.0384 155.34 56.2182 155.314 56.3991 155.312C56.6597 155.309 56.9187 155.354 57.1627 155.446C57.3767 155.523 57.581 155.625 57.7714 155.75L57.435 156.38Z" fill="white"/>
<path d="M359.322 35.0427H157.08V163.096H359.322V35.0427Z" fill="white"/>
<path d="M359.386 163.16H157V35H359.386V163.16ZM157.144 163.027H359.252V35.1068H157.144V163.027Z" fill="#263238"/>
<path d="M359.322 35.0427H157.08V39.9715H359.322V35.0427Z" fill="#9E78F7"/>
<path d="M161.716 37.5045C161.717 37.6907 161.662 37.8729 161.559 38.0278C161.455 38.1827 161.308 38.3032 161.136 38.3739C160.964 38.4446 160.774 38.4623 160.592 38.4246C160.41 38.387 160.243 38.2957 160.113 38.1625C159.983 38.0293 159.895 37.8604 159.862 37.6772C159.828 37.4941 159.85 37.3051 159.925 37.1346C160 36.964 160.124 36.8197 160.281 36.72C160.438 36.6204 160.622 36.57 160.808 36.5753C161.051 36.5809 161.281 36.6813 161.451 36.8549C161.621 37.0286 161.716 37.2617 161.716 37.5045Z" fill="#C7C7C7"/>
<path d="M165.522 37.5045C165.523 37.6898 165.469 37.8712 165.367 38.0257C165.265 38.1802 165.119 38.3008 164.948 38.3722C164.777 38.4436 164.589 38.4625 164.407 38.4266C164.225 38.3907 164.058 38.3016 163.927 38.1706C163.796 38.0396 163.707 37.8726 163.671 37.6908C163.635 37.5091 163.654 37.3207 163.725 37.1497C163.797 36.9788 163.917 36.8329 164.072 36.7306C164.226 36.6283 164.408 36.5743 164.593 36.5753C164.84 36.5753 165.076 36.6732 165.25 36.8475C165.424 37.0217 165.522 37.2581 165.522 37.5045Z" fill="white"/>
<path d="M169.351 37.5045C169.352 37.6898 169.298 37.8712 169.196 38.0257C169.094 38.1802 168.948 38.3008 168.777 38.3722C168.606 38.4436 168.418 38.4625 168.236 38.4266C168.054 38.3907 167.887 38.3016 167.756 38.1706C167.625 38.0396 167.536 37.8726 167.5 37.6908C167.464 37.5091 167.483 37.3207 167.555 37.1497C167.626 36.9788 167.747 36.8329 167.901 36.7306C168.056 36.6283 168.237 36.5743 168.422 36.5753C168.669 36.5753 168.905 36.6732 169.079 36.8475C169.254 37.0217 169.351 37.2581 169.351 37.5045Z" fill="#455A64"/>
<path d="M177.783 39.9662H162.831V106.39H177.783V39.9662Z" fill="#EBEBEB"/>
<path d="M346.779 48.1577H169.624V64.2471H346.779V48.1577Z" fill="#9E78F7"/>
<path d="M181.863 54.3842H177.783V55.0463H181.863V54.3842Z" fill="white"/>
<path d="M181.863 57.3585H177.783V58.0207H181.863V57.3585Z" fill="white"/>
<path d="M181.863 55.8901H177.783V56.5523H181.863V55.8901Z" fill="white"/>
<path d="M230.26 53.7861H190.989V58.6242H230.26V53.7861Z" fill="white"/>
<path d="M230.308 58.6615H190.941V53.722H230.308V58.6615Z" fill="white"/>
<path d="M230.308 53.7327H225.368V58.6722H230.308V53.7327Z" fill="#455A64"/>
<path d="M229.373 57.5615L228.925 57.898L228.097 56.83L227.798 56.4295C227.859 56.4029 227.916 56.3688 227.969 56.328C228.07 56.2521 228.149 56.1508 228.198 56.0343L228.519 56.4562L229.373 57.5615Z" fill="white"/>
<path d="M228.492 54.9877C228.35 54.8042 228.159 54.6649 227.94 54.5864C227.722 54.5078 227.486 54.4932 227.26 54.5443C227.034 54.5953 226.827 54.7099 226.664 54.8746C226.5 55.0392 226.387 55.2471 226.338 55.4737C226.289 55.7003 226.306 55.9363 226.386 56.1538C226.466 56.3713 226.607 56.5614 226.792 56.7016C226.977 56.8419 227.197 56.9264 227.429 56.9454C227.66 56.9643 227.891 56.9169 228.096 56.8086C228.157 56.7763 228.214 56.7388 228.267 56.6965C228.364 56.6229 228.449 56.5346 228.518 56.4348C228.67 56.2228 228.749 55.9675 228.745 55.7068C228.74 55.4461 228.651 55.1939 228.492 54.9877ZM227.958 56.3067C227.905 56.3474 227.848 56.3815 227.787 56.4081C227.623 56.4733 227.441 56.477 227.274 56.4184C227.107 56.3599 226.968 56.243 226.88 56.0895C226.793 55.9359 226.765 55.756 226.8 55.583C226.835 55.4099 226.931 55.2554 227.071 55.1479C227.198 55.0513 227.352 54.9987 227.512 54.998C227.671 54.9973 227.826 55.0485 227.953 55.1439C228.081 55.2394 228.174 55.3738 228.218 55.5268C228.262 55.6797 228.255 55.8429 228.198 55.9916C228.152 56.1158 228.073 56.2249 227.968 56.3067H227.958Z" fill="white"/>
<path d="M192.265 54.7367H192.004V57.6737H192.265V54.7367Z" fill="#C7C7C7"/>
<path d="M338.592 55.4683H321.621V56.9421H338.592V55.4683Z" fill="white"/>
<path d="M312.549 55.4683H295.578V56.9421H312.549V55.4683Z" fill="white"/>
<path opacity="0.1" d="M286.506 55.4683H269.535V56.9421H286.506V55.4683Z" fill="black"/>
<path d="M260.463 55.4683H243.492V56.9421H260.463V55.4683Z" fill="white"/>
<path d="M359.322 114.379H157.08V130.469H359.322V114.379Z" fill="#9E78F7"/>
<path d="M208.766 138.067H169.624V139.878H208.766V138.067Z" fill="#455A64"/>
<path d="M169.624 144.272L175.904 144.176L182.184 144.118L194.743 144.069L207.303 144.118L213.583 144.171L219.863 144.272L213.583 144.368L207.303 144.427L194.743 144.47L182.184 144.427L175.904 144.368L169.624 144.272Z" fill="#A6A6A6"/>
<path d="M169.624 146.739L175.904 146.643L182.184 146.59L194.743 146.542L207.303 146.585L213.583 146.643L219.863 146.739L213.583 146.841L207.303 146.894L194.743 146.942L182.184 146.894L175.904 146.841L169.624 146.739Z" fill="#A6A6A6"/>
<path d="M169.624 149.212L175.904 149.116L182.184 149.057L194.743 149.009L207.303 149.057L213.583 149.116L219.863 149.212L213.583 149.308L207.303 149.367L194.743 149.41L182.184 149.367L175.904 149.308L169.624 149.212Z" fill="#A6A6A6"/>
<path d="M169.624 151.679L175.904 151.583L182.184 151.53L194.743 151.481L207.303 151.53L213.583 151.583L219.863 151.679L213.583 151.78L207.303 151.834L194.743 151.882L182.184 151.834L175.904 151.78L169.624 151.679Z" fill="#A6A6A6"/>
<path d="M169.624 154.151C171.717 154.071 173.811 154.029 175.904 153.997L182.184 153.954L188.464 153.997C190.557 154.029 192.65 154.066 194.743 154.151C192.65 154.237 190.557 154.274 188.464 154.306L182.168 154.354L175.888 154.306C173.811 154.274 171.717 154.248 169.624 154.151Z" fill="#A6A6A6"/>
<path d="M272.221 138.067H233.079V139.878H272.221V138.067Z" fill="#455A64"/>
<path d="M233.079 144.272L239.359 144.176L245.639 144.118L258.198 144.069L270.758 144.118L277.038 144.171L283.318 144.272L277.038 144.368L270.758 144.427L258.198 144.47L245.639 144.427L239.359 144.368L233.079 144.272Z" fill="#A6A6A6"/>
<path d="M233.079 146.739L239.359 146.643L245.639 146.59L258.198 146.542L270.758 146.585L277.038 146.643L283.318 146.739L277.038 146.841L270.758 146.894L258.198 146.942L245.639 146.894L239.359 146.841L233.079 146.739Z" fill="#A6A6A6"/>
<path d="M233.079 149.212L239.359 149.116L245.639 149.057L258.198 149.009L270.758 149.057L277.038 149.116L283.318 149.212L277.038 149.308L270.758 149.367L258.198 149.41L245.639 149.367L239.359 149.308L233.079 149.212Z" fill="#A6A6A6"/>
<path d="M233.079 151.679L239.359 151.583L245.639 151.53L258.198 151.481L270.758 151.53L277.038 151.583L283.318 151.679L277.038 151.78L270.758 151.834L258.198 151.882L245.639 151.834L239.359 151.78L233.079 151.679Z" fill="#A6A6A6"/>
<path d="M233.079 154.151C235.172 154.071 237.266 154.029 239.359 153.997L245.639 153.954L251.919 153.997C254.012 154.029 256.105 154.066 258.198 154.151C256.105 154.237 254.012 154.274 251.919 154.306L245.639 154.354L239.359 154.306C237.266 154.274 235.172 154.248 233.079 154.151Z" fill="#A6A6A6"/>
<path d="M335.676 138.067H296.534V139.878H335.676V138.067Z" fill="#455A64"/>
<path d="M296.534 144.272L302.814 144.176L309.094 144.118L321.654 144.069L334.219 144.118L340.498 144.171L346.778 144.272L340.498 144.368L334.219 144.427L321.654 144.47L309.094 144.427L302.814 144.368L296.534 144.272Z" fill="#A6A6A6"/>
<path d="M296.534 146.739L302.814 146.643L309.094 146.59L321.654 146.542L334.219 146.585L340.498 146.643L346.778 146.739L340.498 146.841L334.219 146.894L321.654 146.942L309.094 146.894L302.814 146.841L296.534 146.739Z" fill="#A6A6A6"/>
<path d="M296.534 149.212L302.814 149.116L309.094 149.057L321.654 149.009L334.219 149.057L340.498 149.116L346.778 149.212L340.498 149.308L334.219 149.367L321.654 149.41L309.094 149.367L302.814 149.308L296.534 149.212Z" fill="#A6A6A6"/>
<path d="M296.534 151.679L302.814 151.583L309.094 151.53L321.654 151.481L334.219 151.53L340.498 151.583L346.778 151.679L340.498 151.78L334.219 151.834L321.654 151.882L309.094 151.834L302.814 151.78L296.534 151.679Z" fill="#A6A6A6"/>
<path d="M296.534 154.151C298.627 154.071 300.721 154.029 302.814 153.997L309.094 153.954L315.374 153.997C317.467 154.029 319.56 154.066 321.654 154.151C319.56 154.237 317.467 154.274 315.374 154.306L309.094 154.354L302.814 154.306C300.715 154.274 298.627 154.248 296.534 154.151Z" fill="#A6A6A6"/>
<path d="M191.897 108.404H226.126V74.1743H191.897V108.404Z" fill="#EBEBEB"/>
<path d="M193.91 106.391H224.113V76.1875H193.91V106.391Z" fill="#455A64"/>
<path d="M198.775 83.391C198.655 83.9911 198.731 84.6139 198.993 85.1673C199.254 85.7207 199.686 86.1754 200.226 86.4641C200.766 86.7528 201.384 86.8603 201.989 86.7706C202.594 86.681 203.155 86.3989 203.588 85.9662C204.02 85.5335 204.302 84.973 204.392 84.3676C204.482 83.7622 204.374 83.1441 204.086 82.6045C203.797 82.0649 203.342 81.6325 202.789 81.3712C202.235 81.11 201.613 81.0336 201.012 81.1536C200.46 81.2639 199.953 81.5353 199.555 81.9335C199.157 82.3317 198.885 82.8388 198.775 83.391Z" fill="#37474F"/>
<path d="M202.283 98.5513H224.113L213.198 86.312L202.283 98.5513Z" fill="#37474F"/>
<path d="M193.91 98.5514H211.933L202.919 90.5787L193.91 98.5514Z" fill="#263238"/>
<path d="M224.113 98.5514H193.91V106.391H224.113V98.5514Z" fill="#263238"/>
<path d="M290.275 108.404H324.505V74.1743H290.275V108.404Z" fill="#EBEBEB"/>
<path d="M292.289 106.391H322.492V76.1875H292.289V106.391Z" fill="#455A64"/>
<path d="M297.154 83.3911C297.035 83.9899 297.112 84.6111 297.373 85.163C297.634 85.7148 298.066 86.168 298.605 86.4557C299.143 86.7434 299.76 86.8504 300.364 86.7607C300.968 86.6711 301.527 86.3896 301.958 85.9579C302.39 85.5262 302.672 84.9671 302.761 84.3632C302.851 83.7593 302.744 83.1426 302.456 82.6041C302.168 82.0656 301.715 81.6339 301.163 81.3727C300.612 81.1115 299.99 81.0347 299.392 81.1536C298.839 81.2633 298.332 81.5345 297.933 81.9328C297.535 82.3311 297.264 82.8386 297.154 83.3911Z" fill="#37474F"/>
<path d="M300.662 98.5513H322.492L311.577 86.312L300.662 98.5513Z" fill="#37474F"/>
<path d="M292.283 98.5514H310.306L301.297 90.5787L292.283 98.5514Z" fill="#263238"/>
<path d="M322.486 98.5514H292.283V106.391H322.486V98.5514Z" fill="#263238"/>
<path d="M241.079 108.404H275.313V74.1743H241.079V108.404Z" fill="#EBEBEB"/>
<path d="M243.097 106.391H273.3V76.1875H243.097V106.391Z" fill="#9E78F7"/>
<path opacity="0.1" d="M247.962 83.391C247.842 83.9911 247.918 84.6139 248.179 85.1673C248.44 85.7207 248.873 86.1754 249.412 86.4641C249.952 86.7528 250.57 86.8603 251.176 86.7706C251.781 86.681 252.341 86.3989 252.774 85.9662C253.207 85.5335 253.489 84.973 253.579 84.3676C253.668 83.7622 253.561 83.1441 253.272 82.6045C252.983 82.0649 252.529 81.6325 251.975 81.3712C251.422 81.11 250.799 81.0336 250.199 81.1536C249.647 81.2639 249.14 81.5353 248.741 81.9335C248.343 82.3317 248.072 82.8388 247.962 83.391Z" fill="black"/>
<path opacity="0.1" d="M251.47 98.5513H273.3L262.385 86.312L251.47 98.5513Z" fill="black"/>
<path d="M243.097 98.5514H261.119L252.111 90.5787L243.097 98.5514Z" fill="#9E78F7"/>
<g opacity="0.2">
<path d="M243.097 98.5514H261.119L252.111 90.5787L243.097 98.5514Z" fill="black"/>
</g>
<path d="M273.3 98.5514H243.097V106.391H273.3V98.5514Z" fill="#9E78F7"/>
<path opacity="0.2" d="M273.3 98.5514H243.097V106.391H273.3V98.5514Z" fill="black"/>
<path d="M193.91 118.721L202.267 118.624L210.624 118.566L227.344 118.518L244.058 118.566L252.415 118.619L260.778 118.721L252.415 118.817L244.058 118.875L227.344 118.918L210.624 118.875L202.267 118.817L193.91 118.721Z" fill="white"/>
<path d="M193.91 121.188L202.267 121.091L210.624 121.038L227.344 120.99L244.058 121.038L252.415 121.091L260.778 121.188L252.415 121.289L244.058 121.342L227.344 121.39L210.624 121.342L202.267 121.289L193.91 121.188Z" fill="white"/>
<path d="M193.91 123.66L202.267 123.564L210.624 123.505L227.344 123.462L244.058 123.505L252.415 123.564L260.778 123.66L252.415 123.756L244.058 123.815L227.344 123.858L210.624 123.815L202.267 123.756L193.91 123.66Z" fill="white"/>
<path d="M193.915 126.132C196.697 126.047 199.485 126.01 202.272 125.978L210.629 125.93L218.986 125.978C221.774 126.01 224.561 126.047 227.349 126.132C224.561 126.213 221.774 126.25 218.986 126.282L210.629 126.33L202.272 126.282C199.479 126.25 196.692 126.213 193.915 126.132Z" fill="white"/>
<path d="M172.064 124.878V119.975L169.683 122.25L172.064 124.878Z" fill="white"/>
<path d="M344.461 119.975V124.878L346.843 122.603L344.461 119.975Z" fill="white"/>
<path d="M105.164 48.7347C105.164 51.555 106.001 54.3119 107.568 56.6567C109.135 59.0016 111.362 60.8291 113.968 61.908C116.573 62.987 119.44 63.2689 122.206 62.7181C124.972 62.1674 127.513 60.8087 129.507 58.814C131.5 56.8192 132.858 54.278 133.407 51.5118C133.956 48.7455 133.673 45.8785 132.593 43.2733C131.512 40.6682 129.684 38.4419 127.338 36.8761C124.992 35.3103 122.235 34.4753 119.415 34.4767C115.636 34.4826 112.013 35.9868 109.342 38.6597C106.671 41.3325 105.168 44.9557 105.164 48.7347ZM108.199 48.7347C108.198 46.5143 108.855 44.3435 110.087 42.4967C111.32 40.65 113.073 39.2103 115.124 38.36C117.175 37.5096 119.432 37.2867 121.61 37.7196C123.788 38.1524 125.788 39.2214 127.358 40.7914C128.928 42.3615 129.997 44.3619 130.43 46.5396C130.863 48.7174 130.64 50.9746 129.79 53.0256C128.939 55.0767 127.5 56.8294 125.653 58.0621C123.806 59.2947 121.635 59.9519 119.415 59.9505C116.44 59.9505 113.587 58.7688 111.484 56.6654C109.381 54.5621 108.199 51.7093 108.199 48.7347ZM105.164 48.7347C105.164 51.555 106.001 54.3119 107.568 56.6567C109.135 59.0016 111.362 60.8291 113.968 61.908C116.573 62.987 119.44 63.2689 122.206 62.7181C124.972 62.1674 127.513 60.8087 129.507 58.814C131.5 56.8192 132.858 54.278 133.407 51.5118C133.956 48.7455 133.673 45.8785 132.593 43.2733C131.512 40.6682 129.684 38.4419 127.338 36.8761C124.992 35.3103 122.235 34.4753 119.415 34.4767C115.636 34.4826 112.013 35.9868 109.342 38.6597C106.671 41.3325 105.168 44.9557 105.164 48.7347ZM108.199 48.7347C108.198 46.5143 108.855 44.3435 110.087 42.4967C111.32 40.65 113.073 39.2103 115.124 38.36C117.175 37.5096 119.432 37.2867 121.61 37.7196C123.788 38.1524 125.788 39.2214 127.358 40.7914C128.928 42.3615 129.997 44.3619 130.43 46.5396C130.863 48.7174 130.64 50.9746 129.79 53.0256C128.939 55.0767 127.5 56.8294 125.653 58.0621C123.806 59.2947 121.635 59.9519 119.415 59.9505C116.44 59.9505 113.587 58.7688 111.484 56.6654C109.381 54.5621 108.199 51.7093 108.199 48.7347ZM95.3926 48.7347C95.394 53.4873 96.8048 58.1327 99.4464 62.0836C102.088 66.0344 105.842 69.1132 110.233 70.9306C114.625 72.748 119.456 73.2224 124.117 72.2938C128.778 71.3652 133.059 69.0753 136.419 65.7137C139.778 62.352 142.066 58.0697 142.991 53.4081C143.917 48.7465 143.44 43.9151 141.62 39.5249C139.8 35.1346 136.719 31.3826 132.766 28.7434C128.814 26.1042 124.167 24.6963 119.415 24.6978C116.259 24.6978 113.134 25.3196 110.219 26.5277C107.303 27.7359 104.654 29.5067 102.423 31.7389C100.192 33.9711 98.4233 36.6211 97.217 39.5373C96.0106 42.4535 95.3907 45.5788 95.3926 48.7347ZM103.801 48.7347C103.801 45.6447 104.717 42.6242 106.434 40.0551C108.151 37.486 110.591 35.4838 113.446 34.3017C116.301 33.1195 119.442 32.8106 122.472 33.4139C125.503 34.0173 128.286 35.5058 130.471 37.6913C132.655 39.8767 134.142 42.6608 134.744 45.6916C135.346 48.7223 135.036 51.8635 133.852 54.7178C132.669 57.5722 130.666 60.0114 128.096 61.727C125.526 63.4426 122.505 64.3576 119.415 64.3561C115.275 64.3484 111.307 62.6998 108.38 59.7717C105.453 56.8436 103.807 52.8747 103.801 48.7347ZM105.164 48.7347C105.164 51.555 106.001 54.3119 107.568 56.6567C109.135 59.0016 111.362 60.8291 113.968 61.908C116.573 62.987 119.44 63.2689 122.206 62.7181C124.972 62.1674 127.513 60.8087 129.507 58.814C131.5 56.8192 132.858 54.278 133.407 51.5118C133.956 48.7455 133.673 45.8785 132.593 43.2733C131.512 40.6682 129.684 38.4419 127.338 36.8761C124.992 35.3103 122.235 34.4753 119.415 34.4767C115.636 34.4826 112.013 35.9868 109.342 38.6597C106.671 41.3325 105.168 44.9557 105.164 48.7347ZM108.199 48.7347C108.198 46.5143 108.855 44.3435 110.087 42.4967C111.32 40.65 113.073 39.2103 115.124 38.36C117.175 37.5096 119.432 37.2867 121.61 37.7196C123.788 38.1524 125.788 39.2214 127.358 40.7914C128.928 42.3615 129.997 44.3619 130.43 46.5396C130.863 48.7174 130.64 50.9746 129.79 53.0256C128.939 55.0767 127.5 56.8294 125.653 58.0621C123.806 59.2947 121.635 59.9519 119.415 59.9505C116.44 59.9505 113.587 58.7688 111.484 56.6654C109.381 54.5621 108.199 51.7093 108.199 48.7347Z" fill="#9E78F7"/>
<path d="M116.601 25.1377H122.099L121.549 19.6471H117.143L116.601 25.1377Z" fill="#9E78F7"/>
<path d="M128.776 26.8896L133.541 29.6386L135.806 24.6098L131.994 22.4033L128.776 26.8896Z" fill="#9E78F7"/>
<path d="M138.445 34.4915L141.194 39.2563L145.673 36.0309L143.474 32.219L138.445 34.4915Z" fill="#9E78F7"/>
<path d="M143.012 45.905V51.4103L148.502 50.8605V46.4548L143.012 45.905Z" fill="#9E78F7"/>
<path d="M141.268 58.0812L138.512 62.846L143.54 65.1185L145.747 61.3066L141.268 58.0812Z" fill="#9E78F7"/>
<path d="M133.659 67.7501L128.895 70.5064L132.12 74.9854L135.932 72.7789L133.659 67.7501Z" fill="#9E78F7"/>
<path d="M122.245 72.3245H116.74L117.29 77.8151H121.696L122.245 72.3245Z" fill="#9E78F7"/>
<path d="M110.069 70.5726L105.304 67.8236L103.031 72.8524L106.85 75.0589L110.069 70.5726Z" fill="#9E78F7"/>
<path d="M100.4 62.9707L97.644 58.2058L93.165 61.4239L95.3715 65.2432L100.4 62.9707Z" fill="#9E78F7"/>
<path d="M95.8255 51.5496V46.0516L90.335 46.6014V51.0071L95.8255 51.5496Z" fill="#9E78F7"/>
<path d="M97.5771 39.381L100.326 34.6161L95.2973 32.3436L93.0908 36.1555L97.5771 39.381Z" fill="#9E78F7"/>
<path d="M105.179 29.7045L109.944 26.9555L106.725 22.4766L102.906 24.6757L105.179 29.7045Z" fill="#9E78F7"/>
<path d="M59.4512 26.9043C59.3782 29.6699 60.1269 32.395 61.6028 34.7349C63.0787 37.0749 65.2153 38.9247 67.7425 40.0502C70.2697 41.1758 73.074 41.5266 75.8006 41.0583C78.5272 40.59 81.0537 39.3236 83.0605 37.4193C85.0673 35.5151 86.4644 33.0584 87.0749 30.3601C87.6854 27.6618 87.482 24.843 86.4905 22.2603C85.4989 19.6776 83.7636 17.4469 81.5042 15.8504C79.2448 14.254 76.5627 13.3634 73.7971 13.2914C71.9611 13.2427 70.1335 13.5561 68.4188 14.214C66.704 14.8718 65.1357 15.8611 63.8034 17.1253C62.4712 18.3895 61.4011 19.9038 60.6543 21.5817C59.9075 23.2597 59.4987 25.0683 59.4512 26.9043ZM66.899 27.1022C66.9328 25.8107 67.3489 24.5583 68.0946 23.5033C68.8402 22.4482 69.882 21.6381 71.0882 21.1752C72.2944 20.7123 73.6107 20.6175 74.8708 20.9029C76.1308 21.1882 77.2779 21.8408 78.167 22.7781C79.0562 23.7154 79.6473 24.8953 79.8658 26.1687C80.0843 27.442 79.9202 28.7515 79.3944 29.9316C78.8685 31.1117 78.0045 32.1093 76.9116 32.7983C75.8188 33.4873 74.5461 33.8367 73.2546 33.8024C71.5234 33.7563 69.8814 33.0246 68.6896 31.7682C67.4978 30.5117 66.8537 28.8334 66.899 27.1022Z" fill="#EBEBEB"/>
<path d="M71.0996 13.7972L76.4729 13.9438L76.275 10.132L71.4955 10L71.0996 13.7972Z" fill="#EBEBEB"/>
<path d="M81.2812 15.8792L84.9832 19.7863L87.5416 16.9494L84.2501 13.4821L81.2812 15.8792Z" fill="#EBEBEB"/>
<path d="M87.0148 24.5585L86.8682 29.9318L90.6801 29.7339L90.812 24.9543L87.0148 24.5585Z" fill="#EBEBEB"/>
<path d="M84.9326 34.7406L81.0254 38.4425L83.8623 41.0009L87.337 37.7095L84.9326 34.7406Z" fill="#EBEBEB"/>
<path d="M76.2532 40.4732L70.8799 40.3265L71.0778 44.1458L75.8573 44.2704L76.2532 40.4732Z" fill="#EBEBEB"/>
<path d="M66.0708 38.3912L62.3689 34.484L59.8105 37.3209L63.102 40.7956L66.0708 38.3912Z" fill="#EBEBEB"/>
<path d="M60.3383 29.7119L60.4849 24.3386L56.673 24.5365L56.541 29.3161L60.3383 29.7119Z" fill="#EBEBEB"/>
<path d="M62.4201 19.5297L66.3272 15.8278L63.4903 13.2694L60.0156 16.5682L62.4201 19.5297Z" fill="#EBEBEB"/>
<path d="M77.1461 23.8474L72.5572 22.4839L69.0898 25.7753L70.2187 30.4229L74.8004 31.7864L78.2824 28.495L77.1461 23.8474ZM73.6348 28.6489C73.3342 28.6415 73.0426 28.5449 72.797 28.3714C72.5514 28.198 72.3628 27.9555 72.2553 27.6747C72.1477 27.3939 72.126 27.0875 72.1929 26.7943C72.2598 26.5012 72.4123 26.2345 72.631 26.0282C72.8497 25.8218 73.1248 25.6851 73.4214 25.6354C73.7179 25.5857 74.0225 25.6252 74.2966 25.7489C74.5707 25.8726 74.8018 26.0749 74.9607 26.3302C75.1195 26.5855 75.1989 26.8823 75.1889 27.1828C75.1755 27.5827 75.0046 27.9611 74.7136 28.2357C74.4225 28.5103 74.0348 28.6588 73.6348 28.6489Z" fill="#EBEBEB"/>
</svg>