<svg width="120" height="35" viewBox="0 0 120 35" fill="none" xmlns="http://www.w3.org/2000/svg">
<path d="M25.5273 17.3856V10.1172H29.29V16.7546C29.29 17.814 29.5082 18.6242 29.9444 19.1851C30.3808 19.746 31.0117 20.0264 31.8375 20.0264C32.7256 20.0264 33.415 19.7421 33.9059 19.1734C34.3966 18.6047 34.6421 17.7984 34.6421 16.7546V10.1172H38.4282V23.1114H34.829V21.3352C33.8475 22.6439 32.4608 23.2983 30.669 23.2983C29.0643 23.2983 27.8062 22.7686 26.8947 21.7091C25.9832 20.6497 25.5275 19.2084 25.5275 17.3855L25.5273 17.3856Z" fill="#FF752C"/>
<path d="M42.7015 11.776C44.0102 10.5452 45.7163 9.92969 47.8197 9.92969C49.1908 9.92969 50.3943 10.218 51.4305 10.7945C52.4666 11.371 53.2495 12.1811 53.7793 13.225L50.9513 14.9311C50.2191 13.7158 49.1908 13.1082 47.8664 13.1082C46.8848 13.1082 46.0863 13.4276 45.4709 14.0664C44.8554 14.7053 44.5478 15.5544 44.5478 16.6139C44.5478 17.6733 44.8516 18.5264 45.4592 19.1729C46.0668 19.8196 46.8458 20.1429 47.7963 20.1429C49.1674 20.1429 50.2191 19.543 50.9513 18.3433L53.7793 20.0026C53.2963 21.0466 52.5211 21.8567 51.4539 22.4332C50.3866 23.0097 49.1284 23.2979 47.6795 23.2979C45.654 23.2979 43.9908 22.6786 42.6897 21.4399C41.3888 20.2012 40.7383 18.5926 40.7383 16.6139C40.7383 14.6195 41.3927 13.0069 42.7014 11.776H42.7015Z" fill="#FF752C"/>
<path d="M57.0529 10.1174V7.10256L60.8156 6.77539V10.1174H64.7185V12.8285H60.8156V18.7413C60.8156 19.3022 60.9636 19.7073 61.2596 19.9566C61.5557 20.2058 62.0386 20.3305 62.7086 20.3305C63.3942 20.3305 64.0641 20.237 64.7185 20.0501V22.8545C63.7838 23.1506 62.81 23.2985 61.7972 23.2985C58.6343 23.2985 57.0529 21.834 57.0529 18.9048V12.8284H55.043V10.1174H57.0529Z" fill="#FF752C"/>
<path d="M71.2146 10.1164V23.1106H67.4519V10.1164H71.2146ZM67.6622 4.92802C68.0985 4.53848 68.6515 4.34375 69.3215 4.34375C69.9915 4.34375 70.5446 4.5424 70.9808 4.93969C71.4172 5.33699 71.6352 5.84728 71.6352 6.47042C71.6352 7.09364 71.4172 7.60001 70.9808 7.98954C70.5446 8.3946 69.9915 8.59716 69.3215 8.59716C68.6515 8.59716 68.0985 8.39852 67.6622 8.00122C67.226 7.60392 67.0078 7.09364 67.0078 6.47042C67.0078 5.84728 67.226 5.33307 67.6622 4.92795V4.92802Z" fill="#FF752C"/>
<path d="M75.5372 11.7994C76.8616 10.5529 78.5598 9.92969 80.6321 9.92969C82.7044 9.92969 84.4065 10.5568 85.7386 11.8111C87.0708 13.0653 87.7369 14.6662 87.7369 16.6138C87.7369 18.5614 87.0747 20.1583 85.7503 21.4048C84.4104 22.6669 82.7043 23.2978 80.6321 23.2978C78.5598 23.2978 76.8577 22.6708 75.5256 21.4165C74.1934 20.1623 73.5273 18.5614 73.5273 16.6138C73.5273 14.6662 74.1973 13.0614 75.5372 11.7994ZM77.3135 16.6138C77.3135 17.6265 77.625 18.464 78.2483 19.1262C78.8715 19.7884 79.6661 20.1195 80.6321 20.1195C81.5825 20.1195 82.3693 19.7884 82.9925 19.1262C83.6157 18.464 83.9273 17.6265 83.9273 16.6138C83.9273 15.601 83.6196 14.7674 83.0042 14.1131C82.3888 13.4587 81.5981 13.1315 80.632 13.1315C79.6661 13.1315 78.8715 13.4587 78.2482 14.1131C77.625 14.7675 77.3134 15.6011 77.3134 16.6138H77.3135Z" fill="#FF752C"/>
<path d="M93.6499 10.1167V11.8929C94.647 10.5841 96.0727 9.92969 97.9268 9.92969C99.5471 9.92969 100.829 10.4594 101.771 11.5189C102.714 12.5784 103.185 14.0196 103.185 15.8426V23.1109H99.399V16.4735C99.399 15.4141 99.1731 14.6039 98.7213 14.043C98.2695 13.4821 97.6151 13.2017 96.7582 13.2017C95.8234 13.2017 95.0989 13.4861 94.5847 14.0547C94.0705 14.6234 93.8135 15.4297 93.8135 16.4735V23.1109H90.0508V10.1167H93.6499V10.1167Z" fill="#FF752C"/>
<path fill-rule="evenodd" clip-rule="evenodd" d="M0.0611211 25.3207C0.839421 24.9421 1.61339 24.5453 2.3691 24.0762C2.66179 23.8616 2.93204 23.5945 3.17991 23.2753C3.30542 22.989 3.47645 22.6997 3.60287 22.4078C6.47449 15.779 9.55231 7.71697 12.541 0.419996C12.764 -0.0989641 13.3061 -0.179584 13.5944 0.419996L17.9401 10.375L14.3261 12.2092L12.2593 7.28828L6.73656 21.1957L5.6069 22.1372L6.83927 24.4548L6.01098 24.9467L4.91069 22.9275L4.57479 23.1526L5.31875 24.6306L3.63378 25.6167H-0.00390625L0.0611211 25.3207Z" fill="#FF752C"/>
<path fill-rule="evenodd" clip-rule="evenodd" d="M6.12891 22.2393L15.0419 17.793L15.7427 19.2724L6.85602 23.75L6.12891 22.2393Z" fill="#7B0100"/>
<path fill-rule="evenodd" clip-rule="evenodd" d="M14.1875 14.801L19.0134 12.4141L19.3276 13.0775L14.528 15.4957L14.1875 14.801Z" fill="#7B0100"/>
<path fill-rule="evenodd" clip-rule="evenodd" d="M17.3828 20.9769L22.2086 18.5898L22.5228 19.2534L17.7232 21.6716L17.3828 20.9769Z" fill="#7B0100"/>
<path fill-rule="evenodd" clip-rule="evenodd" d="M13.633 13.6472L18.4644 11.2076C18.7102 11.0835 19.0451 11.1819 19.1321 11.4427L19.1321 11.4429C19.219 11.7038 19.1425 11.9865 18.8971 12.1104L14.0655 14.5501C13.82 14.674 13.4849 14.576 13.398 14.315L13.3979 14.3148C13.3109 14.0538 13.3873 13.7714 13.633 13.6472Z" fill="#7B0100"/>
<path fill-rule="evenodd" clip-rule="evenodd" d="M17.8244 21.9578L22.6559 19.5182C22.9015 19.3941 23.2365 19.4924 23.3234 19.7532L23.3235 19.7534C23.4105 20.0143 23.3339 20.297 23.0884 20.4209L18.257 22.8606C18.0115 22.9846 17.6763 22.8866 17.5893 22.6256L17.5893 22.6253C17.5024 22.3643 17.5787 22.0819 17.8244 21.9578Z" fill="#7B0100"/>
<path fill-rule="evenodd" clip-rule="evenodd" d="M17.0553 23.918H25.4422C25.7219 23.918 25.9507 24.1468 25.9507 24.4265V24.9351H16.5469V24.4265C16.5469 24.1468 16.7757 23.918 17.0554 23.918H17.0553Z" fill="#FF752C"/>
<path fill-rule="evenodd" clip-rule="evenodd" d="M17.3441 23.4082H25.1527C25.2927 23.4082 25.407 23.5227 25.407 23.6624V23.9167H17.0898V23.6624C17.0898 23.5226 17.2042 23.4082 17.344 23.4082H17.3441Z" fill="#FF752C"/>
<path d="M63.7134 25.9355V28.7361V29.2361C64.076 28.8007 64.4718 28.4798 64.9032 28.2714C65.3345 28.0651 65.818 27.9609 66.3513 27.9609C67.2954 27.9609 68.0934 28.3006 68.7476 28.9799C69.3999 29.6592 69.7269 30.4864 69.7269 31.4595C69.7269 32.4638 69.3936 33.3057 68.7248 33.9829C68.0579 34.6601 67.2203 34.9998 66.2097 34.9998C65.7137 34.9998 65.2595 34.9019 64.8469 34.7039C64.4323 34.5059 64.0551 34.2079 63.7134 33.8079V34.8248H62.8633V25.9356H63.7134V25.9355ZM63.7134 31.5324C63.7134 32.2493 63.9676 32.8723 64.4739 33.4036C64.9803 33.935 65.5637 34.1996 66.2242 34.1996C66.9452 34.1996 67.5599 33.9329 68.0663 33.3994C68.5726 32.8661 68.8268 32.2075 68.8268 31.422C68.8268 30.6781 68.5747 30.0489 68.0683 29.5342C67.5641 29.0195 66.9598 28.7612 66.2555 28.7612C65.5513 28.7612 64.9511 29.03 64.4552 29.5676C63.9613 30.1031 63.7134 30.7595 63.7134 31.5325V31.5324Z" fill="#7B0100"/>
<path d="M76.6308 31.4221C76.6308 30.7094 76.3766 30.0884 75.8661 29.5571C75.3577 29.0258 74.7722 28.7611 74.1075 28.7611C73.3865 28.7611 72.7718 29.0258 72.2655 29.5571C71.7591 30.0884 71.5049 30.747 71.5049 31.5325C71.5049 32.2805 71.7571 32.9119 72.2634 33.4265C72.7676 33.9412 73.374 34.1996 74.0824 34.1996C74.768 34.1996 75.3639 33.9287 75.8703 33.3848C76.3766 32.841 76.6308 32.1867 76.6308 31.422V31.4221ZM76.6308 33.76C76.362 34.1476 75.9995 34.4497 75.541 34.6706C75.0826 34.8894 74.5887 34.9998 74.0615 34.9998C73.076 34.9998 72.255 34.6622 71.6007 33.9892C70.9443 33.3161 70.6172 32.4847 70.6172 31.495C70.6172 30.4907 70.9526 29.6509 71.6215 28.9737C72.2903 28.2985 73.128 27.9609 74.1345 27.9609C74.6513 27.9609 75.1242 28.0651 75.5556 28.2756C75.9869 28.4861 76.3453 28.7882 76.6307 29.182V28.111H77.4684V34.8247H76.6307V33.76H76.6308Z" fill="#7B0100"/>
<path d="M83.0954 34.8251H78.457V34.0125L81.9556 28.924H78.8446V28.1113H82.9078V29.0386L79.4801 33.9624H83.0954V34.8251Z" fill="#7B0100"/>
<path d="M89.9199 31.4221C89.9199 30.7094 89.6657 30.0884 89.1552 29.5571C88.6467 29.0258 88.0612 28.7611 87.3965 28.7611C86.6756 28.7611 86.0609 29.0258 85.5545 29.5571C85.0481 30.0884 84.794 30.747 84.794 31.5325C84.794 32.2805 85.0461 32.9119 85.5524 33.4265C86.0567 33.9412 86.6631 34.1996 87.3715 34.1996C88.057 34.1996 88.653 33.9287 89.1593 33.3848C89.6657 32.841 89.9199 32.1867 89.9199 31.422V31.4221ZM89.9199 33.76C89.6511 34.1476 89.2885 34.4497 88.8301 34.6706C88.3717 34.8894 87.8778 34.9998 87.3506 34.9998C86.365 34.9998 85.544 34.6622 84.8898 33.9892C84.2333 33.3161 83.9062 32.4847 83.9062 31.495C83.9062 30.4907 84.2417 29.6509 84.9105 28.9737C85.5794 28.2985 86.4171 27.9609 87.4235 27.9609C87.9403 27.9609 88.4133 28.0651 88.8446 28.2756C89.276 28.4861 89.6344 28.7882 89.9198 29.182V28.111H90.7575V34.8247H89.9198V33.76H89.9199Z" fill="#7B0100"/>
<path d="M97.9863 31.4221C97.9863 30.7094 97.7321 30.0884 97.2216 29.5571C96.7131 29.0258 96.1276 28.7611 95.4629 28.7611C94.742 28.7611 94.1273 29.0258 93.6209 29.5571C93.1146 30.0884 92.8604 30.747 92.8604 31.5325C92.8604 32.2805 93.1125 32.9119 93.6188 33.4265C94.1231 33.9412 94.7295 34.1996 95.4379 34.1996C96.1234 34.1996 96.7194 33.9287 97.2257 33.3848C97.7321 32.841 97.9863 32.1867 97.9863 31.422V31.4221ZM97.9863 33.76C97.7175 34.1476 97.355 34.4497 96.8965 34.6706C96.4381 34.8894 95.9442 34.9998 95.417 34.9998C94.4315 34.9998 93.6104 34.6622 92.9562 33.9892C92.2998 33.3161 91.9727 32.4847 91.9727 31.495C91.9727 30.4907 92.3081 29.6509 92.9769 28.9737C93.6458 28.2985 94.4835 27.9609 95.4899 27.9609C96.0067 27.9609 96.4797 28.0651 96.911 28.2756C97.3424 28.4861 97.7008 28.7882 97.9862 29.182V28.111H98.8239V34.8247H97.9862V33.76H97.9863Z" fill="#7B0100"/>
<path d="M101.242 34.8255H100.367V28.1118H101.182V28.889C101.392 28.5889 101.622 28.3722 101.872 28.2326C102.12 28.093 102.411 28.02 102.743 28.0117L102.749 28.9494C102.211 28.9973 101.824 29.1599 101.592 29.4349C101.359 29.71 101.242 30.1559 101.242 30.7747V34.8255V34.8255Z" fill="#7B0100"/>
<path d="M103.723 34.2996C103.723 34.1413 103.777 34.0058 103.885 33.8934C103.994 33.7808 104.127 33.7246 104.285 33.7246C104.444 33.7246 104.577 33.7788 104.685 33.8871C104.794 33.9954 104.848 34.133 104.848 34.2997C104.848 34.4664 104.794 34.6039 104.685 34.7123C104.577 34.8206 104.444 34.8749 104.285 34.8749C104.127 34.8749 103.994 34.8186 103.885 34.7061C103.777 34.5935 103.723 34.4582 103.723 34.2998V34.2996Z" fill="#7B0100"/>
<path d="M107.881 27.1057C107.462 27.4106 107.156 27.7524 106.959 28.1308C106.762 28.5077 106.663 28.9388 106.663 29.4226C106.663 30.1795 106.94 30.8278 107.494 31.3658C108.048 31.904 108.706 32.1739 109.469 32.1739C110.281 32.1739 110.965 31.9056 111.521 31.3707C112.078 30.8358 112.356 30.1875 112.356 29.4226C112.356 28.9515 112.258 28.5252 112.065 28.1452C111.87 27.7652 111.58 27.4346 111.195 27.1535V26.3583C111.766 26.6697 112.208 27.0881 112.521 27.6118C112.833 28.1356 112.989 28.7232 112.989 29.3748C112.989 30.3759 112.652 31.211 111.98 31.8801C111.307 32.5491 110.466 32.8828 109.459 32.8828C108.989 32.8828 108.543 32.7918 108.122 32.6114C107.702 32.4309 107.322 32.1658 106.984 31.8161C106.665 31.492 106.422 31.1279 106.259 30.7239C106.093 30.3199 106.012 29.8824 106.012 29.4113C106.012 28.7343 106.174 28.1259 106.499 27.5845C106.825 27.0433 107.286 26.6153 107.881 26.3008V27.1056L107.881 27.1057Z" fill="#262626"/>
<path d="M109.47 24.8305C110.288 24.8305 110.973 24.5606 111.527 24.0209C112.079 23.4812 112.356 22.8153 112.356 22.0233C112.356 21.2505 112.076 20.5973 111.517 20.064C110.957 19.5307 110.269 19.264 109.451 19.264C108.69 19.264 108.032 19.5387 107.481 20.088C106.929 20.6357 106.654 21.2967 106.654 22.0711C106.654 22.3857 106.707 22.689 106.813 22.9797C106.918 23.2719 107.075 23.5401 107.28 23.7877C107.55 24.1118 107.881 24.3674 108.271 24.5525C108.661 24.7378 109.061 24.8304 109.47 24.8304L109.47 24.8305ZM109.459 25.5298C108.992 25.5298 108.547 25.4389 108.122 25.2568C107.698 25.0732 107.319 24.8096 106.984 24.4631C106.662 24.1294 106.419 23.7621 106.256 23.3613C106.093 22.9606 106.012 22.5262 106.012 22.0584C106.012 21.5825 106.093 21.1402 106.259 20.733C106.422 20.3258 106.668 19.9538 106.993 19.6168C107.329 19.2703 107.703 19.0101 108.117 18.8361C108.532 18.662 108.979 18.5742 109.459 18.5742C109.934 18.5742 110.372 18.6492 110.77 18.7994C111.168 18.9479 111.53 19.173 111.856 19.4716C112.23 19.8181 112.512 20.2093 112.702 20.6468C112.893 21.0828 112.989 21.557 112.989 22.068C112.989 23.0468 112.65 23.8692 111.972 24.5334C111.295 25.1978 110.457 25.5298 109.459 25.5298H109.459Z" fill="#262626"/>
<path d="M112.857 17.459H106.145V16.4754L111.981 14.1169L106.145 11.7697V10.7812H112.857V11.4231H106.928L112.857 13.8183V14.4219L106.928 16.8171H112.857V17.459Z" fill="#262626"/>
<path fill-rule="evenodd" clip-rule="evenodd" d="M14.3633 15.8441L16.9325 20.9079L22.2949 18.2555L19.6963 13.1777L14.3633 15.8441Z" fill="#7B0100"/>
<path d="M115.109 8.89695V6.39844H116.217C116.439 6.39844 116.609 6.42109 116.725 6.46591C116.84 6.51073 116.933 6.58981 117.002 6.70323C117.071 6.81664 117.105 6.94222 117.105 7.07948C117.105 7.25687 117.048 7.40629 116.933 7.52788C116.819 7.64948 116.642 7.72625 116.402 7.7594C116.49 7.80128 116.556 7.84309 116.602 7.88386C116.698 7.97224 116.79 8.08334 116.875 8.21648L117.307 8.89695H116.894L116.564 8.37702C116.468 8.2264 116.388 8.11173 116.326 8.03209C116.263 7.95245 116.207 7.89714 116.158 7.86519C116.109 7.83379 116.059 7.8117 116.008 7.7989C115.97 7.79135 115.909 7.78729 115.824 7.78729H115.441V8.89695H115.11H115.109ZM115.441 7.5011H116.15C116.302 7.5011 116.419 7.48544 116.504 7.45398C116.589 7.42314 116.653 7.37315 116.697 7.30393C116.741 7.23526 116.763 7.16086 116.763 7.08004C116.763 6.96194 116.721 6.86426 116.635 6.78804C116.55 6.71183 116.415 6.674 116.231 6.674H115.441V7.50103V7.5011Z" fill="#262626"/>
<path fill-rule="evenodd" clip-rule="evenodd" d="M116.204 4.83789C117.756 4.83789 119.013 6.09571 119.013 7.64728C119.013 9.19892 117.755 10.4567 116.204 10.4567C114.652 10.4567 113.395 9.19885 113.395 7.64728C113.395 6.09564 114.652 4.83789 116.204 4.83789Z" stroke="#262626" stroke-width="0.237035" stroke-miterlimit="22.9256" stroke-linecap="round" stroke-linejoin="round"/>
</svg>
