<svg width="129" height="32" viewBox="0 0 129 32" fill="none" xmlns="http://www.w3.org/2000/svg">
<path d="M40.9243 24.0657L36.3189 7.97029H40.0362L42.7004 19.1538H42.834L45.7733 7.97029H48.9563L51.8877 19.1773H52.0292L54.6934 7.97029H58.4107L53.8053 24.0657H50.4888L47.4237 13.5424H47.298L44.2408 24.0657H40.9243ZM59.7266 24.0657V11.9941H63.0745V24.0657H59.7266ZM61.4084 10.438C60.9107 10.438 60.4837 10.273 60.1274 9.94292C59.7763 9.6076 59.6008 9.20679 59.6008 8.74048C59.6008 8.27942 59.7763 7.88384 60.1274 7.55376C60.4837 7.21844 60.9107 7.05078 61.4084 7.05078C61.9062 7.05078 62.3305 7.21844 62.6816 7.55376C63.0379 7.88384 63.216 8.27942 63.216 8.74048C63.216 9.20679 63.0379 9.6076 62.6816 9.94292C62.3305 10.273 61.9062 10.438 61.4084 10.438ZM65.3138 24.0657V11.9941H68.5596V14.1004H68.6854C68.9054 13.3511 69.2748 12.7853 69.7935 12.4028C70.3122 12.0151 70.9095 11.8212 71.5854 11.8212C71.753 11.8212 71.9338 11.8317 72.1276 11.8527C72.3215 11.8736 72.4918 11.9024 72.6385 11.9391V14.9099C72.4813 14.8627 72.2639 14.8208 71.9862 14.7841C71.7085 14.7474 71.4544 14.7291 71.2238 14.7291C70.7313 14.7291 70.2912 14.8365 69.9035 15.0513C69.521 15.2609 69.2172 15.5543 68.9919 15.9315C68.7718 16.3088 68.6618 16.7436 68.6618 17.2361V24.0657H65.3138ZM78.8662 24.3014C77.6245 24.3014 76.5557 24.05 75.6597 23.547C74.769 23.0388 74.0827 22.321 73.6007 21.3936C73.1186 20.461 72.8776 19.3581 72.8776 18.0849C72.8776 16.8432 73.1186 15.7534 73.6007 14.8155C74.0827 13.8777 74.7612 13.1468 75.6362 12.6229C76.5164 12.0989 77.5485 11.837 78.7326 11.837C79.529 11.837 80.2704 11.9653 80.9568 12.2221C81.6484 12.4735 82.2509 12.8534 82.7643 13.3616C83.283 13.8698 83.6865 14.509 83.9746 15.2792C84.2628 16.0442 84.4069 16.9401 84.4069 17.967V18.8865H74.2137V16.8117H81.2554C81.2554 16.3297 81.1506 15.9027 80.941 15.5307C80.7315 15.1587 80.4407 14.8679 80.0687 14.6584C79.7019 14.4435 79.2749 14.3361 78.7876 14.3361C78.2794 14.3361 77.8288 14.454 77.4359 14.6898C77.0482 14.9203 76.7443 15.2321 76.5242 15.625C76.3042 16.0127 76.1915 16.445 76.1863 16.9218V18.8944C76.1863 19.4917 76.2963 20.0078 76.5164 20.4426C76.7417 20.8775 77.0587 21.2128 77.4673 21.4486C77.876 21.6844 78.3606 21.8023 78.9213 21.8023C79.2932 21.8023 79.6338 21.7499 79.9429 21.6451C80.2521 21.5403 80.5166 21.3831 80.7367 21.1735C80.9568 20.964 81.1244 20.7072 81.2397 20.4033L84.3362 20.6077C84.179 21.3517 83.8568 22.0014 83.3695 22.5567C82.8875 23.1069 82.264 23.5365 81.499 23.8456C80.7393 24.1495 79.8617 24.3014 78.8662 24.3014ZM90.5973 24.2622C89.6804 24.2622 88.85 24.0264 88.106 23.5548C87.3672 23.0781 86.7804 22.3786 86.3456 21.4565C85.9159 20.5291 85.7011 19.3921 85.7011 18.0456C85.7011 16.6624 85.9238 15.5124 86.3691 14.5955C86.8145 13.6734 87.4065 12.9844 88.1453 12.5286C88.8893 12.0675 89.704 11.837 90.5895 11.837C91.2653 11.837 91.8286 11.9522 92.2792 12.1828C92.735 12.408 93.1017 12.691 93.3794 13.0315C93.6624 13.3669 93.8772 13.6969 94.0239 14.0218H94.126V7.97029H97.4661V24.0657H94.1653V22.1323H94.0239C93.8667 22.4677 93.644 22.8004 93.3559 23.1304C93.0729 23.4553 92.7036 23.7251 92.2477 23.9399C91.7971 24.1547 91.247 24.2622 90.5973 24.2622ZM91.6583 21.5979C92.198 21.5979 92.6538 21.4512 93.0258 21.1578C93.403 20.8592 93.6912 20.4426 93.8903 19.9082C94.0946 19.3738 94.1968 18.7477 94.1968 18.0299C94.1968 17.3121 94.0972 16.6886 93.8981 16.1594C93.699 15.6303 93.4109 15.2216 93.0336 14.9334C92.6564 14.6453 92.198 14.5012 91.6583 14.5012C91.1082 14.5012 90.6445 14.6505 90.2672 14.9491C89.89 15.2478 89.6045 15.6617 89.4106 16.1909C89.2167 16.7201 89.1198 17.3331 89.1198 18.0299C89.1198 18.732 89.2167 19.3529 89.4106 19.8925C89.6097 20.4269 89.8952 20.8461 90.2672 21.15C90.6445 21.4486 91.1082 21.5979 91.6583 21.5979ZM109.781 7.97029H113.184V18.4229C113.184 19.5965 112.903 20.6234 112.343 21.5036C111.787 22.3838 111.009 23.0702 110.009 23.5627C109.008 24.05 107.842 24.2936 106.511 24.2936C105.175 24.2936 104.007 24.05 103.006 23.5627C102.006 23.0702 101.227 22.3838 100.672 21.5036C100.117 20.6234 99.839 19.5965 99.839 18.4229V7.97029H103.242V18.1321C103.242 18.7451 103.376 19.29 103.643 19.7668C103.915 20.2435 104.298 20.6182 104.79 20.8906C105.283 21.1631 105.856 21.2993 106.511 21.2993C107.172 21.2993 107.745 21.1631 108.233 20.8906C108.725 20.6182 109.105 20.2435 109.372 19.7668C109.645 19.29 109.781 18.7451 109.781 18.1321V7.97029ZM115.478 28.5925V11.9941H118.779V14.0218H118.928C119.075 13.6969 119.287 13.3669 119.565 13.0315C119.848 12.691 120.214 12.408 120.665 12.1828C121.121 11.9522 121.687 11.837 122.363 11.837C123.243 11.837 124.055 12.0675 124.799 12.5286C125.543 12.9844 126.138 13.6734 126.583 14.5955C127.028 15.5124 127.251 16.6624 127.251 18.0456C127.251 19.3921 127.033 20.5291 126.599 21.4565C126.169 22.3786 125.582 23.0781 124.838 23.5548C124.099 24.0264 123.272 24.2622 122.355 24.2622C121.705 24.2622 121.152 24.1547 120.696 23.9399C120.246 23.7251 119.877 23.4553 119.588 23.1304C119.3 22.8004 119.08 22.4677 118.928 22.1323H118.826V28.5925H115.478ZM118.755 18.0299C118.755 18.7477 118.855 19.3738 119.054 19.9082C119.253 20.4426 119.541 20.8592 119.918 21.1578C120.296 21.4512 120.754 21.5979 121.294 21.5979C121.839 21.5979 122.3 21.4486 122.677 21.15C123.054 20.8461 123.34 20.4269 123.534 19.8925C123.733 19.3529 123.832 18.732 123.832 18.0299C123.832 17.3331 123.735 16.7201 123.541 16.1909C123.348 15.6617 123.062 15.2478 122.685 14.9491C122.308 14.6505 121.844 14.5012 121.294 14.5012C120.749 14.5012 120.288 14.6453 119.911 14.9334C119.539 15.2216 119.253 15.6303 119.054 16.1594C118.855 16.6886 118.755 17.3121 118.755 18.0299Z" fill="#212121"/>
<circle cx="15.5" cy="15.5657" r="15.5" fill="#2176FF"/>
<path d="M6.38789 15.2133L10.4161 15.2133L11.3793 17.7528L9.39658 21.4308L6.38789 15.2133Z" fill="#D3E4FF"/>
<path d="M12.335 12.4109L16.3736 12.411L13.4835 21.4263L9.41158 21.4263L12.335 12.4109Z" fill="white"/>
<path d="M12.3383 12.4156L16.3666 12.4156L19.0867 19.5054L17.104 23.1834L12.3383 12.4156Z" fill="#D3E4FF"/>
<path d="M21.0859 8.83331L25.2119 8.83327L21.1836 23.1769L17.1117 23.1769L21.0859 8.83331Z" fill="white"/>
</svg>
