<svg width="195" height="48" viewBox="0 0 195 48" fill="none" xmlns="http://www.w3.org/2000/svg">
<path d="M30.7111 22.6067C33.5412 24.6404 34.6472 27.4374 34.3333 30.8501C33.9436 35.0842 30.6856 38.3791 26.4261 39.1107C24.1072 39.5087 21.491 39.4775 19.1543 39.4838C19.1581 37.1815 19.1766 34.3501 19.1702 32.0478C20.1055 32.0561 21.335 32.0599 22.2716 32.0478C23.0643 32.037 23.822 31.8784 24.5147 31.462C25.5334 30.8495 25.9288 29.9123 25.8817 28.7732C25.8359 27.6768 25.3029 26.8631 24.3313 26.3391C23.6456 25.9692 22.9032 25.8476 22.1398 25.8355C21.293 25.8221 20.4462 25.8355 19.5994 25.831H19.1581C19.1435 24.8702 19.1785 23.5612 19.1581 22.601C19.2855 22.5959 19.7999 22.5093 19.9266 22.5093C23.26 22.5093 26.5933 22.5093 29.9267 22.5093C30.1914 22.5056 30.4553 22.5384 30.7111 22.6067Z" fill="#635bff"/>
<path d="M19.1581 22.5991C19.153 20.8551 19.1753 20.8838 19.155 19.1405C19.9827 19.1615 21.307 19.1889 22.1277 18.9877C23.4603 18.6617 24.2881 17.855 24.451 16.6955C24.6663 15.1675 24.1518 13.987 22.9669 13.2841C21.2879 12.2883 19.0162 13.1154 18.2553 14.9981C18.2177 15.0917 18.1496 15.2528 18.1139 15.3451C17.8637 15.2178 17.9624 14.9153 17.9611 14.716C17.9522 13.2911 17.9567 11.8668 17.9567 10.4418C17.9567 9.16844 17.9567 7.89504 17.9567 6.62163C17.9567 6.40897 17.9318 6.18803 18.0961 6.0123C21.0402 5.36605 23.9468 5.39598 26.7222 6.69167C29.3447 7.91605 31.3185 9.81979 32.2201 12.6347C32.8937 14.7358 32.965 16.856 31.8585 18.8743C31.3128 19.8695 30.5214 20.6399 29.5867 21.2728C29.4224 21.3842 29.2594 21.4976 29.0455 21.6446C29.6408 21.9579 30.2088 22.2253 30.7092 22.6035C27.024 22.6035 23.3387 22.6112 19.6535 22.5991C19.2861 22.5991 19.1562 22.5946 19.1562 22.5946" fill="#635bff"/>
<path d="M17.858 39.4844C15.3302 39.4695 12.1053 39.4702 9.58081 39.4844C9.591 36.5667 9.58718 33.1845 9.58718 30.2669C9.58718 27.3776 9.591 24.5692 9.58081 21.6792C12.0958 21.6948 15.3455 21.6948 17.8611 21.6792" fill="#635bff"/>
<path d="M9.58081 22.1368C9.59227 20.6825 9.5668 18.8596 9.59036 17.406C9.63939 14.4517 10.4219 11.7496 12.4001 9.47783C13.9314 7.71925 15.8383 6.57828 18.098 6.01416C18.1031 7.74217 18.108 9.47061 18.1126 11.1995C18.1126 12.4232 18.1126 13.6476 18.1126 14.8713V15.3463C17.907 16.0422 17.849 16.6872 17.8516 17.4124C17.8554 18.8667 17.8446 20.6825 17.8586 22.1368C15.3322 22.1247 12.1047 22.124 9.58145 22.1368" fill="#635bff"/>
<path d="M55.744 31.2509H42.942C43.057 32.4191 43.3342 33.2893 43.7735 33.8615C44.3906 34.684 45.1959 35.0952 46.1895 35.0952C46.8171 35.0952 47.4133 34.9164 47.9781 34.5588C48.3232 34.3323 48.6945 33.933 49.092 33.3608L55.3832 34.0224C54.4209 35.9296 53.26 37.3005 51.9003 38.1349C50.5406 38.9574 48.5899 39.3687 46.0483 39.3687C43.8414 39.3687 42.1052 39.017 40.8397 38.3137C39.5741 37.5985 38.5229 36.472 37.6862 34.9343C36.8599 33.3846 36.4468 31.5668 36.4468 29.4807C36.4468 26.5125 37.2783 24.1106 38.9413 22.2748C40.6148 20.4391 42.921 19.5212 45.8601 19.5212C48.2448 19.5212 50.1274 19.9325 51.5081 20.755C52.8887 21.5775 53.9398 22.7695 54.6615 24.3311C55.3832 25.8927 55.744 27.9251 55.744 30.4284V31.2509ZM49.2489 27.7642C49.1234 26.3576 48.7887 25.3503 48.2448 24.7423C47.7114 24.1344 47.0054 23.8304 46.1268 23.8304C45.1122 23.8304 44.3017 24.2894 43.695 25.2072C43.308 25.7794 43.0622 26.6317 42.9576 27.7642H49.2489Z" fill="#635bff"/>
<path d="M65.7385 12.7266V19.9503H69.2528V25.2609H65.7385V32.0019C65.7385 32.8125 65.8064 33.3489 65.9424 33.6111C66.1516 34.0164 66.5177 34.2191 67.0406 34.2191C67.5113 34.2191 68.1702 34.0641 69.0174 33.7542L69.4881 38.7786C67.9087 39.172 66.434 39.3687 65.0638 39.3687C63.474 39.3687 62.3026 39.1362 61.5495 38.6713C60.7965 38.2064 60.2369 37.5031 59.8708 36.5614C59.5152 35.6078 59.3374 34.0701 59.3374 31.9482V25.2609H56.9841V19.9503H59.3374V16.4636L65.7385 12.7266Z" fill="#635bff"/>
<path d="M77.49 26.1013L71.3871 25.3682C71.6172 24.1523 71.9466 23.1986 72.3755 22.5073C72.8147 21.804 73.4423 21.196 74.2581 20.6834C74.8438 20.3139 75.6492 20.0278 76.6742 19.8252C77.6992 19.6225 78.8079 19.5212 80.0002 19.5212C81.9143 19.5212 83.4518 19.6464 84.6128 19.8967C85.7737 20.1351 86.7412 20.6417 87.5152 21.4165C88.0591 21.953 88.4879 22.7159 88.8017 23.7053C89.1154 24.6827 89.2723 25.6185 89.2723 26.5125V34.8985C89.2723 35.7926 89.3194 36.4959 89.4135 37.0084C89.5181 37.5091 89.7378 38.1528 90.0725 38.9396H84.0793C83.8388 38.4508 83.6819 38.0813 83.6087 37.831C83.5355 37.5687 83.4622 37.1634 83.389 36.6151C82.5523 37.5329 81.7208 38.1886 80.8945 38.5819C79.7649 39.1064 78.4523 39.3687 76.9566 39.3687C74.9693 39.3687 73.458 38.8442 72.4225 37.7952C71.3975 36.7462 70.885 35.4528 70.885 33.9151C70.885 32.4727 71.2563 31.2866 71.9989 30.3569C72.7415 29.4271 74.1117 28.7357 76.1094 28.2827C78.5046 27.7344 80.0578 27.3529 80.769 27.1383C81.4802 26.9119 82.2333 26.6198 83.0282 26.2622C83.0282 25.3682 82.8661 24.7423 82.5418 24.3847C82.2176 24.0271 81.6476 23.8483 80.8317 23.8483C79.7858 23.8483 79.0014 24.039 78.4784 24.4205C78.0705 24.7185 77.741 25.2788 77.49 26.1013ZM83.0282 29.9277C82.1496 30.2853 81.2344 30.6012 80.2826 30.8754C78.9857 31.2688 78.1646 31.6562 77.8195 32.0376C77.4639 32.431 77.2861 32.878 77.2861 33.3787C77.2861 33.9509 77.4586 34.4217 77.8038 34.7912C78.1594 35.1489 78.6771 35.3277 79.357 35.3277C80.0682 35.3277 80.7271 35.131 81.3338 34.7376C81.9509 34.3442 82.3849 33.8674 82.636 33.3072C82.8974 32.735 83.0282 31.9959 83.0282 31.09V29.9277Z" fill="#635bff"/>
<path d="M92.6774 12.7266H99.0785V38.9396H92.6774V12.7266Z" fill="#635bff"/>
<path d="M121.012 31.2509H108.21C108.325 32.4191 108.602 33.2893 109.042 33.8615C109.659 34.684 110.464 35.0952 111.458 35.0952C112.085 35.0952 112.681 34.9164 113.246 34.5588C113.591 34.3323 113.963 33.933 114.36 33.3608L120.651 34.0224C119.689 35.9296 118.528 37.3005 117.168 38.1349C115.809 38.9574 113.858 39.3687 111.316 39.3687C109.109 39.3687 107.373 39.017 106.108 38.3137C104.842 37.5985 103.791 36.472 102.954 34.9343C102.128 33.3846 101.715 31.5668 101.715 29.4807C101.715 26.5125 102.546 24.1106 104.209 22.2748C105.883 20.4391 108.189 19.5212 111.128 19.5212C113.513 19.5212 115.395 19.9325 116.776 20.755C118.157 21.5775 119.208 22.7695 119.93 24.3311C120.651 25.8927 121.012 27.9251 121.012 30.4284V31.2509ZM114.517 27.7642C114.391 26.3576 114.057 25.3503 113.513 24.7423C112.979 24.1344 112.273 23.8304 111.395 23.8304C110.38 23.8304 109.57 24.2894 108.963 25.2072C108.576 25.7794 108.33 26.6317 108.226 27.7642H114.517Z" fill="#635bff"/>
<path d="M135.729 31.5191L141.8 32.3058C141.466 33.7482 140.917 34.9999 140.153 36.0608C139.39 37.1098 138.412 37.9263 137.219 38.5104C136.037 39.0945 134.531 39.3866 132.701 39.3866C130.933 39.3866 129.459 39.2018 128.277 38.8323C127.105 38.4508 126.096 37.8429 125.249 37.0084C124.402 36.1621 123.737 35.1727 123.256 34.0403C122.775 32.9078 122.535 31.4059 122.535 29.5343C122.535 27.5794 122.827 25.9523 123.413 24.6529C123.842 23.6993 124.428 22.847 125.17 22.096C125.913 21.3331 126.676 20.7669 127.461 20.3973C128.705 19.8132 130.301 19.5212 132.246 19.5212C134.965 19.5212 137.036 20.0755 138.459 21.1841C139.892 22.2927 140.896 23.9139 141.471 26.0476L135.462 26.9595C135.274 26.1489 134.929 25.541 134.427 25.1357C133.935 24.7185 133.271 24.5099 132.434 24.5099C131.378 24.5099 130.52 24.945 129.861 25.8152C129.213 26.6734 128.889 27.9787 128.889 29.731C128.889 31.2926 129.213 32.4787 129.861 33.2893C130.51 34.0999 131.336 34.5052 132.34 34.5052C133.177 34.5052 133.878 34.2608 134.442 33.7721C135.018 33.2833 135.446 32.5323 135.729 31.5191Z" fill="#635bff"/>
<path d="M151.795 12.7266V19.9503H155.309V25.2609H151.795V32.0019C151.795 32.8125 151.863 33.3489 151.999 33.6111C152.208 34.0164 152.574 34.2191 153.097 34.2191C153.568 34.2191 154.227 34.0641 155.074 33.7542L155.544 38.7786C153.965 39.172 152.49 39.3687 151.12 39.3687C149.53 39.3687 148.359 39.1362 147.606 38.6713C146.853 38.2064 146.293 37.5031 145.927 36.5614C145.572 35.6078 145.394 34.0701 145.394 31.9482V25.2609H143.04V19.9503H145.394V16.4636L151.795 12.7266Z" fill="#635bff"/>
<path d="M157.961 12.7266H164.347V17.6795H157.961V12.7266ZM157.961 19.9503H164.347V38.9396H157.961V19.9503Z" fill="#635bff"/>
<path d="M180.209 31.5191L186.28 32.3058C185.945 33.7482 185.396 34.9999 184.633 36.0608C183.869 37.1098 182.891 37.9263 181.699 38.5104C180.517 39.0945 179.011 39.3866 177.181 39.3866C175.413 39.3866 173.938 39.2018 172.756 38.8323C171.585 38.4508 170.576 37.8429 169.728 37.0084C168.881 36.1621 168.217 35.1727 167.736 34.0403C167.255 32.9078 167.014 31.4059 167.014 29.5343C167.014 27.5794 167.307 25.9523 167.893 24.6529C168.322 23.6993 168.907 22.847 169.65 22.096C170.393 21.3331 171.156 20.7669 171.941 20.3973C173.185 19.8132 174.78 19.5212 176.726 19.5212C179.445 19.5212 181.516 20.0755 182.938 21.1841C184.371 22.2927 185.375 23.9139 185.951 26.0476L179.942 26.9595C179.754 26.1489 179.408 25.541 178.906 25.1357C178.415 24.7185 177.751 24.5099 176.914 24.5099C175.858 24.5099 175 24.945 174.341 25.8152C173.692 26.6734 173.368 27.9787 173.368 29.731C173.368 31.2926 173.692 32.4787 174.341 33.2893C174.989 34.0999 175.816 34.5052 176.82 34.5052C177.657 34.5052 178.357 34.2608 178.922 33.7721C179.497 33.2833 179.926 32.5323 180.209 31.5191Z" fill="#635bff"/>
</svg>